<svg  viewBox="0 0 30 31" fill="none" xmlns="http://www.w3.org/2000/svg">
<path d="M0 1.1615V29.4948H21.6667V24.4948H20V27.8282H1.66667V2.82817H20V6.1615H21.6667V1.1615H0Z" fill="currentColor"/>
<path fill-rule="evenodd" clip-rule="evenodd" d="M19.1667 22.8282C20.9375 22.8282 22.5649 22.2144 23.848 21.1882L28.5725 25.9171C28.8978 26.2427 29.4255 26.2429 29.751 25.9177C30.0766 25.5924 30.0769 25.0647 29.7516 24.7391L25.0264 20.0097C26.053 18.7266 26.6667 17.099 26.6667 15.3281C26.6667 11.186 23.3088 7.82812 19.1667 7.82812C15.0245 7.82812 11.6667 11.186 11.6667 15.3281C11.6667 19.4702 15.0245 22.8282 19.1667 22.8282ZM19.1667 21.1615C22.3883 21.1615 25 18.5497 25 15.3281C25 12.1065 22.3883 9.49478 19.1667 9.49478C15.945 9.49478 13.3333 12.1065 13.3333 15.3281C13.3333 18.5497 15.945 21.1615 19.1667 21.1615Z" fill="currentColor"/>"/>
</svg>
