<svg viewBox="0 0 24 24" fill="none" xmlns="http://www.w3.org/2000/svg">
<g clip-path="url(#clip0_568_20337)">
<path d="M17.4847 19.5766L12.7628 16.9606C14.5178 15.5798 14.9948 12.8663 14.9948 11.3446V8.1773C14.9948 6.0803 12.2085 3.7448 9.4095 3.7448C6.612 3.7448 3.7515 6.0803 3.7515 8.1773V11.3446C3.7515 12.7283 4.3365 15.5266 6.1095 16.9486L1.266 19.5758C1.266 19.5758 0 20.1398 0 20.8426V22.7431C0 23.4428 0.56775 24.0098 1.266 24.0098H17.4847C18.183 24.0098 18.7507 23.4421 18.7507 22.7431V20.8426C18.7507 20.0971 17.484 19.5758 17.484 19.5758L17.4847 19.5766ZM17.2507 22.5113H1.5V21.1703C1.60725 21.0916 1.758 21.0008 1.8765 20.9468C1.91175 20.9311 1.947 20.9138 1.98075 20.8943L6.825 18.2671C7.26675 18.0271 7.55925 17.5831 7.60425 17.0828C7.64925 16.5826 7.44 16.0928 7.0485 15.7786C5.79075 14.7698 5.2515 12.5371 5.2515 11.3453V8.17806C5.2515 7.10031 7.2825 5.24555 9.4095 5.24555C11.5762 5.24555 13.4948 7.07556 13.4948 8.17806V11.3453C13.4948 12.5198 13.1303 14.7631 11.8358 15.7816C11.4398 16.0936 11.226 16.5841 11.268 17.0858C11.31 17.5876 11.6025 18.0361 12.0443 18.2776L16.7662 20.8936C16.8075 20.9161 16.8607 20.9408 16.9042 20.9603C17.0152 21.0076 17.151 21.0856 17.2507 21.1546V22.5113ZM22.734 15.8423L17.9415 13.2263C19.6965 11.8456 20.244 9.13206 20.244 7.61031V4.44305C20.244 2.34605 17.388 -0.0126953 14.589 -0.0126953C12.7702 -0.0126953 10.911 0.976555 9.82875 2.24255C10.446 2.2808 11.1263 2.28155 11.7143 2.46905C12.5048 1.8533 13.5037 1.48805 14.589 1.48805C16.7557 1.48805 18.744 3.34056 18.744 4.4438V7.61105C18.744 8.78555 18.309 11.0288 17.0153 12.0473C16.6185 12.3593 16.4055 12.8498 16.4475 13.3516C16.4895 13.8541 16.7813 14.3018 17.2238 14.5433L22.0162 17.1593C22.0575 17.1818 22.1107 17.2066 22.1542 17.2261C22.2652 17.2733 22.401 17.3513 22.5007 17.4203V18.7546H19.473C19.9305 19.0996 20.0685 19.5931 20.2463 20.2546H22.7355C23.4337 20.2546 24.0015 19.6868 24.0015 18.9878V17.1106C24.0007 16.3643 22.734 15.8423 22.734 15.8423Z" fill="currentColor"/>
</g>
<defs>
<clipPath id="clip0_568_20337">
<rect width="24" height="24" fill="white"/>
</clipPath>
</defs>
</svg>
