<svg  viewBox="0 0 31 31" fill="none" xmlns="http://www.w3.org/2000/svg">
<g clip-path="url(#clip0_80_33552)">
<path d="M21.5625 24.7084C21.3139 24.7084 21.0754 24.8071 20.8996 24.983C20.7238 25.1588 20.625 25.3972 20.625 25.6459V28.4584H1.875V5.95837H5.625V6.89587C5.625 7.14451 5.72377 7.38297 5.89959 7.55879C6.0754 7.7346 6.31386 7.83337 6.5625 7.83337H15.9375C16.1861 7.83337 16.4246 7.7346 16.6004 7.55879C16.7762 7.38297 16.875 7.14451 16.875 6.89587V5.95837H20.625V6.89587C20.625 7.14451 20.7238 7.38297 20.8996 7.55879C21.0754 7.7346 21.3139 7.83337 21.5625 7.83337C21.8111 7.83337 22.0496 7.7346 22.2254 7.55879C22.4012 7.38297 22.5 7.14451 22.5 6.89587V5.02087C22.5 4.77223 22.4012 4.53378 22.2254 4.35796C22.0496 4.18215 21.8111 4.08337 21.5625 4.08337H16.875V3.14587C16.875 2.39995 16.5787 1.68458 16.0512 1.15714C15.5238 0.629692 14.8084 0.333374 14.0625 0.333374H8.4375C7.69158 0.333374 6.97621 0.629692 6.44876 1.15714C5.92131 1.68458 5.625 2.39995 5.625 3.14587V4.08337H0.9375C0.68886 4.08337 0.450402 4.18215 0.274587 4.35796C0.0987713 4.53378 0 4.77223 0 5.02087V29.3959C0 29.6445 0.0987713 29.883 0.274587 30.0588C0.450402 30.2346 0.68886 30.3334 0.9375 30.3334H21.5625C21.8111 30.3334 22.0496 30.2346 22.2254 30.0588C22.4012 29.883 22.5 29.6445 22.5 29.3959V25.6459C22.5 25.3972 22.4012 25.1588 22.2254 24.983C22.0496 24.8071 21.8111 24.7084 21.5625 24.7084ZM7.5 3.14587C7.5 2.89723 7.59877 2.65878 7.77459 2.48296C7.9504 2.30715 8.18886 2.20837 8.4375 2.20837H14.0625C14.3111 2.20837 14.5496 2.30715 14.7254 2.48296C14.9012 2.65878 15 2.89723 15 3.14587V5.95837H7.5V3.14587ZM29.7262 11.8571L25.9762 8.10712C25.8892 8.01982 25.7857 7.95055 25.6718 7.90329C25.5579 7.85603 25.4358 7.8317 25.3125 7.8317C25.1892 7.8317 25.0671 7.85603 24.9532 7.90329C24.8393 7.95055 24.7358 8.01982 24.6488 8.10712L13.3988 19.3571C13.3117 19.4443 13.2428 19.5479 13.1958 19.6618C13.1488 19.7756 13.1248 19.8977 13.125 20.0209V23.7709C13.125 24.0195 13.2238 24.258 13.3996 24.4338C13.5754 24.6096 13.8139 24.7084 14.0625 24.7084H17.8125C17.9357 24.7086 18.0577 24.6845 18.1716 24.6376C18.2855 24.5906 18.389 24.5216 18.4762 24.4346L29.7262 13.1846C29.8136 13.0975 29.8828 12.9941 29.9301 12.8802C29.9773 12.7663 30.0017 12.6442 30.0017 12.5209C30.0017 12.3976 29.9773 12.2755 29.9301 12.1616C29.8828 12.0477 29.8136 11.9442 29.7262 11.8571ZM15 22.8334V20.409L25.3125 10.0965L27.7369 12.5209L17.4244 22.8334H15ZM11.25 23.7709C11.25 24.0195 11.1512 24.258 10.9754 24.4338C10.7996 24.6096 10.5611 24.7084 10.3125 24.7084H6.5625C6.31386 24.7084 6.0754 24.6096 5.89959 24.4338C5.72377 24.258 5.625 24.0195 5.625 23.7709C5.625 23.5222 5.72377 23.2838 5.89959 23.108C6.0754 22.9321 6.31386 22.8334 6.5625 22.8334H10.3125C10.5611 22.8334 10.7996 22.9321 10.9754 23.108C11.1512 23.2838 11.25 23.5222 11.25 23.7709ZM11.25 18.1459C11.25 18.3945 11.1512 18.633 10.9754 18.8088C10.7996 18.9846 10.5611 19.0834 10.3125 19.0834H6.5625C6.31386 19.0834 6.0754 18.9846 5.89959 18.8088C5.72377 18.633 5.625 18.3945 5.625 18.1459C5.625 17.8972 5.72377 17.6588 5.89959 17.483C6.0754 17.3071 6.31386 17.2084 6.5625 17.2084H10.3125C10.5611 17.2084 10.7996 17.3071 10.9754 17.483C11.1512 17.6588 11.25 17.8972 11.25 18.1459ZM15.9375 13.4584H6.5625C6.31386 13.4584 6.0754 13.3596 5.89959 13.1838C5.72377 13.008 5.625 12.7695 5.625 12.5209C5.625 12.2722 5.72377 12.0338 5.89959 11.858C6.0754 11.6821 6.31386 11.5834 6.5625 11.5834H15.9375C16.1861 11.5834 16.4246 11.6821 16.6004 11.858C16.7762 12.0338 16.875 12.2722 16.875 12.5209C16.875 12.7695 16.7762 13.008 16.6004 13.1838C16.4246 13.3596 16.1861 13.4584 15.9375 13.4584Z" fill="currentColor"/>
</g>
<defs>
<clipPath id="clip0_80_33552">
<rect width="31" height="30" fill="white" transform="translate(0 0.333374)"/>
</clipPath>
</defs>
</svg>
