<svg width="30" height="31" viewBox="0 0 30 31" fill="none" xmlns="http://www.w3.org/2000/svg">
<g clip-path="url(#clip0_274_13537)">
<path d="M24.3722 7.72748H19.2137C19.2947 7.39669 19.3386 7.05144 19.3386 6.69603C19.3386 4.30375 17.3923 2.35742 15 2.35742C12.6077 2.35742 10.6611 4.30369 10.6611 6.69603C10.6611 7.05144 10.705 7.39669 10.786 7.72748H5.62769L0 28.9759H30L24.3722 7.72748ZM15 3.59208C16.7114 3.59208 18.104 4.98463 18.104 6.69603C18.104 8.4075 16.7114 9.80006 15 9.80006C13.2882 9.80006 11.8957 8.4075 11.8957 6.69603C11.8957 4.98463 13.2882 3.59208 15 3.59208ZM6.57778 8.96208H11.3017C12.0658 10.2044 13.4376 11.0346 14.9999 11.0346C16.5623 11.0346 17.934 10.2043 18.698 8.96208H23.4221L28.3959 27.7413H1.60414L6.57778 8.96208Z" fill="#2E2F31"/>
<path d="M14.408 15.2112H13.0428L10.1303 18.3152V15.2112H9.05627V21.5736H10.1303V19.7897L11.0585 18.7885L13.1703 21.5736H14.4443L11.8503 17.9967L14.408 15.2112Z" fill="#AF842D"/>
<path d="M19.8694 20.2266C19.4628 20.4873 18.9576 20.6181 18.3539 20.6181C17.7502 20.6181 17.2361 20.4132 16.8117 20.0036C16.3865 19.594 16.174 19.0511 16.174 18.3745C16.174 17.6977 16.3924 17.1515 16.8295 16.736C17.2666 16.3204 17.8065 16.1123 18.4495 16.1123C18.7836 16.1123 19.0762 16.1534 19.328 16.2352C19.5799 16.317 19.8303 16.4644 20.0791 16.6766L20.6525 15.8574C20.0458 15.3237 19.2844 15.0566 18.3681 15.0566C17.4518 15.0566 16.6703 15.3722 16.0244 16.0029C15.3777 16.6343 15.0548 17.4228 15.0548 18.3696C15.0548 19.3162 15.3718 20.0991 16.0059 20.718C16.6399 21.3369 17.4273 21.6465 18.368 21.6465C19.4843 21.6465 20.3428 21.3157 20.9436 20.6543V18.4788H19.8695V20.2266H19.8694Z" fill="#AF842D"/>
</g>
<defs>
<clipPath id="clip0_274_13537">
<rect width="30" height="30" fill="white" transform="translate(0 0.666748)"/>
</clipPath>
</defs>
</svg>
