<svg  viewBox="0 0 30 31" fill="none" xmlns="http://www.w3.org/2000/svg">
<g clip-path="url(#clip0_923_22859)">
<path d="M17.4 9.48325H20.85V12.9333C20.85 13.2383 20.9712 13.5308 21.1868 13.7464C21.4025 13.9621 21.695 14.0833 22 14.0833C22.305 14.0833 22.5975 13.9621 22.8132 13.7464C23.0288 13.5308 23.15 13.2383 23.15 12.9333V9.48325H26.6C26.905 9.48325 27.1975 9.36209 27.4132 9.14642C27.6288 8.93076 27.75 8.63825 27.75 8.33325C27.75 8.02825 27.6288 7.73575 27.4132 7.52008C27.1975 7.30441 26.905 7.18325 26.6 7.18325H23.15V3.73325C23.15 3.42825 23.0288 3.13575 22.8132 2.92008C22.5975 2.70441 22.305 2.58325 22 2.58325C21.695 2.58325 21.4025 2.70441 21.1868 2.92008C20.9712 3.13575 20.85 3.42825 20.85 3.73325V7.18325H17.4C17.095 7.18325 16.8025 7.30441 16.5868 7.52008C16.3712 7.73575 16.25 8.02825 16.25 8.33325C16.25 8.63825 16.3712 8.93076 16.5868 9.14642C16.8025 9.36209 17.095 9.48325 17.4 9.48325Z" fill="currentColor"/>
<g clip-path="url(#clip1_923_22859)">
<rect x="0.15" y="15.4833" width="14.4" height="14.4" rx="2.85" fill="#AF842D" stroke="currentColor" stroke-width="0.3"/>
<path d="M4.90024 20.2932C4.46238 20.4263 4.03494 20.302 3.76741 20.1263C3.49986 19.9506 3.18427 19.5169 3.26129 18.8895C3.40019 17.7584 4.57983 17.7606 4.57983 17.7606C4.21093 17.4649 3.68642 17.5336 3.48769 17.6035C2.32227 18.0132 2.07451 19.2205 2.07451 19.2205C1.8125 21.2387 4.75236 21.4421 4.75236 21.4421C6.29768 21.3888 6.44672 19.8031 6.44672 19.8031C5.77031 19.8472 4.90024 20.2932 4.90024 20.2932Z" fill="#EAE7D0"/>
<path d="M4.90022 20.2933C2.90997 20.5559 2.07451 19.2206 2.07451 19.2206C1.8125 21.2389 4.75236 21.4422 4.75236 21.4422C6.29769 21.3889 6.44672 19.8032 6.44672 19.8032C5.77029 19.8473 4.90022 20.2933 4.90022 20.2933Z" fill="#DDD9BF"/>
<path d="M12.2043 19.2205C12.2043 19.2205 11.9566 18.0132 10.7912 17.6035C10.5924 17.5336 10.0679 17.4649 9.69901 17.7606C9.69901 17.7606 10.8787 17.7584 11.0176 18.8895C11.0946 19.5169 10.779 19.9506 10.5115 20.1263C10.2439 20.302 9.81649 20.4263 9.37863 20.2932C9.37863 20.2932 8.50856 19.8472 7.83215 19.8031C7.83215 19.8031 7.98119 21.3888 9.52651 21.4421C9.52651 21.4421 12.4663 21.2387 12.2043 19.2205Z" fill="#EAE7D0"/>
<path d="M12.2043 19.2206C12.2043 19.2206 11.3689 20.5559 9.37863 20.2933C9.37863 20.2933 8.50856 19.8473 7.83215 19.8032C7.83215 19.8032 7.98119 21.3889 9.52651 21.4422C9.52651 21.4422 12.4663 21.2389 12.2043 19.2206Z" fill="#DDD9BF"/>
<path d="M10.4897 21.4643C9.83083 21.3812 9.19684 21.7686 9.19684 21.9608C9.19684 22.153 9.42586 22.5624 10.3116 22.696C10.9705 22.779 11.6045 22.153 11.6045 21.9608C11.6045 21.7686 11.1486 21.5472 10.4897 21.4643Z" fill="#4C4A48"/>
<path d="M10.3203 21.7046C9.91953 21.6541 9.53394 21.8897 9.53394 22.0066C9.53394 22.1235 9.67325 22.3725 10.2119 22.4538C10.6127 22.5043 10.9983 22.1235 10.9983 22.0066C10.9983 21.8897 10.721 21.7551 10.3203 21.7046Z" fill="#383736"/>
<path d="M3.8876 21.4643C3.22872 21.5472 2.77283 21.7686 2.77283 21.9608C2.77283 22.153 3.40684 22.779 4.06572 22.696C4.95144 22.5624 5.18049 22.153 5.18049 21.9608C5.18049 21.7686 4.54648 21.3812 3.8876 21.4643Z" fill="#4C4A48"/>
<path d="M4.05691 21.7046C3.65617 21.7551 3.37891 21.8897 3.37891 22.0066C3.37891 22.1235 3.7645 22.5042 4.16523 22.4538C4.70391 22.3725 4.84323 22.1235 4.84323 22.0066C4.84323 21.8897 4.45764 21.6541 4.05691 21.7046Z" fill="#383736"/>
<path d="M9.54996 21.7866C9.54996 21.7866 9.85313 21.2094 9.67125 20.9377C9.67125 20.9377 9.45298 20.7793 9.12557 20.734C9.12557 20.734 8.01399 20.1461 7.18583 20.1461C6.35768 20.1461 5.24613 20.734 5.24613 20.734C4.91874 20.7793 4.70044 20.9377 4.70044 20.9377C4.51857 21.2094 4.82173 21.7866 4.82173 21.7866C4.88235 22.0129 4.76109 22.4883 4.76109 22.4883C4.6277 23.3145 5.73116 25.2951 5.73116 25.2951C5.82815 25.4535 6.2402 26.5595 7.1858 26.5595C8.13141 26.5595 8.54349 25.4535 8.64047 25.2951C8.64047 25.2951 9.74399 23.3145 9.61058 22.4883C9.61058 22.4883 9.48935 22.0129 9.54996 21.7866Z" fill="#3F3D3D"/>
<path d="M9.12551 20.734C9.12551 20.734 8.01393 20.1461 7.18577 20.1461C6.35762 20.1461 5.24606 20.734 5.24606 20.734C5.06861 20.734 5.77153 22.1638 5.77153 22.1638L6.12322 24.5095C6.2202 24.6679 6.24016 26.5595 7.18577 26.5595C8.13138 26.5595 8.19141 24.6157 8.28839 24.4572L8.60007 22.1638C8.60007 22.1638 9.25432 20.734 9.12551 20.734Z" fill="#514F4D"/>
<path d="M5.2461 20.734C5.08965 20.734 5.77157 22.1638 5.77157 22.1638L6.12325 24.5095C6.22024 24.6679 6.2402 26.5595 7.18581 26.5595V20.1461C6.35765 20.1461 5.2461 20.734 5.2461 20.734Z" fill="#444341"/>
<path d="M7.15096 24.3969C5.61373 24.3969 5.60107 24.9719 5.60107 24.9719C5.64702 25.3114 5.67997 25.6863 5.73118 25.832C5.78239 25.9778 6.20827 26.6042 7.18582 26.6042C8.1634 26.6042 8.55829 26.0293 8.64049 25.832C8.72272 25.6348 8.72468 25.3114 8.77063 24.9719C8.77063 24.9719 8.6882 24.3969 7.15096 24.3969Z" fill="#383736"/>
<path d="M6.27161 25.0446C5.87782 26.2337 7.01292 25.931 7.01292 25.931C6.53351 25.784 6.27161 25.0446 6.27161 25.0446Z" fill="#161616"/>
<path d="M8.1843 25.0446C8.1843 25.0446 7.9224 25.784 7.44299 25.931C7.44299 25.931 8.57812 26.2337 8.1843 25.0446Z" fill="#161616"/>
<path d="M5.3593 21.2207L4.65596 21.198C4.65596 21.198 4.60744 21.247 4.64784 21.4847C4.68827 21.7224 4.82168 21.7865 4.82168 21.7865L5.77155 22.1638L5.82813 22.0732L5.3593 21.2207Z" fill="#282727"/>
<path d="M9.71568 21.198L9.01234 21.2207L8.54346 22.0732L8.60007 22.1638L9.54993 21.7865C9.54993 21.7865 9.68332 21.7224 9.72374 21.4847C9.7642 21.247 9.71568 21.198 9.71568 21.198Z" fill="#282727"/>
<path d="M9.7157 21.198L9.71436 21.1981C9.72737 21.2355 9.73591 21.2758 9.73981 21.3178C9.7393 21.2222 9.7157 21.198 9.7157 21.198Z" fill="#494949"/>
<path d="M9.07226 20.2359C8.82778 19.9833 8.06486 19.7584 7.17268 19.7584C6.34984 19.7584 5.6248 19.8778 5.32122 20.1693C5.22387 20.2628 5.16986 20.7925 5.16986 20.7925C5.16986 21.1073 9.15421 21.1073 9.15421 20.7925C9.15421 20.7925 9.12554 20.291 9.07226 20.2359Z" fill="#383736"/>
<path d="M7.17268 19.7584C6.34984 19.7584 5.6248 19.8778 5.32122 20.1693C5.22387 20.2628 5.16986 20.7925 5.16986 20.7925C5.16986 20.9512 6.18283 21.0299 7.18726 21.0286L7.17268 19.7584Z" fill="#2D2D2D"/>
</g>
<g clip-path="url(#clip2_923_22859)">
<rect x="0.15" y="0.762305" width="14.7" height="13.7" rx="2.85" fill="#AF842D" stroke="currentColor" stroke-width="0.3"/>
<path d="M10.5756 5.04511C10.4965 5.04222 9.79248 5.02413 9.36243 5.38022L8.06665 6.37655H7.50559C7.50517 6.37655 7.50475 6.37658 7.50433 6.37658C7.50201 6.37658 7.49972 6.37664 7.49742 6.37666C7.49641 6.37666 7.49542 6.37655 7.49441 6.37655H6.93335L5.63759 5.38022C5.20749 5.02417 4.50413 5.04228 4.42439 5.04511C4.1774 5.05514 3.98759 5.21725 4.00063 5.40728C4.01367 5.59713 4.22219 5.74246 4.47163 5.7331C4.56586 5.72926 4.8639 5.74992 4.98263 5.85044C4.98742 5.85449 4.99233 5.85844 4.99742 5.86227L6.11182 6.71914C5.49402 7.05648 5.09015 7.61097 5.09015 8.23665C5.09015 9.26229 6.17541 10.0967 7.50937 10.0967C8.84328 10.0967 9.92852 9.26229 9.92852 8.23665C9.92852 7.60727 9.51978 7.04999 8.89581 6.71323L10.0025 5.86227C10.0076 5.85844 10.0125 5.85449 10.0174 5.85044C10.1315 5.7537 10.4122 5.72993 10.5309 5.73318C10.7763 5.7418 10.9864 5.59662 10.9994 5.40728C11.0124 5.21725 10.8226 5.05514 10.5756 5.04511ZM9.03257 8.23663C9.03257 8.88245 8.34927 9.40779 7.5094 9.40779C6.66947 9.40779 5.9862 8.88245 5.9862 8.23663C5.9862 7.59083 6.66947 7.06547 7.5094 7.06547C8.34927 7.06547 9.03257 7.59083 9.03257 8.23663Z" fill="#FFFDEB"/>
</g>
<g clip-path="url(#clip3_923_22859)">
<rect x="15.15" y="15.4833" width="14.4" height="14.4" rx="2.85" fill="#AF842D" stroke="currentColor" stroke-width="0.3"/>
<path d="M26.9898 22.9415C26.9942 22.7113 27.0575 22.1872 27.0572 21.8295C27.0579 21.7617 27.0545 21.6939 27.047 21.6266C27.0463 21.6208 27.0455 21.6149 27.0448 21.6095C27.0425 21.5313 27.0348 21.4534 27.0218 21.3764C26.9605 21.0457 26.8277 20.7325 26.6328 20.4585C26.5231 20.2938 26.3876 20.1478 26.2314 20.0261C26.0311 19.8837 25.8133 19.7675 25.5834 19.6804C25.582 19.6798 25.5806 19.6793 25.5791 19.679C24.9515 19.4397 24.2689 19.4167 23.563 19.4382C23.3998 19.4433 23.2352 19.4506 23.0698 19.4582C22.9718 19.4633 22.8695 19.4688 22.7649 19.4754C21.8456 19.5326 20.7022 19.648 19.7344 19.569C19.5453 19.5545 19.357 19.5298 19.1705 19.495C19.2526 19.4528 19.3298 19.4017 19.4008 19.3427C19.4332 19.3211 19.4566 19.2882 19.4664 19.2505C19.4676 19.2284 19.4623 19.2064 19.4512 19.1873C19.44 19.1682 19.4236 19.1527 19.4038 19.1428C19.3638 19.1238 19.3203 19.1133 19.276 19.1121C19.167 19.0995 19.0569 19.0998 18.948 19.1132C18.8392 19.1293 18.7583 19.1385 18.6734 19.2076C18.6734 19.2076 18.6519 19.2215 18.652 19.2217C18.617 19.202 18.575 19.1768 18.5191 19.1443C18.3661 19.0561 18.1593 19.0022 18.0219 19.1137C17.9199 19.196 17.8897 19.3461 17.7834 19.424C17.7708 19.4331 17.7575 19.4412 17.7437 19.448C17.6723 19.4848 17.5867 19.4965 17.5167 19.538C17.3277 19.6498 17.2982 19.8797 17.2315 20.1161C17.1354 20.3947 17.0115 20.5492 16.8571 20.732C16.7179 20.8966 16.4713 20.9954 16.4397 21.2088C16.416 21.372 16.5413 21.5235 16.6859 21.604C16.9766 21.7665 17.3361 21.7257 17.661 21.6521C17.889 21.6005 18.2832 21.5005 18.5898 21.3571L18.6108 21.3982C18.6967 21.5662 18.8723 21.7075 19.0659 21.8997C19.1927 22.0246 19.2813 22.1831 19.3215 22.3565C19.4448 22.8981 19.6967 23.6249 20.3335 23.8875C20.366 23.9661 20.3844 24.0499 20.3879 24.135C20.3719 24.528 20.5843 25.0867 20.5742 25.3485C20.542 25.5364 20.4844 25.7189 20.403 25.8912C20.3275 25.9932 20.2369 26.2191 20.2293 26.3142C20.2242 26.3777 20.2789 26.4162 20.3426 26.4162C20.4986 26.4162 20.8161 26.4254 20.8688 26.4213C20.9125 26.4178 21.0123 26.4326 21.0577 26.361C21.0807 26.3246 21.0728 26.031 21.0791 25.8988C21.1055 25.8082 21.1811 25.6942 21.2339 25.5098C21.2742 25.3688 21.2116 25.1327 21.1868 24.8462C21.172 24.6765 21.2654 24.4169 21.3868 24.1295L21.4148 24.1373C21.5906 24.1875 22.21 24.2787 22.6777 24.2709C23.5543 24.2564 24.5791 24.0366 25.347 23.7739L25.3679 23.7637C25.5044 23.8986 25.6613 24.0111 25.833 24.0971C26.076 24.2314 26.2234 24.4977 26.2796 24.7696C26.3357 25.0415 26.3868 25.2504 26.4155 25.4897C26.4349 25.6512 26.4782 25.8274 26.4646 25.9894C26.4482 26.0738 26.3769 26.2903 26.3493 26.3882C26.3469 26.3969 26.3464 26.4059 26.3479 26.4147C26.3494 26.4236 26.3528 26.432 26.358 26.4393C26.3631 26.4467 26.3698 26.4528 26.3776 26.4572C26.3854 26.4617 26.394 26.4643 26.403 26.465C26.5766 26.4793 26.92 26.4776 27.0999 26.4695C27.1217 26.4685 27.1424 26.4596 27.1582 26.4446C27.1741 26.4296 27.184 26.4094 27.1862 26.3876C27.2016 26.2298 27.2049 26.071 27.196 25.9127C27.1457 25.7112 27.0599 25.3481 27.0144 25.1314C26.8146 24.1796 26.8995 23.9102 26.9896 22.9417" fill="white"/>
<path d="M19.9289 21.2486C19.8018 21.5259 19.617 21.5262 19.367 21.3512C19.1169 21.1762 19.2041 20.8727 18.9032 20.8235C18.6455 20.7814 18.391 20.8927 18.1439 20.9773C17.8968 21.0618 17.6087 21.1183 17.3872 20.9801C17.3275 20.9473 17.2822 20.8933 17.2602 20.8289C17.2086 20.6431 17.4348 20.5141 17.5472 20.357C17.6643 20.1931 17.657 19.9752 17.6874 19.776C17.698 19.7053 17.7159 19.5809 17.7434 19.4482C17.7574 19.4413 17.7708 19.4332 17.7835 19.424C17.8895 19.346 17.92 19.196 18.022 19.1136C18.1593 19.0023 18.3662 19.0561 18.5192 19.1443C18.5748 19.1766 18.6165 19.2018 18.6517 19.2216L18.6733 19.2077C18.7582 19.1385 18.8391 19.1293 18.9479 19.1132C19.0568 19.0999 19.1669 19.0995 19.2759 19.1121C19.3202 19.1134 19.3637 19.1238 19.4037 19.1429C19.4235 19.1528 19.4399 19.1682 19.4511 19.1873C19.4622 19.2064 19.4675 19.2284 19.4663 19.2505C19.4565 19.2882 19.4331 19.3211 19.4007 19.3427C19.3297 19.4017 19.2525 19.4528 19.1704 19.495C19.3489 19.5291 19.8042 19.6189 20.8401 19.5866C20.8808 20.4083 20.0386 20.2708 19.9234 20.7496C19.8822 20.9215 19.9736 21.151 19.9289 21.2486Z" fill="#2D2B28"/>
<path d="M27.0217 21.3761C26.9375 21.5221 26.8115 21.5917 26.6541 21.5731C26.4665 21.5513 26.3081 21.4282 26.1624 21.308C26.0167 21.1878 25.8641 21.0599 25.6783 21.0257C25.5119 20.9951 25.3425 21.0435 25.1764 21.0745C25.0103 21.1054 24.4195 21.0646 24.2705 20.9845C24.1179 20.9026 24.0137 20.7787 24.0694 20.562C24.213 20.0047 23.7624 19.8961 23.5322 19.616C23.5216 19.6027 23.5139 19.5872 23.5097 19.5707C23.5055 19.5542 23.5048 19.537 23.5077 19.5201C23.5106 19.5033 23.517 19.4873 23.5265 19.4732C23.536 19.459 23.5483 19.447 23.5628 19.4379C24.2687 19.4164 24.9513 19.4394 25.5789 19.6787C25.5804 19.679 25.5819 19.6795 25.5833 19.6801C25.8131 19.7673 26.0309 19.8834 26.2312 20.0258C26.3874 20.1475 26.5229 20.2935 26.6326 20.4582C26.8275 20.7322 26.9603 21.0455 27.0217 21.3761Z" fill="#2D2B28"/>
<path d="M21.6161 21.8168C22.0495 21.9115 22.4425 21.9115 22.6999 21.8168C22.7965 21.7833 22.8792 21.7186 22.9349 21.6328C22.9906 21.547 23.016 21.4452 23.0073 21.3433C22.9844 21.0851 22.9755 20.9327 22.8762 20.7735C22.7669 20.5989 22.6107 20.489 22.4291 20.489C22.0367 20.489 22.0707 20.8657 21.8059 20.9496C21.2935 21.112 21.1983 21.362 21.2098 21.4644C21.2328 21.6526 21.4823 21.7876 21.6161 21.8168Z" fill="#2D2B28"/>
<path d="M20.0429 23.1393C20.0457 23.4309 20.1964 23.6923 20.2823 23.9638C20.2993 24.0113 20.3103 24.0608 20.3149 24.1111C20.3175 24.1755 20.3143 24.2394 20.32 24.3039C20.3358 24.4562 20.3613 24.6073 20.3965 24.7564C20.4273 24.8962 20.4626 25.0355 20.4865 25.1767C20.4963 25.2266 20.5014 25.2773 20.5016 25.3282C20.4939 25.4114 20.4756 25.4932 20.4472 25.5718C20.4263 25.6435 20.4014 25.714 20.3728 25.783C20.3495 25.8323 20.3235 25.8802 20.2949 25.9265C20.226 26.041 20.1796 26.1676 20.1581 26.2995C20.1534 26.3364 20.1614 26.3737 20.1807 26.4055C20.2 26.4373 20.2295 26.4615 20.2644 26.4743C20.3207 26.4964 20.3858 26.4893 20.4453 26.4901C20.5691 26.4917 20.6933 26.4955 20.8173 26.4953C20.9182 26.4953 21.0392 26.5028 21.108 26.415C21.1327 26.3765 21.145 26.3314 21.1431 26.2857C21.1473 26.2263 21.1476 26.1666 21.1483 26.1072C21.1489 26.0466 21.1483 25.9858 21.1509 25.9251C21.1526 25.8835 21.1864 25.8268 21.2069 25.7822C21.2678 25.6498 21.3247 25.5153 21.3193 25.367C21.3135 25.2043 21.2787 25.0432 21.2628 24.8813C21.2541 24.7885 21.2635 24.6949 21.2905 24.6057C21.357 24.3563 21.469 24.1192 21.5722 23.8836C21.6823 23.6322 21.7973 23.3797 21.8719 23.115C21.8877 23.0598 21.9006 23.0039 21.9108 22.9475C21.9154 22.9288 21.9127 22.9091 21.9032 22.8925C21.8937 22.8758 21.8782 22.8634 21.8598 22.8578C21.8412 22.8529 21.8213 22.8554 21.8046 22.865C21.7878 22.8745 21.7755 22.8903 21.7702 22.9088C21.7271 23.1529 21.6288 23.3866 21.5318 23.6133C21.4252 23.8623 21.3091 24.1079 21.2159 24.3625C21.1773 24.4622 21.1474 24.565 21.1267 24.6699C21.1103 24.7873 21.1127 24.9066 21.1336 25.0232C21.1518 25.1611 21.1875 25.3094 21.1718 25.449C21.1572 25.5787 21.0808 25.7003 21.0312 25.8189C20.9865 25.9256 21.0037 26.0522 21.0016 26.1661C21.0008 26.2127 21.0001 26.2785 20.9949 26.3148C20.996 26.3075 20.9919 26.3279 20.9917 26.3302C20.9911 26.3412 20.9978 26.3255 20.9917 26.3279C20.9731 26.3376 20.9529 26.3441 20.9321 26.3471C20.8447 26.3533 20.7556 26.3495 20.668 26.3481C20.6014 26.347 20.5349 26.3457 20.4684 26.3448C20.4407 26.3444 20.4131 26.344 20.3855 26.3438C20.3648 26.3438 20.3275 26.3505 20.3104 26.336C20.3068 26.3322 20.3042 26.3275 20.3029 26.3224C20.3016 26.3172 20.3017 26.3119 20.3032 26.3068C20.3083 26.2784 20.3156 26.2504 20.325 26.223C20.3447 26.1613 20.3692 26.1011 20.3981 26.0431C20.4232 25.9925 20.4576 25.9472 20.4811 25.8962C20.509 25.8356 20.5336 25.7733 20.5556 25.7104C20.6034 25.5729 20.6571 25.4175 20.6446 25.2704C20.6307 25.1446 20.6082 25.0199 20.5774 24.8972C20.545 24.7536 20.511 24.6103 20.4868 24.465C20.475 24.3968 20.4669 24.328 20.4623 24.259C20.4589 24.2014 20.4646 24.1431 20.4585 24.0859C20.4457 23.9645 20.3978 23.8491 20.3541 23.7362C20.2987 23.6041 20.2521 23.4686 20.2145 23.3304C20.1986 23.268 20.1899 23.2039 20.1886 23.1395C20.1877 23.0458 20.042 23.0455 20.0429 23.1395V23.1393Z" fill="#493833"/>
<path d="M24.9528 22.8357C24.9726 23.0586 25.007 23.2816 25.0971 23.4881C25.1778 23.6666 25.3014 23.8224 25.4569 23.9415C25.5635 24.0239 25.677 24.0969 25.7961 24.1597C25.8786 24.2042 25.9523 24.0785 25.8696 24.0339C25.6909 23.9375 25.5168 23.8263 25.3827 23.6717C25.2705 23.5363 25.1924 23.3759 25.1551 23.2041C25.1271 23.0829 25.1081 22.9597 25.0985 22.8357C25.098 22.8165 25.0901 22.7983 25.0766 22.7847C25.063 22.7711 25.0448 22.7633 25.0256 22.7628C25.0063 22.763 24.9879 22.7707 24.9742 22.7843C24.9606 22.7979 24.9529 22.8164 24.9528 22.8357Z" fill="#493833"/>
<path d="M26.9166 22.9416C26.8759 23.3771 26.8063 23.8153 26.8212 24.2538C26.8367 24.7104 26.9416 25.1593 27.0459 25.6023C27.0703 25.7057 27.0957 25.8088 27.1206 25.9119C27.1397 25.991 27.1291 26.1002 27.126 26.1868C27.1242 26.2366 27.1217 26.2865 27.1178 26.3361C27.1141 26.3811 27.118 26.3959 27.07 26.3977C26.9653 26.4016 26.8605 26.4028 26.7557 26.4026C26.651 26.4024 26.5462 26.4012 26.4417 26.3948C26.432 26.3928 26.422 26.3921 26.4121 26.3927C26.415 26.3904 26.4205 26.4073 26.4194 26.4073C26.4259 26.3896 26.4312 26.3715 26.4353 26.353C26.4492 26.307 26.4635 26.261 26.4775 26.215C26.5067 26.1192 26.5399 26.0247 26.5399 25.9236C26.5399 25.7828 26.5086 25.6444 26.4902 25.5055C26.471 25.3614 26.4479 25.2188 26.4186 25.0764C26.3888 24.9325 26.3649 24.7844 26.3228 24.6435C26.2486 24.3952 26.0989 24.1635 25.8695 24.0338C25.7878 23.9876 25.7143 24.1134 25.796 24.1596C25.999 24.2744 26.1261 24.4817 26.188 24.702C26.2245 24.8322 26.2474 24.9675 26.2749 25.0998C26.3012 25.2263 26.3255 25.3533 26.3415 25.4815C26.3595 25.6257 26.3927 25.7695 26.3941 25.9153C26.395 26.0134 26.3581 26.1075 26.3296 26.2004C26.3021 26.2902 26.2338 26.4194 26.3139 26.4991C26.3553 26.5402 26.414 26.5392 26.4683 26.5419C26.5212 26.5446 26.5742 26.5461 26.6272 26.547C26.7406 26.549 26.854 26.5487 26.9674 26.5462C27.0717 26.544 27.2002 26.5556 27.2469 26.4388C27.2616 26.3883 27.2684 26.3357 27.2671 26.2831C27.2704 26.2268 27.2726 26.1704 27.2736 26.114C27.2784 26.0188 27.2707 25.9234 27.2505 25.8303C27.1381 25.373 27.0183 24.909 26.978 24.4386C26.9413 24.0108 26.998 23.5857 27.0409 23.1605C27.0482 23.0875 27.0553 23.0144 27.0622 22.9414C27.0621 22.9221 27.0544 22.9037 27.0407 22.89C27.0271 22.8764 27.0086 22.8687 26.9894 22.8685C26.9702 22.8689 26.9519 22.8767 26.9383 22.8903C26.9247 22.9039 26.9169 22.9222 26.9165 22.9414L26.9166 22.9416Z" fill="#493833"/>
<path d="M21.3952 24.2075C21.582 24.2538 21.7721 24.2854 21.9638 24.3018C22.2231 24.334 22.4842 24.3475 22.7454 24.3422C23.3274 24.32 23.9056 24.2389 24.4712 24.0999C24.7733 24.0288 25.0722 23.9443 25.3661 23.8441C25.4544 23.814 25.4165 23.6732 25.3274 23.7036C24.7997 23.8826 24.2578 24.0161 23.7074 24.1028C23.1686 24.1949 22.6202 24.2168 22.0758 24.1682C21.8625 24.1469 21.641 24.1252 21.434 24.067C21.3435 24.0415 21.305 24.1821 21.3952 24.2075Z" fill="#493833"/>
<path d="M18.5477 21.4351C18.6586 21.6463 18.8612 21.794 19.0245 21.9618C19.1019 22.0408 19.1637 22.1336 19.2067 22.2354C19.2391 22.3259 19.2649 22.4187 19.2841 22.513C19.3776 22.8764 19.5165 23.2371 19.7529 23.5325C19.8908 23.7077 20.0685 23.8473 20.2713 23.9398C20.2881 23.949 20.3078 23.9514 20.3263 23.9465C20.3448 23.9417 20.3608 23.9299 20.371 23.9137C20.3806 23.897 20.3832 23.8772 20.3783 23.8585C20.3734 23.8399 20.3614 23.8239 20.3448 23.814C19.9925 23.6574 19.7584 23.3475 19.6039 23.0033C19.5321 22.8392 19.474 22.6695 19.4302 22.4958C19.4077 22.4101 19.3921 22.3217 19.3628 22.2379C19.3243 22.1288 19.2678 22.027 19.1957 21.9365C19.0354 21.734 18.7956 21.5941 18.6733 21.3615C18.6296 21.2785 18.504 21.3521 18.5476 21.4351H18.5477Z" fill="#493833"/>
<path d="M27.0625 22.9414C27.0684 22.6689 27.1041 22.3971 27.12 22.1252C27.1392 21.795 27.1341 21.4554 27.0412 21.1356C26.9444 20.8118 26.7829 20.511 26.5666 20.2513C26.3567 19.9965 26.0821 19.8196 25.7828 19.6849C25.1244 19.3884 24.3953 19.3461 23.6832 19.362C22.9779 19.3779 22.2753 19.4403 21.5715 19.4833C20.8688 19.5262 20.1546 19.5577 19.4543 19.4669C19.3659 19.4555 19.2778 19.4411 19.1902 19.4246C19.0985 19.4074 19.0593 19.5478 19.1515 19.5651C19.8412 19.695 20.5532 19.6813 21.2513 19.6468C21.9375 19.6129 22.6218 19.549 23.3083 19.5203C24.0141 19.4909 24.7417 19.477 25.4209 19.6999C25.5805 19.7519 25.7353 19.8176 25.8835 19.8963C26.0254 19.9672 26.158 20.0551 26.2785 20.1581C26.5128 20.3781 26.6971 20.6459 26.8189 20.9433C26.95 21.2548 26.9913 21.5894 26.9828 21.9253C26.9755 22.2134 26.9438 22.5 26.9243 22.7874C26.9206 22.8387 26.9178 22.89 26.9166 22.9414C26.9146 23.0351 27.0603 23.0351 27.0623 22.9414H27.0625Z" fill="#493833"/>
<path d="M18.6312 19.3211C18.679 19.2854 18.7293 19.2531 18.7817 19.2245C18.8743 19.1822 18.9951 19.1757 19.095 19.1753C19.1578 19.1755 19.2206 19.1788 19.283 19.1853C19.3113 19.1881 19.3923 19.1948 19.394 19.2371C19.3955 19.2731 19.3155 19.3181 19.2907 19.3358C19.2407 19.3714 19.1881 19.4035 19.1336 19.4317C19.0504 19.4751 19.124 19.6009 19.2071 19.5575C19.2753 19.5221 19.3403 19.4808 19.4014 19.4341C19.4578 19.3908 19.5216 19.3438 19.5364 19.2695C19.5417 19.234 19.5365 19.1978 19.5214 19.1653C19.5063 19.1329 19.482 19.1055 19.4515 19.0867C19.3873 19.0427 19.3015 19.0403 19.2266 19.0347C19.0795 19.0208 18.9312 19.0321 18.788 19.0681C18.6974 19.0934 18.6336 19.146 18.5577 19.1952C18.4793 19.246 18.5522 19.3721 18.6312 19.321V19.3211Z" fill="#493833"/>
<path d="M17.3085 19.4525C17.3011 19.443 17.2944 19.4329 17.2884 19.4225C17.2858 19.418 17.2834 19.4135 17.2811 19.4088C17.2795 19.4057 17.2781 19.4026 17.2767 19.3995C17.2803 19.4083 17.2811 19.4101 17.2791 19.405C17.2755 19.3944 17.2718 19.384 17.2689 19.3731C17.2676 19.3682 17.2665 19.3631 17.2655 19.358C17.2648 19.3546 17.2642 19.3512 17.2637 19.3479C17.265 19.3588 17.2652 19.36 17.2643 19.3519C17.2635 19.3415 17.2627 19.3313 17.2627 19.3209C17.2627 19.3149 17.2629 19.3088 17.2633 19.3027C17.2633 19.3001 17.2637 19.2975 17.2639 19.2949C17.2648 19.2868 17.2645 19.2881 17.2632 19.2989C17.2635 19.2885 17.2656 19.2783 17.2693 19.2686C17.2717 19.2567 17.2755 19.2452 17.2807 19.2344C17.2711 19.251 17.2802 19.2365 17.2819 19.2331C17.2846 19.2277 17.2875 19.2224 17.2906 19.2172C17.2937 19.2121 17.2971 19.2071 17.3004 19.2021C17.3043 19.1967 17.3044 19.1965 17.3009 19.2013C17.2973 19.2062 17.2976 19.2061 17.3017 19.2011C17.3076 19.1957 17.3066 19.1964 17.2986 19.2034L17.2901 19.2073C17.2848 19.209 17.2791 19.2097 17.2736 19.2092C17.268 19.2087 17.2626 19.2071 17.2576 19.2044C17.2642 19.2087 17.2634 19.2081 17.2553 19.2023C17.2577 19.2023 17.2665 19.2133 17.2676 19.2144L17.2822 19.229L17.4145 19.3613C17.4212 19.3683 17.4292 19.374 17.4381 19.3779C17.447 19.3818 17.4566 19.3839 17.4663 19.384C17.476 19.3842 17.4857 19.3824 17.4947 19.3787C17.5037 19.3751 17.5119 19.3697 17.5188 19.3628C17.5257 19.356 17.5312 19.3478 17.5348 19.3388C17.5385 19.3298 17.5404 19.3202 17.5403 19.3104C17.5402 19.3007 17.5381 19.2911 17.5342 19.2822C17.5304 19.2733 17.5248 19.2652 17.5177 19.2585C17.466 19.2068 17.4155 19.1531 17.3622 19.103C17.3454 19.0841 17.3228 19.0714 17.298 19.0667C17.2732 19.0621 17.2475 19.0659 17.2251 19.0775C17.1948 19.0978 17.1709 19.1262 17.1561 19.1595C17.1265 19.2171 17.1134 19.2818 17.118 19.3464C17.1227 19.411 17.1451 19.4731 17.1827 19.5258C17.1928 19.5418 17.2083 19.5537 17.2264 19.5593C17.2403 19.5632 17.2551 19.5628 17.2689 19.5582C17.2826 19.5536 17.2947 19.545 17.3035 19.5335C17.3124 19.522 17.3176 19.5081 17.3185 19.4937C17.3194 19.4792 17.316 19.4648 17.3086 19.4523L17.3085 19.4525Z" fill="#493833"/>
<path d="M18.906 21.0521C18.8213 21.1648 18.6644 21.2435 18.5333 21.3034C18.3633 21.3782 18.188 21.4401 18.0088 21.4886C17.8429 21.5359 17.6745 21.5789 17.5048 21.6102C17.2781 21.6519 17.0349 21.6678 16.8154 21.5849C16.6507 21.5228 16.4333 21.3457 16.5348 21.1476C16.5751 21.0688 16.649 21.0109 16.7164 20.9563C16.7923 20.8988 16.8625 20.834 16.9259 20.7629C17.0643 20.6069 17.1778 20.4304 17.2622 20.2397C17.3013 20.1332 17.3342 20.0245 17.3607 19.9142C17.3862 19.8253 17.4167 19.7304 17.4804 19.6607C17.5693 19.5638 17.7016 19.564 17.8073 19.4957C17.9088 19.4301 17.9509 19.3204 18.0176 19.2253C18.1706 19.0074 18.447 19.1894 18.615 19.2844C18.6967 19.3307 18.7702 19.2048 18.6885 19.1586C18.4925 19.0475 18.257 18.9019 18.0293 19.0215C17.9268 19.0753 17.8763 19.1783 17.8181 19.2723C17.7949 19.3151 17.7613 19.3514 17.7203 19.3778C17.6611 19.4047 17.6001 19.4279 17.5379 19.447C17.3146 19.5393 17.2465 19.7696 17.191 19.984C17.1332 20.2058 17.0275 20.4123 16.8814 20.5888C16.8191 20.6683 16.7487 20.7411 16.6714 20.8061C16.588 20.8669 16.5122 20.9376 16.4457 21.0166C16.4125 21.0593 16.3886 21.1085 16.3758 21.1611C16.363 21.2136 16.3615 21.2683 16.3715 21.3215C16.3995 21.4373 16.4679 21.5394 16.5642 21.6096C16.9425 21.9055 17.4821 21.7777 17.905 21.6678C18.1217 21.6137 18.3342 21.5436 18.5407 21.4583C18.7214 21.3814 18.9112 21.286 19.0318 21.1257C19.0414 21.109 19.0441 21.0892 19.0392 21.0705C19.0343 21.0519 19.0223 21.0359 19.0057 21.026C18.9889 21.0167 18.9692 21.0143 18.9506 21.0192C18.932 21.024 18.9161 21.0359 18.906 21.0522V21.0521Z" fill="#493833"/>
<path d="M19.7608 23.9007C19.7378 24.0115 19.7488 24.1266 19.7923 24.231C19.8495 24.3724 19.8886 24.5205 19.9088 24.6717C19.9546 25.0542 19.9419 25.4578 19.7609 25.8061C19.7147 25.895 19.6853 26.0042 19.7827 26.0707C19.862 26.1248 19.9772 26.1184 20.0686 26.1186C20.1624 26.1186 20.1625 25.9729 20.0686 25.9729C20.0279 25.9729 19.9871 25.9729 19.9464 25.9692C19.9259 25.9676 19.8786 25.9662 19.8639 25.9505C19.8533 25.9392 19.8701 25.9115 19.8796 25.8929C19.901 25.8516 19.9217 25.8102 19.9399 25.7673C20.01 25.5978 20.0532 25.4182 20.0678 25.2353C20.0828 25.0527 20.079 24.869 20.0564 24.6871C20.0409 24.5346 20.0058 24.3846 19.952 24.241C19.9099 24.1323 19.8783 24.0504 19.9015 23.9394C19.9205 23.8479 19.7802 23.8088 19.761 23.9007L19.7608 23.9007Z" fill="white"/>
<path d="M25.2278 24.1457C25.2621 24.2902 25.3466 24.4247 25.4258 24.5484C25.5089 24.6785 25.6047 24.8 25.688 24.9297C25.8865 25.2386 25.9958 25.6068 25.9581 25.9751C25.9483 26.0711 25.8998 26.1833 25.9836 26.2602C26.0339 26.3063 26.0999 26.3025 26.1633 26.3049C26.257 26.3086 26.2569 26.1629 26.1633 26.1592C26.142 26.1584 26.0847 26.1643 26.0779 26.1474C26.0711 26.1304 26.0922 26.065 26.0958 26.0397C26.1022 25.9932 26.1071 25.9466 26.1095 25.8997C26.1172 25.7217 26.0962 25.5436 26.0472 25.3723C25.9981 25.1996 25.925 25.0346 25.8301 24.8822C25.7539 24.7595 25.6638 24.6458 25.5841 24.5252C25.4996 24.3973 25.404 24.2582 25.3681 24.1069C25.3465 24.0159 25.2059 24.0543 25.2276 24.1457H25.2278Z" fill="white"/>
<path d="M20.3954 25.983C20.6233 25.9826 20.851 25.9684 21.079 25.9716C21.1727 25.973 21.1728 25.8273 21.079 25.8259C20.851 25.8226 20.6233 25.8369 20.3954 25.8373C20.3016 25.8373 20.3015 25.983 20.3954 25.983Z" fill="#493833"/>
<path d="M26.5716 25.9944C26.775 25.9652 26.9803 25.9514 27.1858 25.9532C27.2796 25.9539 27.2797 25.8082 27.1858 25.8075C26.9673 25.8065 26.749 25.8219 26.5329 25.8539C26.5143 25.8591 26.4985 25.8714 26.489 25.8882C26.4794 25.905 26.4769 25.9248 26.4819 25.9435C26.4874 25.9619 26.4998 25.9774 26.5165 25.9869C26.5332 25.9964 26.5529 25.9991 26.5715 25.9945L26.5716 25.9944Z" fill="#493833"/>
<path d="M17.9179 20.0392C17.8833 20.0973 17.8607 20.2448 17.9762 20.286C18.1332 20.3232 18.184 20.1506 18.1512 20.0557C18.1246 19.978 18.0043 19.9191 17.9179 20.0392Z" fill="white"/>
<path d="M26.7343 20.1776C26.9501 20.2791 27.1314 20.4419 27.2555 20.6455C27.4017 20.8869 27.4293 21.1694 27.4995 21.4376C27.5439 21.6068 27.5925 21.7749 27.6279 21.9463C27.6468 22.0381 27.7873 21.9992 27.7683 21.9076C27.7359 21.7504 27.6924 21.5961 27.6512 21.4411C27.6103 21.2876 27.5808 21.1321 27.5436 20.9778C27.4839 20.7183 27.3508 20.4815 27.1602 20.2955C27.0566 20.1959 26.9376 20.1136 26.8078 20.0518C26.7235 20.0119 26.6495 20.1375 26.7343 20.1776Z" fill="white"/>
<path d="M16.7232 21.2432H16.8452C16.8645 21.243 16.883 21.2354 16.8967 21.2219C16.9035 21.2151 16.9089 21.2071 16.9125 21.1982C16.9162 21.1894 16.9181 21.1799 16.9181 21.1704C16.9181 21.1608 16.9162 21.1513 16.9125 21.1425C16.9089 21.1336 16.9035 21.1256 16.8967 21.1188C16.8829 21.1054 16.8645 21.0978 16.8452 21.0975H16.7232C16.7039 21.0978 16.6855 21.1054 16.6717 21.1188C16.6649 21.1256 16.6595 21.1336 16.6559 21.1425C16.6522 21.1513 16.6503 21.1608 16.6503 21.1704C16.6503 21.1799 16.6522 21.1894 16.6559 21.1982C16.6595 21.2071 16.6649 21.2151 16.6717 21.2219C16.6855 21.2353 16.704 21.2429 16.7232 21.2432Z" fill="#2D2B28"/>
<path d="M18.9233 19.4277L18.9266 19.4262L18.9092 19.4335C18.9259 19.4271 18.9434 19.4229 18.9612 19.4209L18.9418 19.4235C18.9617 19.4205 18.982 19.4201 19.0019 19.4224L18.9826 19.4197C18.9869 19.4204 18.9911 19.4212 18.9954 19.4223C19.0143 19.4272 19.0344 19.4246 19.0515 19.415C19.0639 19.4078 19.0738 19.3971 19.0801 19.3842C19.0864 19.3713 19.0888 19.3569 19.087 19.3427C19.0851 19.3285 19.0791 19.3151 19.0697 19.3043C19.0603 19.2935 19.0479 19.2857 19.0341 19.2819C19.0039 19.2747 18.9726 19.2734 18.9418 19.2779C18.91 19.2807 18.8789 19.2888 18.8498 19.3019C18.8334 19.3116 18.8214 19.3272 18.8163 19.3454C18.8112 19.3644 18.8139 19.3845 18.8236 19.4016C18.8332 19.4179 18.8488 19.4299 18.8671 19.435L18.8865 19.4377C18.8994 19.4377 18.9121 19.4343 18.9232 19.4277H18.9233Z" fill="white"/>
<path d="M27.6845 22.0247C27.7434 21.9958 27.8088 21.9831 27.8742 21.9879C27.9396 21.9926 28.0025 22.0146 28.0566 22.0516C28.1742 22.1263 28.2433 22.2586 28.2745 22.3908C28.3336 22.6412 28.2609 22.9473 28.0378 23.0958C27.9601 23.1474 28.0329 23.2737 28.1113 23.2216C28.3302 23.0759 28.4412 22.8159 28.4399 22.5576C28.4386 22.2864 28.3117 21.9951 28.0498 21.8845C27.9804 21.8537 27.9048 21.839 27.8289 21.8415C27.7529 21.8439 27.6785 21.8636 27.6112 21.8988C27.5288 21.9437 27.6023 22.0696 27.6847 22.0247H27.6845Z" fill="white"/>
<path d="M27.5866 22.1017C27.553 22.1359 27.5272 22.1768 27.5107 22.2218C27.4943 22.2668 27.4877 22.3148 27.4913 22.3625C27.495 22.4103 27.5087 22.4567 27.5318 22.4987C27.5548 22.5406 27.5866 22.5772 27.6249 22.6059C27.6983 22.662 27.7997 22.697 27.8387 22.7873C27.8776 22.8941 27.8724 23.0119 27.8245 23.1148C27.8153 23.1316 27.8129 23.1513 27.8178 23.1699C27.8226 23.1884 27.8344 23.2043 27.8506 23.2145C27.8673 23.2241 27.8872 23.2268 27.9058 23.2219C27.9245 23.217 27.9405 23.205 27.9503 23.1884C28.041 22.9844 28.0389 22.7194 27.8447 22.5774C27.7785 22.529 27.6839 22.4953 27.6492 22.4151C27.6343 22.3799 27.6303 22.3412 27.6374 22.3038C27.6446 22.2663 27.6628 22.2319 27.6896 22.2047C27.7563 22.1387 27.6531 22.0356 27.5865 22.1017H27.5866Z" fill="white"/>
</g>
</g>
<defs>
<clipPath id="clip0_923_22859">
<rect width="30" height="30" fill="white" transform="translate(0 0.333252)"/>
</clipPath>
<clipPath id="clip1_923_22859">
<rect width="14.7" height="15.68" fill="white" transform="translate(0 15)"/>
</clipPath>
<clipPath id="clip2_923_22859">
<rect width="15" height="15" fill="white"/>
</clipPath>
<clipPath id="clip3_923_22859">
<rect width="14.7" height="14.7" fill="white" transform="translate(15 15.3333)"/>
</clipPath>
</defs>
</svg>
