<svg  viewBox="0 0 30 31" fill="none" xmlns="http://www.w3.org/2000/svg">
<g clip-path="url(#clip0_1032_29411)">
<path d="M-2.58787e-05 22.8334C-2.58787e-05 23.3534 0.179974 23.8034 0.539974 24.1834C0.899974 24.5634 1.34997 24.7434 1.88997 24.7234H3.74997C3.74997 26.2834 4.29997 27.6034 5.39997 28.6834C6.49997 29.7634 7.82997 30.3134 9.38997 30.3334H15.66C14.32 29.3934 13.24 28.1434 12.42 26.5834H9.38997C8.86997 26.5834 8.41997 26.4034 8.03997 26.0434C7.65997 25.6834 7.47997 25.2434 7.49997 24.7234V5.97337C7.49997 5.45337 7.67997 5.01337 8.03997 4.65337C8.39997 4.29337 8.84997 4.10337 9.38997 4.08337H24.39C24.89 4.08337 25.33 4.27337 25.71 4.65337C26.09 5.03337 26.27 5.47337 26.25 5.97337V12.7534C27.81 13.5734 29.06 14.6534 30 15.9934V5.97337C30 4.41337 29.45 3.08337 28.35 1.98337C27.25 0.883374 25.93 0.333374 24.39 0.333374H9.38997C7.82997 0.333374 6.49997 0.883374 5.39997 1.98337C4.29997 3.08337 3.74997 4.41337 3.74997 5.97337H1.88997C1.36997 5.97337 0.919974 6.15337 0.539974 6.51337C0.159974 6.87337 -0.0200259 7.31337 -2.58787e-05 7.83337C0.0199741 8.35337 0.199974 8.80337 0.539974 9.18337C0.879974 9.56337 1.32997 9.74337 1.88997 9.72337H3.74997V13.4734H1.88997C1.36997 13.4734 0.919974 13.6534 0.539974 14.0134C0.159974 14.3734 -0.0200259 14.8134 -2.58787e-05 15.3334C0.0199741 15.8534 0.199974 16.3034 0.539974 16.6834C0.879974 17.0634 1.32997 17.2434 1.88997 17.2234H3.74997V20.9734H1.88997C1.36997 20.9734 0.919974 21.1534 0.539974 21.5134C0.159974 21.8734 -0.0200259 22.3134 -2.58787e-05 22.8334ZM9.38997 22.8334H11.34C11.34 22.7934 11.33 22.6634 11.31 22.4434C11.29 22.2234 11.27 22.0434 11.25 21.9034C11.23 21.7634 11.25 21.5934 11.31 21.3934C11.37 21.1934 11.38 21.0534 11.34 20.9734H9.38997V22.8334ZM9.38997 19.0834H11.7C11.88 18.4034 12.12 17.7834 12.42 17.2234H9.38997V19.0834ZM9.38997 15.3334H13.68C14.3 14.5734 14.96 13.9534 15.66 13.4734H9.38997V15.3334ZM9.38997 11.5834H24.39V9.72337H9.38997V11.5834ZM9.38997 7.83337H24.39V5.97337H9.38997V7.83337ZM13.14 21.9034C13.14 23.0434 13.36 24.1334 13.8 25.1734C14.24 26.2134 14.84 27.1134 15.6 27.8734C16.36 28.6334 17.26 29.2334 18.3 29.6734C19.34 30.1134 20.43 30.3334 21.57 30.3334C22.71 30.3334 23.8 30.1134 24.84 29.6734C25.88 29.2334 26.78 28.6334 27.54 27.8734C28.3 27.1134 28.9 26.2134 29.34 25.1734C29.78 24.1334 30 23.0434 30 21.9034C30 20.7634 29.78 19.6734 29.34 18.6334C28.9 17.5934 28.3 16.6934 27.54 15.9334C26.78 15.1734 25.88 14.5734 24.84 14.1334C23.8 13.6934 22.71 13.4734 21.57 13.4734C20.43 13.4734 19.34 13.6934 18.3 14.1334C17.26 14.5734 16.36 15.1734 15.6 15.9334C14.84 16.6934 14.24 17.5934 13.8 18.6334C13.36 19.6734 13.14 20.7634 13.14 21.9034ZM16.89 21.9034C16.89 20.6034 17.34 19.5034 18.24 18.6034C19.14 17.7034 20.25 17.2434 21.57 17.2234C22.89 17.2034 23.99 17.6634 24.87 18.6034C25.75 19.5434 26.21 20.6434 26.25 21.9034C26.25 23.2034 25.79 24.3034 24.87 25.2034C23.95 26.1034 22.85 26.5634 21.57 26.5834C20.29 26.6034 19.18 26.1434 18.24 25.2034C17.3 24.2634 16.85 23.1634 16.89 21.9034ZM20.64 21.9034C20.64 22.1634 20.73 22.3834 20.91 22.5634C21.09 22.7434 21.31 22.8334 21.57 22.8334H23.43C23.69 22.8334 23.91 22.7434 24.09 22.5634C24.27 22.3834 24.37 22.1634 24.39 21.9034C24.41 21.6434 24.31 21.4234 24.09 21.2434C23.87 21.0634 23.65 20.9734 23.43 20.9734H22.5V20.0434C22.5 19.7834 22.41 19.5634 22.23 19.3834C22.05 19.2034 21.83 19.1034 21.57 19.0834C21.31 19.0634 21.09 19.1634 20.91 19.3834C20.73 19.6034 20.64 19.8234 20.64 20.0434V21.9034Z" fill="currentColor"/>
</g>
<defs>
<clipPath id="clip0_1032_29411">
<rect width="30" height="30" fill="white" transform="translate(0 0.333374)"/>
</clipPath>
</defs>
</svg>
