<svg  viewBox="0 0 30 31" fill="none" xmlns="http://www.w3.org/2000/svg">
<g clip-path="url(#clip0_16_2569)">
<path d="M15 30.3333C23.2843 30.3333 30 23.6175 30 15.3333C30 7.04898 23.2843 0.333252 15 0.333252C6.71573 0.333252 0 7.04898 0 15.3333C0 23.6175 6.71573 30.3333 15 30.3333Z" fill="#AF842D"/>
<path d="M18.3334 3.79285H11.6667V5.45951H18.3334V3.79285Z" fill="#99ABD5"/>
<path d="M18.3333 3.79285H14.9664V5.45951H18.3333V3.79285Z" fill="#8A9CC1"/>
<path d="M10 25.3332H20V6.9999L18.3333 6.64636H11.6667L10 6.9999V25.3332Z" fill="#B8C9F1"/>
<path d="M20 6.9999L18.3333 6.64636H14.9664V25.3332H20V6.9999Z" fill="#99ABD5"/>
<path d="M13.1987 21.9999H16.8014C17.6475 21.9999 18.3335 21.314 18.3335 20.4679V16.8652C18.3335 16.0191 17.6476 15.3331 16.8014 15.3331H13.1987C12.3526 15.3331 11.6667 16.019 11.6667 16.8652V20.4679C11.6667 21.314 12.3525 21.9999 13.1987 21.9999Z" fill="#3498DB"/>
<path d="M16.8014 15.3333H14.9664V21.9999H16.8014C17.6475 21.9999 18.3334 21.3141 18.3334 20.4679V16.8652C18.3333 16.0191 17.6475 15.3333 16.8014 15.3333Z" fill="#2980B9"/>
<path d="M10 6.99992H20L18.3333 5.33325H11.6667L10 6.99992Z" fill="#ECF0F1"/>
<path d="M18.3333 5.33325H14.9664V6.99992H20L18.3333 5.33325Z" fill="#D0D6D8"/>
</g>
<defs>
<clipPath id="clip0_16_2569">
<rect width="30" height="30" fill="white" transform="translate(0 0.333252)"/>
</clipPath>
</defs>
</svg>
