<svg viewBox="0 0 30 31" fill="none" xmlns="http://www.w3.org/2000/svg">
<g clip-path="url(#clip0_16_2563)">
<path d="M15.0002 0.666748C6.71585 0.666748 0 7.38193 0 15.6669C0 23.9506 6.71579 30.6663 15.0002 30.6663C23.2842 30.6663 30 23.9506 30 15.6669C30 7.38187 23.2842 0.666748 15.0002 0.666748Z" fill="#AF842D"/>
<path d="M21.8981 16.9097C21.9055 16.5165 22.0138 15.6213 22.0132 15.0103C22.0145 14.8946 22.0087 14.7788 21.9957 14.6638C21.9945 14.6538 21.9932 14.6439 21.992 14.6346C21.9881 14.5011 21.975 14.3681 21.9528 14.2364C21.848 13.6717 21.6212 13.1366 21.2884 12.6686C21.1009 12.3872 20.8694 12.1379 20.6028 11.9301C20.2605 11.6869 19.8886 11.4885 19.496 11.3397C19.4936 11.3386 19.4911 11.3377 19.4885 11.3372C18.4165 10.9284 17.2506 10.8892 16.0449 10.9259C15.7662 10.9347 15.485 10.9471 15.2025 10.9602C15.0352 10.9689 14.8603 10.9782 14.6818 10.9894C13.1115 11.0871 11.1586 11.2843 9.50554 11.1493C9.18247 11.1246 8.86098 11.0824 8.54246 11.0229C8.68264 10.9509 8.81451 10.8636 8.93572 10.7629C8.99114 10.7259 9.03101 10.6698 9.0477 10.6053C9.04977 10.5676 9.04075 10.53 9.02176 10.4974C9.00277 10.4647 8.97463 10.4383 8.94082 10.4214C8.87253 10.3889 8.79819 10.371 8.72257 10.3689C8.53639 10.3474 8.3483 10.348 8.16227 10.3708C7.97656 10.3983 7.83838 10.414 7.69329 10.5321C7.69329 10.5321 7.65659 10.5558 7.65683 10.5561C7.59698 10.5225 7.52531 10.4794 7.42981 10.4239C7.16851 10.2733 6.81513 10.1812 6.58059 10.3716C6.40638 10.5122 6.35475 10.7685 6.17308 10.9017C6.15168 10.9173 6.12899 10.931 6.10527 10.9427C5.98333 11.0056 5.83712 11.0255 5.71767 11.0964C5.39478 11.2874 5.34438 11.68 5.23053 12.0838C5.06628 12.5597 4.85475 12.8235 4.59096 13.1358C4.3533 13.417 3.93211 13.5856 3.87798 13.9502C3.83754 14.2289 4.05156 14.4877 4.29855 14.6252C4.79503 14.9027 5.40908 14.833 5.96404 14.7073C6.35356 14.6192 7.02691 14.4484 7.55051 14.2034L7.58641 14.2737C7.73311 14.5606 8.03298 14.802 8.36365 15.1302C8.58025 15.3437 8.7317 15.6143 8.80034 15.9105C9.01081 16.8355 9.44115 18.0769 10.5289 18.5255C10.5844 18.6598 10.6158 18.8029 10.6218 18.9482C10.5945 19.6196 10.9573 20.5737 10.94 21.021C10.885 21.3418 10.7866 21.6537 10.6476 21.948C10.5186 22.1222 10.3639 22.5079 10.3508 22.6705C10.3422 22.7789 10.4356 22.8447 10.5444 22.8447C10.8108 22.8447 11.3532 22.8603 11.4432 22.8533C11.5178 22.8474 11.6883 22.8726 11.7657 22.7504C11.8051 22.6882 11.7916 22.1867 11.8023 21.9609C11.8474 21.8061 11.9765 21.6114 12.0668 21.2965C12.1356 21.0557 12.0287 20.6523 11.9862 20.1631C11.961 19.8731 12.1205 19.4297 12.3279 18.9389L12.3758 18.9522C12.6759 19.0379 13.734 19.1936 14.5329 19.1804C16.0301 19.1556 17.7805 18.7802 19.0921 18.3315L19.1278 18.314C19.361 18.5445 19.629 18.7366 19.9221 18.8834C20.3372 19.1129 20.589 19.5678 20.6849 20.0322C20.7809 20.4965 20.8681 20.8534 20.9172 21.2621C20.9503 21.5379 21.0243 21.8389 21.0011 22.1157C20.9731 22.2598 20.8512 22.6296 20.8041 22.7969C20.7999 22.8116 20.7991 22.8271 20.8017 22.8422C20.8042 22.8572 20.8101 22.8716 20.8189 22.8841C20.8276 22.8967 20.8391 22.9071 20.8524 22.9147C20.8657 22.9223 20.8805 22.9269 20.8957 22.9281C21.1922 22.9524 21.7788 22.9495 22.0861 22.9357C22.1233 22.934 22.1587 22.9189 22.1858 22.8932C22.2128 22.8675 22.2297 22.833 22.2335 22.7959C22.2598 22.5263 22.2654 22.255 22.2503 21.9846C22.1643 21.6405 22.0178 21.0203 21.9401 20.6502C21.5988 19.0244 21.7439 18.5642 21.8977 16.91" fill="white"/>
<path d="M9.83782 14.0182C9.62075 14.4918 9.30507 14.4923 8.87797 14.1934C8.45087 13.8945 8.59987 13.3761 8.08586 13.2921C7.64563 13.2202 7.21106 13.4103 6.78899 13.5547C6.36693 13.6991 5.87475 13.7957 5.49649 13.5596C5.39455 13.5035 5.31719 13.4114 5.27948 13.3013C5.19132 12.984 5.57774 12.7636 5.76973 12.4953C5.96981 12.2153 5.95731 11.8431 6.0092 11.5029C6.02736 11.3822 6.05797 11.1696 6.10488 10.943C6.12883 10.9312 6.15173 10.9174 6.17332 10.9017C6.35436 10.7685 6.40656 10.5122 6.58076 10.3714C6.81525 10.1814 7.16856 10.2732 7.42993 10.424C7.52499 10.4791 7.59623 10.5222 7.65626 10.556L7.69316 10.5322C7.83824 10.414 7.97642 10.3984 8.16213 10.3709C8.34817 10.3481 8.53625 10.3474 8.72244 10.369C8.79805 10.3711 8.8724 10.389 8.94068 10.4215C8.97449 10.4384 9.00262 10.4648 9.02161 10.4974C9.0406 10.5301 9.04962 10.5676 9.04757 10.6053C9.03086 10.6698 8.99099 10.7259 8.93558 10.7629C8.81434 10.8636 8.68245 10.9509 8.54226 11.023C8.84711 11.0812 9.62479 11.2345 11.3942 11.1795C11.4637 12.5828 10.0251 12.3481 9.82836 13.1659C9.758 13.4594 9.91422 13.8515 9.83782 14.0182Z" fill="#2D2B28"/>
<path d="M21.9525 14.2365C21.8088 14.4859 21.5935 14.6048 21.3247 14.573C21.0043 14.5357 20.7337 14.3254 20.4848 14.1201C20.236 13.9148 19.9753 13.6964 19.658 13.6379C19.3737 13.5857 19.0844 13.6684 18.8007 13.7213C18.517 13.7742 17.5079 13.7045 17.2534 13.5676C16.9927 13.4277 16.8148 13.2161 16.91 12.846C17.1551 11.8941 16.3855 11.7087 15.9923 11.2302C15.9742 11.2074 15.9611 11.181 15.9539 11.1528C15.9467 11.1246 15.9455 11.0952 15.9504 11.0664C15.9554 11.0377 15.9663 11.0104 15.9825 10.9862C15.9987 10.962 16.0199 10.9415 16.0446 10.926C17.2503 10.8893 18.4162 10.9285 19.4882 11.3373C19.4907 11.3378 19.4932 11.3386 19.4956 11.3397C19.8882 11.4885 20.2602 11.6869 20.6024 11.9302C20.8691 12.138 21.1006 12.3873 21.288 12.6686C21.6209 13.1367 21.8476 13.6717 21.9525 14.2365Z" fill="#2D2B28"/>
<path d="M12.7196 14.9891C13.46 15.1509 14.1312 15.1509 14.5708 14.9891C14.7359 14.9319 14.8771 14.8213 14.9722 14.6748C15.0673 14.5283 15.1108 14.3543 15.0958 14.1803C15.0568 13.7393 15.0416 13.4791 14.8719 13.2071C14.6852 12.9088 14.4185 12.7211 14.1083 12.7212C13.4381 12.7212 13.4961 13.3646 13.0438 13.5079C12.1687 13.7852 12.006 14.2123 12.0257 14.3872C12.0649 14.7086 12.4912 14.9392 12.7196 14.9891Z" fill="#2D2B28"/>
<path d="M10.0326 17.2476C10.0373 17.7458 10.2948 18.1922 10.4415 18.656C10.4705 18.7372 10.4892 18.8217 10.4972 18.9075C10.5016 19.0176 10.4962 19.1267 10.5059 19.2369C10.5328 19.497 10.5764 19.7552 10.6366 20.0097C10.6892 20.2486 10.7495 20.4864 10.7903 20.7277C10.8071 20.813 10.8157 20.8996 10.8161 20.9864C10.8029 21.1285 10.7717 21.2683 10.7232 21.4025C10.6874 21.5249 10.645 21.6454 10.5961 21.7633C10.5563 21.8474 10.5119 21.9292 10.463 22.0084C10.3453 22.2039 10.266 22.4202 10.2294 22.6454C10.2213 22.7084 10.2349 22.7723 10.2679 22.8265C10.3009 22.8808 10.3513 22.9222 10.4109 22.9441C10.507 22.9818 10.6182 22.9696 10.7198 22.9709C10.9314 22.9737 11.1434 22.9803 11.3553 22.98C11.5276 22.98 11.7344 22.9928 11.8518 22.8427C11.894 22.777 11.915 22.6999 11.9118 22.6219C11.9189 22.5205 11.9195 22.4185 11.9206 22.3171C11.9217 22.2135 11.9206 22.1096 11.925 22.006C11.928 21.9349 11.9857 21.838 12.0207 21.7619C12.1248 21.5357 12.2219 21.306 12.2128 21.0527C12.2028 20.7748 12.1434 20.4997 12.1162 20.2232C12.1013 20.0647 12.1174 19.9048 12.1636 19.7524C12.2771 19.3264 12.4684 18.9215 12.6447 18.5189C12.8327 18.0897 13.0292 17.6583 13.1566 17.2062C13.1835 17.112 13.2057 17.0165 13.223 16.92C13.2309 16.8882 13.2262 16.8546 13.21 16.8261C13.1938 16.7976 13.1673 16.7764 13.1359 16.7669C13.1041 16.7584 13.0702 16.7628 13.0416 16.7791C13.0129 16.7954 12.9919 16.8223 12.9829 16.854C12.9093 17.2708 12.7414 17.6701 12.5757 18.0573C12.3936 18.4826 12.1953 18.9022 12.0361 19.3369C11.9701 19.5072 11.9192 19.6829 11.8838 19.8621C11.8558 20.0626 11.8598 20.2663 11.8955 20.4656C11.9266 20.701 11.9876 20.9543 11.9608 21.1928C11.9359 21.4142 11.8053 21.6221 11.7207 21.8246C11.6443 22.0068 11.6737 22.2231 11.6701 22.4175C11.6687 22.4972 11.6675 22.6096 11.6587 22.6715C11.6605 22.6591 11.6535 22.6939 11.6532 22.6979C11.6521 22.7166 11.6636 22.6899 11.6532 22.694C11.6213 22.7106 11.5869 22.7217 11.5513 22.7268C11.402 22.7373 11.2498 22.7309 11.1002 22.7284C10.9866 22.7266 10.8729 22.7244 10.7593 22.7228C10.7121 22.7221 10.6649 22.7215 10.6178 22.7212C10.5824 22.7212 10.5187 22.7326 10.4896 22.7077C10.4833 22.7013 10.4788 22.6933 10.4766 22.6845C10.4744 22.6758 10.4746 22.6666 10.4771 22.6579C10.4859 22.6094 10.4984 22.5615 10.5145 22.5149C10.5481 22.4093 10.5899 22.3066 10.6393 22.2074C10.6822 22.1212 10.7409 22.0436 10.781 21.9565C10.8288 21.853 10.8708 21.7467 10.9082 21.6392C10.99 21.4044 11.0816 21.139 11.0603 20.8877C11.0365 20.6728 10.9982 20.4599 10.9455 20.2502C10.8902 20.0051 10.8322 19.7602 10.7907 19.5121C10.7707 19.3956 10.7567 19.2781 10.749 19.1601C10.7431 19.0618 10.7528 18.9623 10.7425 18.8645C10.7206 18.6572 10.6388 18.4601 10.5642 18.2672C10.4695 18.0417 10.3899 17.8101 10.3258 17.5741C10.2985 17.4674 10.2837 17.358 10.2815 17.248C10.2799 17.088 10.031 17.0876 10.0326 17.248V17.2476Z" fill="#493833"/>
<path d="M18.4188 16.7294C18.4528 17.1102 18.5115 17.4911 18.6654 17.8437C18.8032 18.1487 19.0143 18.4147 19.2799 18.6182C19.462 18.7589 19.6558 18.8836 19.8593 18.9909C20.0003 19.067 20.1261 18.8522 19.9849 18.776C19.6796 18.6113 19.3823 18.4214 19.1531 18.1574C18.9615 17.9261 18.8282 17.6522 18.7644 17.3587C18.7165 17.1516 18.6842 16.9413 18.6677 16.7294C18.6668 16.6967 18.6534 16.6655 18.6303 16.6424C18.6071 16.6192 18.576 16.6058 18.5433 16.605C18.5103 16.6052 18.4788 16.6184 18.4555 16.6417C18.4322 16.665 18.4191 16.6965 18.4188 16.7294Z" fill="#493833"/>
<path d="M21.7731 16.91C21.7036 17.6537 21.5847 18.4024 21.6101 19.1512C21.6367 19.9312 21.8158 20.6979 21.9941 21.4546C22.0356 21.6312 22.0791 21.8072 22.1217 21.9834C22.1543 22.1184 22.136 22.305 22.1308 22.4529C22.1278 22.538 22.1234 22.6232 22.1168 22.708C22.1105 22.7848 22.1171 22.81 22.0351 22.8131C21.8563 22.8198 21.6773 22.8219 21.4984 22.8215C21.3195 22.8212 21.1405 22.8192 20.9621 22.8081C20.9454 22.8048 20.9284 22.8036 20.9114 22.8047C20.9164 22.8006 20.9258 22.8295 20.9239 22.8295C20.9349 22.7993 20.9441 22.7683 20.9511 22.7369C20.9748 22.6581 20.9993 22.5796 21.0232 22.501C21.073 22.3375 21.1297 22.176 21.1297 22.0033C21.1297 21.7629 21.0763 21.5265 21.0448 21.2892C21.0121 21.0431 20.9726 20.7996 20.9225 20.5564C20.8717 20.3104 20.8308 20.0575 20.7589 19.8168C20.6321 19.3927 20.3764 18.997 19.9847 18.7755C19.8451 18.6966 19.7196 18.9115 19.8591 18.9904C20.2059 19.1865 20.423 19.5405 20.5287 19.9168C20.5909 20.1392 20.6301 20.3702 20.677 20.5963C20.722 20.8123 20.7636 21.0292 20.7909 21.2482C20.8216 21.4946 20.8783 21.7402 20.8807 21.9892C20.8822 22.1568 20.8191 22.3174 20.7706 22.4762C20.7236 22.6295 20.6069 22.8503 20.7437 22.9863C20.8144 23.0564 20.9146 23.0548 21.0075 23.0594C21.0979 23.064 21.1884 23.0665 21.2788 23.0681C21.4725 23.0715 21.6662 23.0711 21.8599 23.0668C22.0381 23.063 22.2575 23.0829 22.3374 22.8834C22.3624 22.797 22.374 22.7073 22.3718 22.6174C22.3775 22.5212 22.3812 22.4249 22.3828 22.3286C22.3911 22.166 22.3779 22.0031 22.3435 21.8439C22.1515 21.0628 21.9469 20.2704 21.878 19.467C21.8153 18.7362 21.9121 18.01 21.9855 17.2838C21.9979 17.1591 22.0101 17.0344 22.0219 16.9096C22.0216 16.8767 22.0084 16.8452 21.9852 16.8219C21.9619 16.7986 21.9304 16.7854 21.8974 16.7852C21.8647 16.7858 21.8334 16.7992 21.8102 16.8224C21.787 16.8455 21.7737 16.8768 21.773 16.9096L21.7731 16.91Z" fill="#493833"/>
<path d="M12.3426 19.0723C12.6616 19.1514 12.9863 19.2053 13.3138 19.2334C13.7565 19.2883 14.2027 19.3114 14.6487 19.3024C15.6428 19.2645 16.6304 19.1259 17.5965 18.8886C18.1125 18.767 18.6231 18.6227 19.125 18.4516C19.2757 18.4002 19.211 18.1597 19.0589 18.2116C18.1576 18.5173 17.2319 18.7455 16.2918 18.8935C15.3716 19.0507 14.4348 19.0883 13.505 19.0052C13.1408 18.9687 12.7624 18.9317 12.4087 18.8323C12.2543 18.7887 12.1884 19.0289 12.3426 19.0723Z" fill="#493833"/>
<path d="M7.47879 14.3368C7.66823 14.6977 8.01427 14.9499 8.2933 15.2365C8.42541 15.3713 8.53094 15.5298 8.60438 15.7037C8.65969 15.8584 8.70387 16.0169 8.73658 16.1779C8.89641 16.7986 9.13357 17.4147 9.53741 17.9193C9.77285 18.2185 10.0764 18.457 10.4228 18.6151C10.4515 18.6307 10.4851 18.6348 10.5168 18.6265C10.5484 18.6182 10.5757 18.5981 10.5931 18.5704C10.6095 18.5418 10.614 18.508 10.6056 18.4761C10.5973 18.4443 10.5767 18.417 10.5484 18.4002C9.94653 18.1327 9.54674 17.6033 9.28289 17.0154C9.1603 16.7351 9.06106 16.4452 8.98619 16.1486C8.94768 16.0022 8.92117 15.8511 8.87103 15.7081C8.80522 15.5218 8.70875 15.3478 8.58559 15.1933C8.31184 14.8474 7.90222 14.6084 7.69343 14.2112C7.61877 14.0694 7.40413 14.195 7.4786 14.3368H7.47879Z" fill="#493833"/>
<path d="M22.0224 16.9099C22.0325 16.4445 22.0934 15.9803 22.1205 15.5157C22.1533 14.9518 22.1446 14.3718 21.9859 13.8255C21.8205 13.2724 21.5448 12.7586 21.1753 12.3151C20.8168 11.88 20.3478 11.5778 19.8365 11.3477C18.7119 10.8413 17.4667 10.7691 16.2503 10.7962C15.0456 10.8233 13.8456 10.93 12.6434 11.0033C11.4432 11.0766 10.2233 11.1304 9.02718 10.9754C8.87613 10.9559 8.72576 10.9313 8.57607 10.9032C8.41954 10.8737 8.35247 11.1135 8.50993 11.1431C9.68809 11.3649 10.9042 11.3415 12.0965 11.2825C13.2685 11.2247 14.4374 11.1156 15.61 11.0666C16.8155 11.0163 18.0583 10.9926 19.2184 11.3734C19.491 11.4622 19.7554 11.5744 20.0086 11.7088C20.2508 11.8298 20.4774 11.9799 20.6832 12.1559C21.0835 12.5316 21.3982 12.9891 21.6062 13.4971C21.8301 14.0291 21.9007 14.6006 21.8861 15.1743C21.8737 15.6664 21.8195 16.1561 21.7862 16.6469C21.78 16.7345 21.7751 16.8221 21.7731 16.9099C21.7697 17.0701 22.0186 17.0701 22.022 16.9099H22.0224Z" fill="#493833"/>
<path d="M7.62149 10.7265C7.70314 10.6655 7.78903 10.6104 7.8785 10.5615C8.03665 10.4893 8.24295 10.4783 8.41354 10.4776C8.52085 10.4778 8.62808 10.4835 8.73482 10.4946C8.7831 10.4993 8.92146 10.5109 8.92432 10.5831C8.92694 10.6446 8.79025 10.7214 8.74794 10.7517C8.66244 10.8126 8.57273 10.8673 8.47949 10.9155C8.33739 10.9896 8.46313 11.2045 8.6051 11.1304C8.72158 11.0698 8.83259 10.9993 8.93689 10.9195C9.03338 10.8457 9.1422 10.7653 9.16752 10.6384C9.17656 10.5779 9.16766 10.516 9.1419 10.4605C9.11614 10.4051 9.07467 10.3583 9.02262 10.3262C8.91294 10.2511 8.76636 10.247 8.63838 10.2374C8.38723 10.2136 8.13385 10.2329 7.8892 10.2945C7.73447 10.3377 7.62559 10.4275 7.49588 10.5115C7.36193 10.5983 7.48648 10.8138 7.62149 10.7264V10.7265Z" fill="#493833"/>
<path d="M5.36197 10.9507C5.34937 10.9344 5.33789 10.9173 5.32763 10.8995C5.32328 10.8918 5.31917 10.8841 5.31519 10.8762C5.31258 10.8709 5.31009 10.8656 5.30772 10.8602C5.31386 10.8752 5.31523 10.8783 5.31183 10.8696C5.30561 10.8515 5.29939 10.8338 5.29441 10.8152C5.29223 10.8067 5.2903 10.798 5.28856 10.7894C5.28744 10.7836 5.28645 10.7778 5.28551 10.772C5.28775 10.7907 5.28813 10.7928 5.28651 10.7789C5.28514 10.7612 5.28377 10.7437 5.28377 10.7259C5.28377 10.7157 5.28421 10.7053 5.28489 10.6948C5.28489 10.6904 5.28545 10.686 5.28589 10.6816C5.28738 10.6676 5.28694 10.6699 5.28458 10.6884C5.28512 10.6707 5.28867 10.6531 5.29509 10.6366C5.29912 10.6164 5.30567 10.5967 5.31457 10.5782C5.29821 10.6066 5.31363 10.5818 5.31662 10.5759C5.32122 10.5667 5.3262 10.5578 5.33149 10.5489C5.33678 10.5401 5.34256 10.5316 5.34823 10.523C5.35486 10.5139 5.35511 10.5134 5.34897 10.5217C5.34283 10.53 5.34333 10.5299 5.35047 10.5213C5.3605 10.5121 5.35872 10.5134 5.34511 10.5252L5.33056 10.5319C5.32147 10.5348 5.31187 10.536 5.30234 10.5351C5.29282 10.5343 5.28356 10.5315 5.27512 10.527C5.28632 10.5344 5.28497 10.5332 5.27108 10.5235C5.27531 10.5235 5.2903 10.5421 5.29223 10.5441L5.31712 10.569L5.54308 10.7949C5.55449 10.807 5.56821 10.8166 5.58341 10.8233C5.59861 10.83 5.615 10.8336 5.63161 10.8338C5.64821 10.8341 5.6647 10.831 5.6801 10.8248C5.69549 10.8186 5.70949 10.8093 5.72126 10.7976C5.73303 10.7859 5.74234 10.7719 5.74863 10.7566C5.75492 10.7412 5.75807 10.7247 5.7579 10.7081C5.75773 10.6915 5.75423 10.6751 5.74762 10.6599C5.74101 10.6446 5.73141 10.6309 5.7194 10.6194C5.63099 10.531 5.54482 10.4394 5.45368 10.3538C5.42507 10.3215 5.38651 10.2997 5.3441 10.2918C5.3017 10.284 5.25787 10.2904 5.21957 10.3103C5.16787 10.3449 5.12703 10.3934 5.10179 10.4502C5.05125 10.5487 5.02874 10.6591 5.03673 10.7695C5.04472 10.8798 5.0829 10.9859 5.14709 11.076C5.1644 11.1033 5.19086 11.1236 5.22174 11.1332C5.24561 11.1398 5.27089 11.1391 5.29437 11.1313C5.31785 11.1234 5.33845 11.1087 5.35354 11.0891C5.36863 11.0695 5.37753 11.0458 5.37908 11.0211C5.38064 10.9964 5.37479 10.9718 5.36229 10.9504L5.36197 10.9507Z" fill="#493833"/>
<path d="M8.09068 13.6829C7.94603 13.8753 7.67801 14.0097 7.4541 14.1121C7.1638 14.2398 6.86433 14.3455 6.55821 14.4284C6.27489 14.5093 5.98727 14.5827 5.69741 14.6361C5.31025 14.7073 4.89484 14.7345 4.51988 14.5929C4.2386 14.4867 3.86731 14.1843 4.04051 13.8459C4.10938 13.7114 4.23562 13.6125 4.35078 13.5192C4.48042 13.4209 4.60024 13.3103 4.70857 13.1889C4.94504 12.9225 5.1388 12.621 5.28294 12.2952C5.34978 12.1133 5.40599 11.9277 5.45129 11.7392C5.49484 11.5874 5.54685 11.4253 5.65579 11.3063C5.80753 11.1408 6.03362 11.1411 6.2141 11.0244C6.38743 10.9124 6.45941 10.7249 6.57327 10.5626C6.83457 10.1905 7.30678 10.5012 7.59359 10.6635C7.73313 10.7426 7.85868 10.5277 7.7192 10.4486C7.38442 10.2589 6.9822 10.0102 6.5933 10.2144C6.41823 10.3064 6.332 10.4822 6.23246 10.6429C6.19289 10.716 6.13547 10.778 6.06553 10.823C5.96432 10.8691 5.86022 10.9086 5.7539 10.9412C5.37259 11.0989 5.25619 11.4924 5.16137 11.8584C5.06269 12.2373 4.88218 12.59 4.63255 12.8916C4.52612 13.0273 4.40593 13.1516 4.27388 13.2626C4.13144 13.3666 4.00203 13.4873 3.88846 13.6222C3.83164 13.6951 3.79095 13.7792 3.76909 13.869C3.74722 13.9588 3.74467 14.0522 3.7616 14.143C3.80955 14.3408 3.92624 14.5152 4.09084 14.635C4.73694 15.1405 5.65865 14.9221 6.38096 14.7345C6.75116 14.642 7.11404 14.5224 7.46667 14.3766C7.77538 14.2452 8.09952 14.0823 8.30557 13.8086C8.32203 13.7801 8.32658 13.7462 8.31823 13.7143C8.30988 13.6824 8.2893 13.6551 8.26096 13.6383C8.23228 13.6225 8.19859 13.6182 8.16688 13.6266C8.13517 13.6349 8.10789 13.6551 8.09068 13.683V13.6829Z" fill="#493833"/>
<path d="M9.55067 18.5485C9.5114 18.7377 9.53013 18.9343 9.60442 19.1127C9.70216 19.3543 9.76905 19.6072 9.80351 19.8655C9.88165 20.5188 9.86006 21.2082 9.55085 21.803C9.4719 21.9548 9.4217 22.1415 9.58818 22.255C9.72362 22.3474 9.92035 22.3365 10.0765 22.3368C10.2366 22.3368 10.2369 22.0879 10.0765 22.0879C10.0069 22.0879 9.93714 22.0879 9.86771 22.0817C9.83275 22.0788 9.75193 22.0765 9.7268 22.0497C9.70869 22.0304 9.73731 21.9831 9.75367 21.9513C9.79013 21.8807 9.82547 21.81 9.85664 21.7368C9.97642 21.4472 10.0501 21.1405 10.0751 20.8281C10.1007 20.5161 10.0942 20.2024 10.0556 19.8918C10.0291 19.6312 9.96913 19.3751 9.87723 19.1298C9.80544 18.9442 9.75137 18.8043 9.79094 18.6147C9.82354 18.4584 9.58377 18.3916 9.55098 18.5485L9.55067 18.5485Z" fill="white"/>
<path d="M18.8886 18.9667C18.9472 19.2136 19.0915 19.4434 19.2268 19.6547C19.3689 19.8769 19.5324 20.0843 19.6747 20.306C20.0137 20.8335 20.2005 21.4625 20.136 22.0915C20.1192 22.2555 20.0365 22.4471 20.1796 22.5785C20.2654 22.6571 20.3782 22.6508 20.4865 22.6549C20.6466 22.6611 20.6464 22.4122 20.4865 22.406C20.4502 22.4047 20.3522 22.4147 20.3407 22.3857C20.3291 22.3568 20.3652 22.2451 20.3712 22.2018C20.3822 22.1224 20.3906 22.0427 20.3946 21.9627C20.4078 21.6587 20.3719 21.3544 20.2882 21.0618C20.2043 20.7668 20.0795 20.4851 19.9174 20.2248C19.7873 20.0152 19.6333 19.8211 19.4973 19.6151C19.3529 19.3966 19.1896 19.159 19.1283 18.9006C19.0913 18.7451 18.8513 18.8108 18.8883 18.9667H18.8886Z" fill="white"/>
<path d="M10.6346 22.1048C11.0239 22.1041 11.4127 22.0799 11.8022 22.0854C11.9623 22.0877 11.9624 21.8389 11.8022 21.8366C11.4127 21.8308 11.0239 21.8552 10.6346 21.8559C10.4745 21.8559 10.4742 22.1048 10.6346 22.1048Z" fill="#493833"/>
<path d="M21.1841 22.1244C21.5315 22.0745 21.8822 22.051 22.2331 22.0541C22.3933 22.0552 22.3935 21.8063 22.2331 21.8053C21.8599 21.8034 21.4871 21.8299 21.1179 21.8844C21.0861 21.8933 21.0592 21.9144 21.0429 21.943C21.0266 21.9717 21.0222 22.0056 21.0308 22.0375C21.0402 22.0689 21.0614 22.0954 21.0899 22.1116C21.1184 22.1278 21.1521 22.1325 21.1839 22.1246L21.1841 22.1244Z" fill="#493833"/>
<path d="M6.40308 11.9525C6.34404 12.0518 6.3054 12.3037 6.50262 12.374C6.77077 12.4376 6.85762 12.1428 6.80163 11.9806C6.75608 11.8479 6.55071 11.7473 6.40308 11.9525Z" fill="white"/>
<path d="M21.4618 12.1893C21.8305 12.3627 22.1401 12.6406 22.3521 12.9885C22.6019 13.4007 22.649 13.8833 22.769 14.3414C22.8447 14.6304 22.9277 14.9175 22.9882 15.2103C23.0205 15.3671 23.2605 15.3007 23.2281 15.1441C23.1727 14.8758 23.0985 14.6121 23.028 14.3474C22.9582 14.0853 22.9078 13.8196 22.8442 13.5561C22.7423 13.1129 22.515 12.7083 22.1894 12.3907C22.0124 12.2205 21.8092 12.0799 21.5875 11.9744C21.4435 11.9063 21.3171 12.1207 21.4618 12.1893Z" fill="white"/>
<path d="M4.36247 14.0094H4.57089C4.60381 14.009 4.63531 13.9959 4.65886 13.9729C4.67042 13.9613 4.67959 13.9476 4.68585 13.9325C4.6921 13.9174 4.69532 13.9012 4.69532 13.8849C4.69532 13.8686 4.6921 13.8524 4.68585 13.8373C4.67959 13.8222 4.67042 13.8084 4.65886 13.7969C4.63524 13.774 4.60378 13.761 4.57089 13.7605H4.36247C4.32955 13.7609 4.29805 13.7739 4.27444 13.7969C4.26288 13.8084 4.25371 13.8222 4.24745 13.8373C4.2412 13.8524 4.23798 13.8686 4.23798 13.8849C4.23798 13.9012 4.2412 13.9174 4.24745 13.9325C4.25371 13.9476 4.26288 13.9613 4.27444 13.9729C4.29809 13.9958 4.32956 14.0088 4.36247 14.0094Z" fill="#2D2B28"/>
<path d="M8.12049 10.9081L8.12609 10.9055L8.09635 10.9179C8.12496 10.9071 8.15483 10.8999 8.18525 10.8965L8.15215 10.901C8.18613 10.8957 8.22065 10.8951 8.25481 10.899L8.22171 10.8945C8.22906 10.8956 8.23635 10.897 8.24355 10.8988C8.27591 10.9072 8.31026 10.9027 8.33942 10.8864C8.36056 10.874 8.37758 10.8557 8.38836 10.8337C8.39914 10.8118 8.40319 10.7871 8.40002 10.7628C8.39685 10.7386 8.38658 10.7158 8.37051 10.6973C8.35444 10.6788 8.33328 10.6655 8.30968 10.659C8.25808 10.6467 8.20462 10.6444 8.15215 10.6522C8.09782 10.657 8.04467 10.6708 7.99494 10.6932C7.967 10.7097 7.94649 10.7363 7.9377 10.7676C7.92908 10.7999 7.93356 10.8344 7.95014 10.8634C7.9666 10.8914 7.99325 10.9119 8.02449 10.9206L8.05759 10.9251C8.07965 10.9251 8.10133 10.9193 8.12036 10.9081H8.12049Z" fill="white"/>
<path d="M23.085 15.3439C23.1855 15.2947 23.2973 15.273 23.409 15.2811C23.5206 15.2892 23.6281 15.3267 23.7205 15.3899C23.9214 15.5175 24.0394 15.7434 24.0927 15.9693C24.1937 16.3969 24.0695 16.9198 23.6884 17.1734C23.5556 17.2616 23.6801 17.4772 23.814 17.3883C24.1879 17.1394 24.3774 16.6954 24.3752 16.2542C24.373 15.791 24.1562 15.2934 23.7089 15.1046C23.5903 15.0519 23.4613 15.0267 23.3315 15.031C23.2018 15.0352 23.0747 15.0687 22.9597 15.129C22.819 15.2057 22.9445 15.4207 23.0853 15.3439H23.085Z" fill="#210B04"/>
<path d="M22.9175 15.4758C22.8602 15.5342 22.816 15.6041 22.788 15.6809C22.7599 15.7578 22.7486 15.8397 22.7548 15.9212C22.761 16.0028 22.7846 16.0821 22.8239 16.1538C22.8633 16.2255 22.9175 16.2879 22.9829 16.337C23.1083 16.4329 23.2816 16.4925 23.3482 16.6469C23.4145 16.8292 23.4058 17.0304 23.3239 17.2062C23.3083 17.235 23.3042 17.2686 23.3125 17.3002C23.3207 17.3318 23.3408 17.3591 23.3685 17.3765C23.3971 17.3929 23.431 17.3974 23.4628 17.3891C23.4947 17.3807 23.522 17.3602 23.5388 17.3319C23.6937 16.9835 23.6901 16.5308 23.3584 16.2882C23.2454 16.2055 23.0837 16.148 23.0244 16.011C22.9991 15.951 22.9921 15.8848 23.0044 15.8209C23.0167 15.7569 23.0477 15.6981 23.0934 15.6517C23.2073 15.5389 23.0312 15.3629 22.9174 15.4758H22.9175Z" fill="#210B04"/>
</g>
<defs>
<clipPath id="clip0_16_2563">
<rect  fill="white" transform="translate(0 0.666748)"/>
</clipPath>
</defs>
</svg>
