<svg viewBox="0 0 30 31" fill="none" xmlns="http://www.w3.org/2000/svg">
<g clip-path="url(#clip0_1021_23852)">
<path d="M7.03334 25.5353L3.34045 29.0805M23.0169 4.50171L28.9442 10.192M23.6651 11.737L26.8183 8.71056M21.4075 9.56886L24.56 6.54328M12.857 20.488L14.8328 22.3848M15.1146 18.32L17.0904 20.2168M17.3722 16.1527L19.348 18.0495M19.6305 13.9847L21.6063 15.8815M8.04561 22.9144L9.76358 24.5636C10.0475 24.8345 10.0489 25.2751 9.7667 25.5477C9.76569 25.5487 9.76459 25.5497 9.76358 25.5507L8.91897 26.3599C8.63655 26.6323 8.17756 26.6333 7.89389 26.3622C7.89311 26.3614 7.89233 26.3607 7.89155 26.3599L6.17358 24.7107C5.88991 24.4396 5.88881 23.9989 6.17124 23.7266C6.17202 23.7259 6.1728 23.7251 6.17358 23.7244L7.01655 22.9143C7.29874 22.6417 7.75772 22.6404 8.04163 22.9113C8.04264 22.9123 8.04374 22.9133 8.04475 22.9143L8.04561 22.9144ZM20.8815 9.22558L24.0236 12.242C24.5588 12.7535 24.5608 13.5847 24.028 14.0986C24.0265 14.1 24.0251 14.1013 24.0236 14.1028L12.414 25.2472C11.8812 25.7611 11.0153 25.7629 10.4801 25.2514C10.4786 25.25 10.4772 25.2487 10.4757 25.2472L7.33358 22.2308C6.79834 21.7193 6.79639 20.8881 7.3292 20.3743C7.33069 20.3728 7.33209 20.3715 7.33358 20.3701L18.9424 9.22558C19.4752 8.71176 20.3411 8.70988 20.8763 9.22138C20.8778 9.22281 20.88 9.22416 20.8815 9.22558Z" stroke="currentColor" stroke-linecap="round" stroke-linejoin="round"/>
<path d="M10.4357 3.86327V6.19682C10.4357 6.19682 14.0281 6.38687 14.0281 9.07067V13.9631M4.64813 3.86252V6.19689C4.64813 6.19689 1.05579 6.40689 1.05579 9.07074V18.7162C1.05579 19.222 1.57469 19.7615 2.10157 19.7615H7.97704M8.53977 10.0286V11.9445H10.5355V13.8604H8.53977V15.7763H6.54407V13.8604H4.54836V11.9445H6.54407V10.0286H8.53977ZM3.94563 1.33044H11.1383C11.5231 1.33044 11.8328 1.62782 11.8328 1.99719V3.15437C11.8328 3.52374 11.5231 3.82112 11.1383 3.82112H3.94563C3.5625 3.82157 3.25157 3.52374 3.2511 3.15594C3.2511 3.15542 3.2511 3.15489 3.2511 3.15444V1.99727C3.2511 1.62789 3.56086 1.33044 3.94563 1.33044Z" stroke="currentColor" stroke-linecap="round" stroke-linejoin="round"/>
</g>
<defs>
<clipPath id="clip0_1021_23852">
<rect width="30" height="30" fill="white" transform="translate(0 0.366089)"/>
</clipPath>
</defs>
</svg>
