<svg viewBox="0 0 31 31" fill="none" xmlns="http://www.w3.org/2000/svg">
<g clip-path="url(#clip0_609_20853)">
<path fill-rule="evenodd" clip-rule="evenodd" d="M15.4687 0.333252C23.7517 0.333252 30.4687 7.05025 30.4687 15.3333C30.4687 23.6163 23.7517 30.3333 15.4687 30.3333C7.18575 30.3333 0.46875 23.6163 0.46875 15.3333C0.46875 7.05025 7.18575 0.333252 15.4687 0.333252ZM15.4687 3.33325C8.85225 3.33325 3.46875 8.71675 3.46875 15.3333C3.46875 21.9498 8.85225 27.3333 15.4687 27.3333C22.0852 27.3333 27.4688 21.9498 27.4688 15.3333C27.4688 8.71675 22.0852 3.33325 15.4687 3.33325ZM18.9083 9.77275L21.0292 11.8938L17.5898 15.3333L21.0292 18.7728L18.9083 20.8938L15.4687 17.4543L12.0293 20.8938L9.90825 18.7728L13.3477 15.3333L9.90825 11.8938L12.0293 9.77275L15.4687 13.2123L18.9083 9.77275Z" fill="#D70C41"/>
</g>
<defs>
<clipPath id="clip0_609_20853">
<rect width="31" height="30" fill="white" transform="translate(0 0.333252)"/>
</clipPath>
</defs>
</svg>
