<svg  viewBox="0 0 30 31" fill="none" xmlns="http://www.w3.org/2000/svg">
<path d="M17.9001 15.1773C17.9006 15.715 17.7416 16.2408 17.4433 16.6881C17.1449 17.1355 16.7207 17.4843 16.2241 17.6905C15.7275 17.8967 15.1809 17.9511 14.6535 17.8467C14.126 17.7422 13.6413 17.4838 13.2608 17.104C12.8802 16.7241 12.6208 16.2399 12.5154 15.7127C12.41 15.1854 12.4633 14.6387 12.6686 14.1417C12.8738 13.6448 13.2219 13.2198 13.6686 12.9206C14.1154 12.6215 14.6409 12.4615 15.1786 12.4609C15.8995 12.461 16.5908 12.7471 17.1011 13.2564C17.6113 13.7656 17.8986 14.4565 17.9001 15.1773Z" stroke="currentColor" stroke-width="2.75" stroke-linecap="round" stroke-linejoin="round"/>
<path d="M25.3809 18.0199L23.2514 15.9766C23.2767 15.7136 23.2922 15.4455 23.2922 15.1773C23.2922 14.9092 23.2767 14.6411 23.2514 14.3781L25.3762 12.3194C25.5905 12.1133 25.7294 11.8412 25.7706 11.5468C25.8118 11.2524 25.753 10.9527 25.6036 10.6957L24.2681 8.37911C24.1188 8.12054 23.8874 7.91931 23.6106 7.80742C23.3338 7.69557 23.0275 7.6795 22.7405 7.76176L19.9031 8.58629C19.4717 8.2734 19.0089 8.00636 18.5222 7.78937L17.8036 4.9183C17.7323 4.62903 17.5659 4.37209 17.3311 4.18867C17.0964 4.00524 16.8068 3.90596 16.5089 3.90674H13.8333C13.5348 3.90712 13.2451 4.00746 13.0103 4.19175C12.7756 4.37603 12.6094 4.63364 12.5381 4.92346L11.8298 7.78614C11.3431 8.00317 10.8803 8.27021 10.4489 8.58301L7.6064 7.76879C7.32018 7.68709 7.01484 7.70359 6.73907 7.81567C6.46331 7.9277 6.23296 8.12889 6.08484 8.38707L4.74421 10.7041C4.59557 10.9635 4.5379 11.2652 4.58037 11.5612C4.62283 11.8572 4.76301 12.1305 4.97859 12.3377L7.10812 14.3814C7.0828 14.6444 7.06734 14.9073 7.06734 15.1755C7.06734 15.4436 7.0828 15.7164 7.10812 15.9794L4.98374 18.0334C4.76952 18.2395 4.63067 18.5114 4.58936 18.8057C4.54806 19.1001 4.60671 19.3997 4.75593 19.6567L6.0914 21.9785C6.24102 22.2365 6.47277 22.437 6.74966 22.548C7.02655 22.6589 7.33265 22.6739 7.61906 22.5907L10.4564 21.7713C10.8891 22.0814 11.3517 22.3474 11.8373 22.5654L12.5555 25.4388C12.6282 25.7269 12.7952 25.9825 13.0299 26.1648C13.2645 26.3472 13.5534 26.4459 13.8506 26.4452H16.5239C16.8216 26.4448 17.1106 26.3451 17.3452 26.1619C17.5799 25.9787 17.7466 25.7223 17.8191 25.4336L18.5273 22.5654C19.0124 22.3483 19.4735 22.0813 19.9031 21.7685L22.7508 22.5832C23.037 22.6652 23.3425 22.6489 23.6185 22.537C23.8944 22.4251 24.125 22.224 24.2733 21.9658L25.6139 19.6493C25.7626 19.3907 25.8205 19.0897 25.7783 18.7944C25.7361 18.4991 25.5962 18.2264 25.3809 18.0199ZM15.1786 17.8985C14.6411 17.8979 14.1158 17.738 13.6691 17.4391C13.2224 17.1401 12.8744 16.7154 12.669 16.2187C12.4636 15.722 12.41 15.1756 12.5151 14.6484C12.6201 14.1213 12.879 13.6371 13.2591 13.2571C13.6392 12.877 14.1234 12.6182 14.6506 12.5133C15.1777 12.4083 15.7242 12.462 16.2209 12.6675C16.7175 12.873 17.1421 13.2211 17.441 13.6678C17.7399 14.1145 17.8997 14.6399 17.9001 15.1773C17.9005 15.5348 17.8303 15.8889 17.6936 16.2191C17.5569 16.5495 17.3564 16.8496 17.1037 17.1023C16.8509 17.3551 16.5508 17.5555 16.2204 17.6921C15.8901 17.8287 15.5361 17.8988 15.1786 17.8985Z" stroke="currentColor" stroke-width="2.75" stroke-linecap="round" stroke-linejoin="round"/>
<path d="M17.9001 15.1773C17.9006 15.715 17.7416 16.2408 17.4433 16.6881C17.1449 17.1355 16.7207 17.4843 16.2241 17.6905C15.7275 17.8967 15.1809 17.9511 14.6535 17.8467C14.126 17.7422 13.6413 17.4838 13.2608 17.104C12.8802 16.7241 12.6208 16.2399 12.5154 15.7127C12.41 15.1854 12.4633 14.6387 12.6686 14.1417C12.8738 13.6448 13.2219 13.2198 13.6686 12.9206C14.1154 12.6215 14.6409 12.4615 15.1786 12.4609C15.8995 12.461 16.5908 12.7471 17.1011 13.2564C17.6113 13.7656 17.8986 14.4565 17.9001 15.1773Z" stroke="#AF842D" stroke-width="2.75" stroke-linecap="round" stroke-linejoin="round"/>
</svg>
