<svg viewBox="0 0 23 24" fill="none" xmlns="http://www.w3.org/2000/svg">
<path d="M11.5 2.75C6.2196 2.75 1.91669 7.05292 1.91669 12.3333C1.91669 17.6138 6.2196 21.9167 11.5 21.9167C16.7804 21.9167 21.0834 17.6138 21.0834 12.3333C21.0834 7.05292 16.7804 2.75 11.5 2.75ZM15.3334 13.0521H12.2188V16.1667C12.2188 16.5596 11.8929 16.8854 11.5 16.8854C11.1071 16.8854 10.7813 16.5596 10.7813 16.1667V13.0521H7.66669C7.27377 13.0521 6.94794 12.7263 6.94794 12.3333C6.94794 11.9404 7.27377 11.6146 7.66669 11.6146H10.7813V8.5C10.7813 8.10708 11.1071 7.78125 11.5 7.78125C11.8929 7.78125 12.2188 8.10708 12.2188 8.5V11.6146H15.3334C15.7263 11.6146 16.0521 11.9404 16.0521 12.3333C16.0521 12.7263 15.7263 13.0521 15.3334 13.0521Z" fill="#31E839"/>
</svg>
