<svg viewBox="0 0 30 31" fill="none" xmlns="http://www.w3.org/2000/svg">
<path fill-rule="evenodd" clip-rule="evenodd" d="M7.02452 11.4709C7.02452 7.0573 10.6109 3.47095 15.0245 3.47095C19.4257 3.47095 23.0245 7.06981 23.0245 11.4709V15.0835C23.0245 15.4047 23.0949 15.8389 23.2161 16.2809C23.3366 16.7204 23.4967 17.1285 23.6554 17.4048L25.0904 19.7881C26.0791 21.4359 25.2877 23.5815 23.4697 24.183C17.9796 26.0171 12.0562 26.017 6.56607 24.1827L6.56422 24.1821C5.62345 23.8637 4.94123 23.2155 4.63844 22.3977C4.33543 21.5794 4.43165 20.6432 4.94609 19.7882L6.38254 17.4025C6.38272 17.4022 6.3829 17.4019 6.38307 17.4016C6.54645 17.1272 6.70955 16.7198 6.8318 16.2794C6.95422 15.8384 7.02452 15.4045 7.02452 15.0835V11.4709ZM15.0245 4.47095C11.1632 4.47095 8.02452 7.60959 8.02452 11.4709V15.0835C8.02452 15.525 7.93232 16.0536 7.79536 16.5469C7.65836 17.0404 7.46543 17.5389 7.24149 17.9145L7.24037 17.9164L5.80294 20.3038C5.80292 20.3038 5.80297 20.3037 5.80294 20.3038C5.42995 20.9237 5.38861 21.5439 5.57622 22.0505C5.76397 22.5575 6.20019 23.0029 6.88389 23.2346C12.1683 24.9999 17.8692 24.9998 23.1536 23.2343L23.1551 23.2338C24.3613 22.835 24.8942 21.4057 24.2336 20.3038C24.2335 20.3036 24.2337 20.304 24.2336 20.3038L22.7913 17.9084C22.5758 17.5348 22.3869 17.0383 22.2517 16.5454C22.1167 16.0531 22.0245 15.5248 22.0245 15.0835V11.4709C22.0245 7.62209 18.8734 4.47095 15.0245 4.47095Z" fill="currentColor"/>
<path d="M5.80294 20.3038L7.24037 17.9164L7.24149 17.9145C7.46543 17.5389 7.65836 17.0404 7.79536 16.5469C7.93232 16.0536 8.02452 15.525 8.02452 15.0835V11.4709C8.02452 7.60959 11.1632 4.47095 15.0245 4.47095C18.8734 4.47095 22.0245 7.62209 22.0245 11.4709V15.0835C22.0245 15.5248 22.1167 16.0531 22.2517 16.5454C22.3869 17.0383 22.5758 17.5348 22.7913 17.9084L24.2336 20.3038M5.80294 20.3038C5.80297 20.3037 5.80292 20.3038 5.80294 20.3038ZM5.80294 20.3038C5.42995 20.9237 5.38861 21.5439 5.57622 22.0505C5.76397 22.5575 6.20019 23.0029 6.88389 23.2346C12.1683 24.9999 17.8692 24.9998 23.1536 23.2343L23.1551 23.2338C24.3613 22.835 24.8942 21.4057 24.2336 20.3038M24.2336 20.3038C24.2337 20.304 24.2335 20.3036 24.2336 20.3038ZM15.0245 3.47095C10.6109 3.47095 7.02452 7.0573 7.02452 11.4709V15.0835C7.02452 15.4045 6.95422 15.8384 6.8318 16.2794C6.70955 16.7198 6.54645 17.1272 6.38307 17.4016C6.3829 17.4019 6.38272 17.4022 6.38254 17.4025L4.94609 19.7882C4.43165 20.6432 4.33543 21.5794 4.63844 22.3977C4.94123 23.2155 5.62345 23.8637 6.56422 24.1821L6.56607 24.1827C12.0562 26.017 17.9796 26.0171 23.4697 24.183C25.2877 23.5815 26.0791 21.4359 25.0904 19.7881L23.6554 17.4048C23.4967 17.1285 23.3366 16.7204 23.2161 16.2809C23.0949 15.8389 23.0245 15.4047 23.0245 15.0835V11.4709C23.0245 7.06981 19.4257 3.47095 15.0245 3.47095Z" stroke="currentColor" stroke-miterlimit="10" stroke-linecap="round"/>
<path fill-rule="evenodd" clip-rule="evenodd" d="M13.9494 3.57367C14.6478 3.49064 15.3676 3.49065 16.1028 3.57533C15.7923 3.37438 15.422 3.25806 15.0249 3.25806C14.6288 3.25806 14.2595 3.37374 13.9494 3.57367ZM12.2468 4.15062C12.6823 3.03943 13.7634 2.25806 15.0249 2.25806C16.2863 2.25806 17.3674 3.03943 17.8029 4.15062C17.8724 4.328 17.8351 4.52947 17.7066 4.67017C17.5782 4.81087 17.3809 4.86635 17.1979 4.81323C16.8322 4.70704 16.4589 4.62569 16.0772 4.57942L16.0753 4.5792C14.9391 4.43716 13.8579 4.52075 12.8519 4.81318C12.6689 4.86637 12.4716 4.81094 12.3432 4.67024C12.2147 4.52954 12.1773 4.32803 12.2468 4.15062Z" fill="currentColor" stroke="currentColor" stroke-miterlimit="10" stroke-linecap="round" stroke-linejoin="round"/>
<path opacity="0.4" fill-rule="evenodd" clip-rule="evenodd" d="M11.7744 24.1583C11.7744 25.045 12.1426 25.8694 12.728 26.4548L12.728 26.4548C13.3133 27.0401 14.1377 27.4083 15.0244 27.4083C16.8107 27.4083 18.2744 25.9447 18.2744 24.1583H19.2744C19.2744 26.497 17.363 28.4083 15.0244 28.4083C13.8611 28.4083 12.7855 27.9265 12.0209 27.1619C11.2562 26.3972 10.7744 25.3216 10.7744 24.1583H11.7744Z" fill="currentColor" stroke="currentColor" stroke-miterlimit="10"/>
</svg>
