<svg viewBox="0 0 30 31" fill="none" xmlns="http://www.w3.org/2000/svg">
<g clip-path="url(#clip0_16_2564)">
<path d="M15.0002 0.333252C6.71585 0.333252 0 7.04844 0 15.3334C0 23.6171 6.71579 30.3328 15.0002 30.3328C23.2842 30.3328 30 23.6171 30 15.3334C30 7.04838 23.2842 0.333252 15.0002 0.333252Z" fill="#AF842D"/>
<path d="M10.1201 12.3881C9.17452 12.6961 8.25141 12.4085 7.67367 12.0019C7.09587 11.5953 6.41432 10.5918 6.58066 9.1401C6.88062 6.52296 9.42817 6.52792 9.42817 6.52792C8.63149 5.8437 7.49875 6.00284 7.06957 6.16446C4.55274 7.11261 4.01769 9.90595 4.01769 9.90595C3.45186 14.5759 9.80075 15.0465 9.80075 15.0465C13.138 14.9231 13.4599 11.254 13.4599 11.254C11.9991 11.3561 10.1201 12.3881 10.1201 12.3881Z" fill="#EAE7D0"/>
<path d="M10.1201 12.3881C5.82201 12.9958 4.01775 9.90601 4.01775 9.90601C3.45192 14.576 9.80081 15.0465 9.80081 15.0465C13.1381 14.9232 13.4599 11.2541 13.4599 11.2541C11.9991 11.3561 10.1201 12.3881 10.1201 12.3881Z" fill="#DDD9BF"/>
<path d="M25.894 9.90595C25.894 9.90595 25.3589 7.11261 22.8421 6.16446C22.4129 6.00284 21.2802 5.8437 20.4835 6.52792C20.4835 6.52792 23.031 6.52296 23.331 9.1401C23.4974 10.5918 22.8158 11.5953 22.2381 12.0019C21.6603 12.4084 20.7372 12.696 19.7916 12.3881C19.7916 12.3881 17.9126 11.3561 16.4518 11.2541C16.4518 11.2541 16.7737 14.9232 20.111 15.0465C20.111 15.0465 26.4598 14.5759 25.894 9.90595Z" fill="#EAE7D0"/>
<path d="M25.894 9.90601C25.894 9.90601 24.0897 12.9958 19.7916 12.3881C19.7916 12.3881 17.9126 11.3561 16.4518 11.2541C16.4518 11.2541 16.7737 14.9232 20.111 15.0465C20.111 15.0465 26.4598 14.576 25.894 9.90601Z" fill="#DDD9BF"/>
<path d="M22.1909 15.0976C20.768 14.9055 19.3988 15.8018 19.3988 16.2466C19.3988 16.6913 19.8934 17.6385 21.8062 17.9476C23.2291 18.1397 24.5983 16.6913 24.5983 16.2466C24.5983 15.8018 23.6138 15.2896 22.1909 15.0976Z" fill="#4C4A48"/>
<path d="M21.8252 15.654C20.9597 15.5371 20.127 16.0823 20.127 16.3528C20.127 16.6233 20.4279 17.1993 21.5912 17.3874C22.4567 17.5042 23.2894 16.6233 23.2894 16.3528C23.2894 16.0823 22.6906 15.7708 21.8252 15.654Z" fill="#383736"/>
<path d="M7.93309 15.0976C6.51018 15.2897 5.52563 15.8018 5.52563 16.2466C5.52563 16.6913 6.89485 18.1397 8.31776 17.9476C10.2306 17.6385 10.7252 16.6913 10.7252 16.2466C10.7252 15.8018 9.356 14.9055 7.93309 15.0976Z" fill="#4C4A48"/>
<path d="M8.2988 15.654C7.43337 15.7708 6.83459 16.0823 6.83459 16.3528C6.83459 16.6233 7.66731 17.5042 8.53274 17.3874C9.69608 17.1994 9.99695 16.6233 9.99695 16.3528C9.99695 16.0823 9.16423 15.5371 8.2988 15.654Z" fill="#383736"/>
<path d="M20.1616 15.8434C20.1616 15.8434 20.8163 14.5079 20.4235 13.8794C20.4235 13.8794 19.9521 13.5128 19.2451 13.408C19.2451 13.408 16.8445 12.0477 15.056 12.0477C13.2676 12.0477 10.8671 13.408 10.8671 13.408C10.16 13.5128 9.6886 13.8794 9.6886 13.8794C9.29582 14.5079 9.95053 15.8434 9.95053 15.8434C10.0814 16.3672 9.81957 17.4671 9.81957 17.4671C9.53152 19.3788 11.9145 23.9617 11.9145 23.9617C12.124 24.3282 13.0138 26.8872 15.056 26.8872C17.0981 26.8872 17.988 24.3283 18.1975 23.9617C18.1975 23.9617 20.5806 19.3788 20.2925 17.4671C20.2925 17.4671 20.0307 16.3672 20.1616 15.8434Z" fill="#3F3D3D"/>
<path d="M19.245 13.408C19.245 13.408 16.8444 12.0477 15.0559 12.0477C13.2675 12.0477 10.867 13.408 10.867 13.408C10.4837 13.408 12.0017 16.7164 12.0017 16.7164L12.7612 22.144C12.9707 22.5106 13.0138 26.8872 15.0559 26.8872C17.0981 26.8872 17.2277 22.3896 17.4371 22.023L18.1102 16.7164C18.1102 16.7164 19.5232 13.408 19.245 13.408Z" fill="#514F4D"/>
<path d="M10.867 13.408C10.5291 13.408 12.0018 16.7164 12.0018 16.7164L12.7612 22.144C12.9707 22.5106 13.0138 26.8872 15.0559 26.8872V12.0477C13.2675 12.0477 10.867 13.408 10.867 13.408Z" fill="#444341"/>
<path d="M14.9807 21.8832C11.6609 21.8832 11.6335 23.2138 11.6335 23.2138C11.7328 23.9994 11.8039 24.8667 11.9145 25.204C12.0251 25.5413 12.9448 26.9907 15.056 26.9907C17.1671 26.9907 18.0199 25.6605 18.1974 25.204C18.375 24.7476 18.3793 23.9994 18.4785 23.2138C18.4785 23.2138 18.3005 21.8832 14.9807 21.8832Z" fill="#383736"/>
<path d="M13.0815 23.3818C12.2311 26.1333 14.6824 25.433 14.6824 25.433C13.6471 25.0927 13.0815 23.3818 13.0815 23.3818Z" fill="#161616"/>
<path d="M17.2121 23.3818C17.2121 23.3818 16.6465 25.0927 15.6112 25.433C15.6112 25.433 18.0626 26.1333 17.2121 23.3818Z" fill="#161616"/>
<path d="M11.1114 14.5341L9.59252 14.4817C9.59252 14.4817 9.48773 14.5952 9.57498 15.1452C9.6623 15.6952 9.95041 15.8435 9.95041 15.8435L12.0017 16.7165L12.1239 16.5069L11.1114 14.5341Z" fill="#282727"/>
<path d="M20.5195 14.4817L19.0006 14.5341L17.988 16.5069L18.1102 16.7165L20.1616 15.8435C20.1616 15.8435 20.4496 15.6951 20.5369 15.1452C20.6243 14.5952 20.5195 14.4817 20.5195 14.4817Z" fill="#282727"/>
<path d="M20.5194 14.4817L20.5165 14.4818C20.5447 14.5684 20.5631 14.6616 20.5715 14.7589C20.5704 14.5378 20.5194 14.4817 20.5194 14.4817Z" fill="#494949"/>
<path d="M19.1298 12.2553C18.6018 11.6709 16.9542 11.1505 15.0275 11.1505C13.2505 11.1505 11.6847 11.4268 11.0291 12.1013C10.8188 12.3176 10.7022 13.5433 10.7022 13.5433C10.7022 14.2716 19.3068 14.2716 19.3068 13.5433C19.3068 13.5433 19.2449 12.3827 19.1298 12.2553Z" fill="#383736"/>
<path d="M15.0275 11.1505C13.2505 11.1505 11.6847 11.4268 11.0291 12.1013C10.8188 12.3176 10.7022 13.5433 10.7022 13.5433C10.7022 13.9105 12.8898 14.0926 15.059 14.0895L15.0275 11.1505Z" fill="#2D2D2D"/>
</g>
<defs>
<clipPath id="clip0_16_2564">
<rect width="30" height="30" fill="white" transform="translate(0 0.333252)"/>
</clipPath>
</defs>
</svg>
