<svg viewBox="0 0 30 31" fill="none" xmlns="http://www.w3.org/2000/svg">
<path d="M12.039 16.5997L14.067 18.6277L15.753 17.0152L13.605 14.9617L12.039 16.5997Z" fill="#B75002"/>
<path d="M17.2425 21.0786C17.631 21.4581 21.195 24.8676 23.7705 24.8691C24.402 24.8691 24.93 24.6606 25.341 24.2496C25.7565 23.8341 25.9665 23.3016 25.965 22.6641C25.9605 20.0856 22.5495 16.5381 22.17 16.1511L19.8855 16.6806L17.772 18.7941L17.2425 21.0786ZM18.6015 19.5066C18.603 19.4991 18.6075 19.4916 18.6135 19.4856L20.5785 17.5206C20.5845 17.5146 20.592 17.5101 20.5995 17.5086L22.626 17.0691C22.6425 17.0661 22.659 17.0721 22.6695 17.0841C22.68 17.0976 23.7405 18.3831 24.5685 19.8711C25.689 21.8826 25.878 23.2821 25.1265 24.0336C24.8325 24.3276 24.429 24.4761 23.925 24.4761C21.7245 24.4761 18.213 21.6036 18.1785 21.5751C18.1665 21.5646 18.1605 21.5481 18.1635 21.5316L18.6015 19.5066Z" fill="#808080"/>
<path d="M13.989 18.7988L11.868 16.6778L10.5435 16.1963C10.4085 16.1468 10.2675 16.1228 10.125 16.1228C9.79652 16.1228 9.48902 16.2503 9.25652 16.4828L9.19952 16.5398L14.127 21.4673L14.184 21.4103C14.52 21.0743 14.6325 20.5703 14.4705 20.1233L13.989 18.7988Z" fill="#808080"/>
<path d="M23.9235 24.3891C24.402 24.3891 24.786 24.2481 25.062 23.9721C26.7315 22.3026 22.905 17.5176 22.6155 17.1606L20.628 17.5911L18.6825 19.5366L18.252 21.5241C18.546 21.7611 21.8415 24.3891 23.9235 24.3891Z" fill="#B2B2B2"/>
<path d="M8.77144 16.968L13.6992 21.8958L14.0651 21.5298L9.13736 16.602L8.77144 16.968Z" fill="#606060"/>
<path d="M3.95251 21.7852L4.24351 22.0762L7.83901 18.4807C7.95601 18.3637 8.11201 18.2992 8.27851 18.2992C8.44501 18.2992 8.59951 18.3637 8.71801 18.4807C8.83501 18.5977 8.89951 18.7537 8.89951 18.9202C8.89951 19.0867 8.83501 19.2412 8.71801 19.3597L5.12251 22.9552L5.43151 23.2642L9.02701 19.6687C9.14401 19.5517 9.30001 19.4872 9.46651 19.4872C9.63301 19.4872 9.78751 19.5517 9.90601 19.6687C10.023 19.7857 10.0875 19.9417 10.0875 20.1082C10.0875 20.2747 10.023 20.4292 9.90601 20.5477L6.30901 24.1417L6.52501 24.3577L10.1205 20.7622C10.2375 20.6452 10.3935 20.5807 10.56 20.5807C10.7265 20.5807 10.881 20.6452 10.9995 20.7622C11.241 21.0037 11.241 21.3982 10.9995 21.6397L7.40401 25.2352L7.71451 25.5457L11.31 21.9502C11.427 21.8332 11.583 21.7687 11.7495 21.7687C11.916 21.7687 12.0705 21.8332 12.189 21.9502C12.306 22.0672 12.3705 22.2232 12.3705 22.3897C12.3705 22.5562 12.306 22.7107 12.189 22.8292L8.59351 26.4247L8.88451 26.7157L13.641 21.9592L8.71351 17.0317L3.95251 21.7852Z" fill="#808080"/>
<path d="M25.5585 5.10822C25.221 4.77072 24.771 4.58472 24.294 4.58472C23.8005 4.58472 23.3415 4.78122 23.001 5.13672L16.0005 12.4567L18.159 14.7142L25.53 7.66572C25.881 7.32972 26.0775 6.87822 26.082 6.39222C26.088 5.90772 25.902 5.45172 25.5585 5.10822Z" fill="#B75002"/>
<path d="M7.46398 4.58325C6.98548 4.58325 6.53698 4.76925 6.19948 5.10675C5.85598 5.45025 5.66998 5.90625 5.67598 6.39225C5.68198 6.87825 5.87698 7.32975 6.22798 7.66575L13.662 14.7743L15.939 16.9523L17.691 18.6278L19.719 16.5998L8.75848 5.13675C8.41648 4.77975 7.95748 4.58325 7.46398 4.58325Z" fill="#B75002"/>
<path d="M6.243 4.86816C6.243 4.86816 6.3045 6.24816 7.437 7.51566C8.56949 8.78316 18.2085 18.2332 18.2085 18.2332L17.595 18.8542L15.915 17.1892L15.846 16.9777L12.579 13.8982L6.006 7.75266C6.006 7.75266 4.6005 6.03666 6.243 4.86816Z" fill="#893A04"/>
<path d="M13.4865 18.1927L13.2045 17.9017L14.9835 16.1902L15.864 17.0287L14.1285 18.7642L13.4865 18.1927Z" fill="#893A04"/>
<path d="M17.2425 13.8982C17.2425 13.8982 24.8715 6.84518 25.716 4.97168C25.716 4.97168 26.2965 5.61818 26.2965 6.03218C26.2965 6.44618 26.28 7.10918 25.8495 7.62368C25.419 8.13818 18.297 14.9257 18.297 14.9257L17.2425 13.8982Z" fill="#893A04"/>
<path d="M18.858 19.3643L18.684 19.5383L18.2535 21.5258C18.5445 21.7613 21.801 24.3563 23.8845 24.3893C20.8845 23.4518 19.47 20.9483 18.858 19.3643Z" fill="#808080"/>
<path d="M24.144 24.4658C24.072 24.4733 24 24.4778 23.9235 24.4778C21.723 24.4778 18.2115 21.6053 18.177 21.5768C18.165 21.5663 18.159 21.5498 18.162 21.5333L18.6015 19.5068C18.603 19.4993 18.6075 19.4918 18.6135 19.4858L18.825 19.2743C18.6165 18.7193 18.5085 18.2918 18.4665 18.1013L17.7735 18.7943L17.244 21.0788C17.6325 21.4583 21.1965 24.8678 23.772 24.8693C24.171 24.8693 24.528 24.7853 24.8415 24.6203C24.6 24.5768 24.3675 24.5273 24.144 24.4658Z" fill="#606060"/>
<path d="M8.27849 18.2993C8.44499 18.2993 8.59949 18.3638 8.71799 18.4808C8.83499 18.5978 8.89949 18.7538 8.89949 18.9203C8.89949 19.0868 8.83499 19.2413 8.71799 19.3598L5.12249 22.9553L5.43149 23.2643L9.02699 19.6688C9.14399 19.5518 9.29999 19.4873 9.46649 19.4873C9.63299 19.4873 9.78749 19.5518 9.90599 19.6688C10.023 19.7858 10.0875 19.9418 10.0875 20.1083C10.0875 20.2748 10.023 20.4293 9.90599 20.5478L6.30899 24.1418L6.40349 24.2363L9.92549 20.9558L10.119 20.7623C10.1505 20.7308 10.185 20.7038 10.221 20.6798L11.328 19.6493L8.70749 17.0288L3.95099 21.7853L4.24199 22.0763L7.83749 18.4808C7.95599 18.3638 8.11199 18.2993 8.27849 18.2993Z" fill="#B2B2B2"/>
<path d="M11.772 19.2368L9.13801 16.6013L8.77051 16.9673L11.3925 19.5893L11.772 19.2368Z" fill="#808080"/>
<path d="M13.1475 17.9558L11.868 16.6763L10.5435 16.1948C10.4085 16.1453 10.2675 16.1213 10.125 16.1213C9.79652 16.1213 9.48902 16.2488 9.25652 16.4813L9.19952 16.5383L11.8365 19.1768L13.1475 17.9558Z" fill="#B2B2B2"/>
<path d="M26.5395 6.39823C26.547 5.78923 26.313 5.21623 25.881 4.78423C25.4565 4.35973 24.8925 4.12573 24.2925 4.12573C23.673 4.12573 23.097 4.37173 22.668 4.82023L15.8775 11.9227L9.08851 4.82023C8.66101 4.37323 8.08351 4.12573 7.46401 4.12573C6.86401 4.12573 6.30001 4.35973 5.87551 4.78423C5.44501 5.21473 5.21101 5.78773 5.21701 6.39823C5.22301 7.00723 5.47051 7.57573 5.91001 7.99723L13.08 14.8507L11.8155 16.1722L10.6995 15.7672C10.515 15.6997 10.3215 15.6667 10.125 15.6667C9.67501 15.6667 9.25201 15.8422 8.93401 16.1602L3.56851 21.5257C3.42451 21.6697 3.42451 21.9037 3.56851 22.0477L3.98251 22.4617C4.05001 22.5292 4.14601 22.5682 4.24351 22.5682C4.34101 22.5682 4.43701 22.5292 4.50451 22.4617L8.16151 18.8047C8.19301 18.7732 8.23201 18.7567 8.27701 18.7567C8.32201 18.7567 8.36101 18.7732 8.39251 18.8047C8.42401 18.8362 8.44051 18.8767 8.44051 18.9202C8.44051 18.9652 8.42401 19.0042 8.39251 19.0357L4.73551 22.6927C4.66651 22.7617 4.62601 22.8562 4.62601 22.9537C4.62601 23.0512 4.66501 23.1472 4.73401 23.2147L5.16751 23.6482C5.23651 23.7187 5.32951 23.7562 5.42851 23.7562C5.52751 23.7562 5.62051 23.7172 5.68951 23.6482L9.34651 19.9912C9.37801 19.9597 9.41851 19.9432 9.46201 19.9432C9.50701 19.9432 9.54601 19.9597 9.57751 19.9912C9.60901 20.0227 9.62551 20.0632 9.62551 20.1067C9.62551 20.1502 9.60901 20.1907 9.57751 20.2222L5.92501 23.8807C5.78101 24.0247 5.78101 24.2587 5.92501 24.4027L6.26401 24.7417C6.33151 24.8092 6.42751 24.8482 6.52501 24.8482C6.62251 24.8482 6.71851 24.8092 6.78601 24.7417L10.443 21.0847C10.4745 21.0532 10.515 21.0367 10.5585 21.0367C10.6035 21.0367 10.6425 21.0532 10.674 21.0847C10.7055 21.1147 10.722 21.1567 10.722 21.2002C10.722 21.2437 10.7055 21.2857 10.674 21.3157L7.01701 24.9727C6.94801 25.0417 6.90751 25.1362 6.90751 25.2337C6.90751 25.3327 6.94651 25.4242 7.01551 25.4947L7.44901 25.9282C7.51951 25.9972 7.61101 26.0362 7.71001 26.0362C7.80901 26.0362 7.90201 25.9972 7.97101 25.9282L11.628 22.2712C11.6595 22.2397 11.7 22.2232 11.7435 22.2232C11.7885 22.2232 11.8275 22.2397 11.859 22.2712C11.8905 22.3027 11.907 22.3432 11.907 22.3867C11.907 22.4317 11.8905 22.4707 11.859 22.5022L8.20201 26.1592C8.13301 26.2282 8.09251 26.3227 8.09251 26.4217C8.09251 26.5192 8.13151 26.6152 8.20051 26.6827L8.61451 27.0967C8.68351 27.1672 8.77651 27.2062 8.87701 27.2062C8.97601 27.2062 9.06901 27.1672 9.13801 27.0982L14.5035 21.7327C14.964 21.2722 15.1185 20.5792 14.8965 19.9672L14.4915 18.8497L15.876 17.5267L17.283 18.8707L16.7835 21.0217C16.7535 21.1477 16.791 21.2767 16.881 21.3667C16.89 21.3757 17.8695 22.3552 19.194 23.3287C20.9955 24.6532 22.5345 25.3252 23.7675 25.3252C24.525 25.3252 25.161 25.0717 25.6605 24.5722C26.1645 24.0682 26.4195 23.4262 26.418 22.6627C26.4165 21.4282 25.743 19.8907 24.417 18.0952C23.4645 16.8052 22.4955 15.8332 22.455 15.7912C22.386 15.7222 22.293 15.6847 22.1955 15.6847C22.167 15.6847 22.14 15.6877 22.1115 15.6937L19.9605 16.1932L18.675 14.8492L25.842 7.99573C26.286 7.57573 26.5335 7.00723 26.5395 6.39823ZM8.88151 26.7142L8.59051 26.4232L12.186 22.8277C12.303 22.7107 12.3675 22.5547 12.3675 22.3882C12.3675 22.2217 12.303 22.0672 12.186 21.9487C12.069 21.8317 11.913 21.7672 11.7465 21.7672C11.58 21.7672 11.4255 21.8317 11.307 21.9487L7.71151 25.5442L7.40101 25.2337L10.9965 21.6382C11.238 21.3967 11.238 21.0022 10.9965 20.7607C10.8795 20.6437 10.7235 20.5792 10.557 20.5792C10.3905 20.5792 10.236 20.6437 10.1175 20.7607L6.52501 24.3577L6.30901 24.1417L9.90451 20.5462C10.0215 20.4292 10.086 20.2732 10.086 20.1067C10.086 19.9402 10.0215 19.7857 9.90451 19.6672C9.78751 19.5502 9.63151 19.4857 9.46501 19.4857C9.29851 19.4857 9.14401 19.5502 9.02551 19.6672L5.43001 23.2627L5.12101 22.9537L8.71651 19.3582C8.83351 19.2412 8.89801 19.0852 8.89801 18.9187C8.89801 18.7522 8.83351 18.5977 8.71651 18.4792C8.59951 18.3622 8.44351 18.2977 8.27701 18.2977C8.11051 18.2977 7.95601 18.3622 7.83751 18.4792L4.24201 22.0747L3.95101 21.7837L8.70751 17.0272L13.635 21.9547L8.88151 26.7142ZM13.6995 21.8962L8.77201 16.9687L9.13801 16.6027L14.0655 21.5302L13.6995 21.8962ZM14.184 21.4102L14.127 21.4672L9.19951 16.5397L9.25651 16.4827C9.48901 16.2502 9.79651 16.1227 10.125 16.1227C10.2675 16.1227 10.4085 16.1482 10.5435 16.1962L11.868 16.6777L13.989 18.7987L14.4705 20.1232C14.6325 20.5702 14.52 21.0742 14.184 21.4102ZM14.067 18.6277L12.039 16.5997L13.605 14.9617L15.753 17.0152L14.067 18.6277ZM22.17 16.1512C22.5495 16.5367 25.9605 20.0857 25.965 22.6642C25.9665 23.3002 25.7565 23.8342 25.341 24.2497C24.93 24.6607 24.402 24.8692 23.7705 24.8692C21.1965 24.8692 17.631 21.4582 17.2425 21.0787L17.772 18.7942L19.8855 16.6807L22.17 16.1512ZM19.719 16.5997L17.691 18.6277L15.939 16.9522L13.662 14.7757L6.22801 7.66573C5.87701 7.32973 5.68051 6.87823 5.67601 6.39223C5.67001 5.90623 5.85601 5.45023 6.19951 5.10673C6.53701 4.76923 6.98701 4.58323 7.46401 4.58323C7.95751 4.58323 8.41651 4.77973 8.75701 5.13523L19.719 16.5997ZM18.159 14.7142L16.0005 12.4567L23.001 5.13673C23.3415 4.77973 23.8005 4.58473 24.294 4.58473C24.7725 4.58473 25.221 4.77073 25.5585 5.10823C25.902 5.45173 26.088 5.90773 26.082 6.39373C26.076 6.87973 25.881 7.33123 25.53 7.66723L18.159 14.7142Z" fill="black"/>
<path d="M23.9235 24.4778C24.426 24.4778 24.831 24.3293 25.125 24.0353C25.8765 23.2838 25.6875 21.8843 24.567 19.8728C23.7375 18.3848 22.6785 17.0993 22.668 17.0858C22.6575 17.0738 22.641 17.0678 22.6245 17.0708L20.598 17.5103C20.5905 17.5118 20.583 17.5163 20.577 17.5223L18.612 19.4873C18.606 19.4933 18.6015 19.5008 18.6 19.5083L18.1605 21.5348C18.1575 21.5513 18.1635 21.5678 18.1755 21.5783C18.2115 21.6053 21.723 24.4763 23.9235 24.4778ZM18.684 19.5383L20.6295 17.5928L22.617 17.1623C22.9065 17.5178 26.7315 22.3043 25.0635 23.9738C24.786 24.2513 24.4035 24.3908 23.925 24.3908C21.843 24.3908 18.5475 21.7628 18.255 21.5258L18.684 19.5383Z" fill="black"/>
</svg>
