<svg  viewBox="0 0 30 31" fill="none" xmlns="http://www.w3.org/2000/svg">
<g clip-path="url(#clip0_752_21861)">
<path d="M27.45 17.1081C27.2791 15.735 26.6575 14.4574 25.6825 13.4756C24.7075 12.4938 23.4342 11.8633 22.0625 11.683C21.471 10.0266 20.3161 8.63105 18.7999 7.73979C17.2836 6.84854 15.5024 6.51827 13.7674 6.80718C12.0325 7.09608 10.4543 7.98578 9.30862 9.3203C8.16299 10.6548 7.52283 12.3495 7.5 14.1083C6.17391 14.1083 4.90215 14.6348 3.96446 15.5724C3.02678 16.5101 2.5 17.7821 2.5 19.1083C2.5 20.4343 3.02678 21.706 3.96446 22.6436C4.90215 23.5814 6.17391 24.1083 7.5 24.1083H15" stroke="currentColor" stroke-width="2.5" stroke-linecap="round" stroke-linejoin="round"/>
<g clip-path="url(#clip1_752_21861)">
<path d="M18.5225 24.2632C19.2155 24.0109 19.9599 24.3081 20.1851 24.9269C20.6616 26.236 22.2419 26.8668 23.7079 26.3332C25.174 25.7996 25.9791 24.3005 25.5026 22.9915C25.1093 21.9109 23.9638 21.2925 22.7513 21.4097L22.7984 21.5391C22.913 21.8542 22.83 22.2168 22.5818 22.4855C22.3321 22.7556 21.9539 22.8922 21.591 22.8458L18.4994 22.4503C18.1368 22.4039 17.8403 22.1794 17.7258 21.8646C17.6112 21.5498 17.694 21.1873 17.942 20.9186L20.056 18.6285C20.3045 18.3592 20.6823 18.2212 21.0466 18.2677C21.4095 18.3139 21.7061 18.5384 21.8208 18.8534L21.919 19.1231C24.5373 18.5331 27.1674 19.757 28.0122 22.0781C28.9384 24.6227 27.3733 27.5368 24.5235 28.5741C21.6737 29.6113 18.6017 28.3849 17.6756 25.8403C17.4503 25.2215 17.8295 24.5154 18.5225 24.2632Z" fill="currentColor"/>
</g>
</g>
<defs>
<clipPath id="clip0_752_21861">
<rect width="30" height="30" fill="currentColor" transform="translate(0 0.333252)"/>
</clipPath>
<clipPath id="clip1_752_21861">
<rect width="11" height="11" fill="currentColor" transform="matrix(-0.920505 0.390731 0.390731 0.920505 25.41 16.2932)"/>
</clipPath>
</defs>
</svg>
