<svg viewBox="0 0 30 31" fill="none" xmlns="http://www.w3.org/2000/svg">
<path d="M17.5055 6.58878C17.5055 6.58878 18.8391 3.2255 20.3766 3.52081C22.0922 3.85128 21.136 7.90831 21.136 7.90831L17.5055 6.58878Z" fill="#FFB903"/>
<path d="M12.9539 6.02628C12.9539 6.02628 11.3367 2.82472 9.98435 3.28878C8.63201 3.75284 9.62107 7.97393 9.62107 7.97393L12.9539 6.02628Z" fill="#FFB903"/>
<path d="M11.2359 6.25819C11.2359 6.25819 11.6976 5.69804 15.5578 5.82929C19.418 5.96054 21.5625 7.31523 21.5625 7.31523C21.5625 7.31523 22.8937 6.29569 24.1922 5.85272C26.1211 5.19647 28.7156 6.30038 28.9195 6.72226C29.0765 7.04335 28.193 9.90272 27.0398 10.8801C25.7531 11.9699 24.368 11.9019 24.368 11.9019C24.368 11.9019 24.0633 13.9058 24.0047 15.3988C23.9719 16.2566 24.0891 17.1519 24.2367 17.609C24.5344 18.5324 24.7031 19.1676 24.8508 20.2996C24.975 21.2441 24.9961 22.1605 24.9961 22.1605L9.68671 18.3004L11.2359 6.25819Z" fill="#DFDFDF"/>
<path d="M9.0914 18.0379C9.0914 18.0379 11.4891 17.4004 12.1266 17.0582C12.6703 16.7676 15.7242 15.4293 15.9539 11.3067C16.1836 7.18401 13.2726 5.98401 12.8766 5.88323C12.4805 5.78479 11.0508 6.16917 10.2141 6.58636C9.8578 6.76448 9.0914 7.28011 9.0914 7.28011C9.0914 7.28011 7.57265 5.69573 5.19843 5.46604C2.82421 5.23401 1.04062 6.48792 1.0078 6.65432C0.974991 6.81839 1.89843 10.0598 3.58827 11.1871C4.08046 11.5153 4.71327 11.6629 5.14687 11.7215C6.28124 11.8762 6.71483 11.7356 6.71483 11.7356C6.71483 11.7356 6.55077 13.484 6.51796 14.3746C6.48515 15.2653 6.4664 16.5239 6.36327 17.4332C6.29765 18.0168 5.50546 19.566 5.48437 20.7098C5.4703 21.4692 9.0914 18.0379 9.0914 18.0379Z" fill="#BC8954"/>
<path d="M15.4078 17.7731C18.2578 17.8411 18.9211 17.3442 20.864 17.4754C22.807 17.6067 25.282 19.6528 25.0476 22.5895C24.8133 25.5262 22.3711 27.6379 19.7601 28.2309C17.1492 28.8239 11.325 28.8918 8.58045 27.4059C5.82419 25.9153 5.23357 23.909 5.20076 22.027C5.16794 20.145 6.57185 17.4426 9.61638 17.1145C12.6609 16.7864 12.5953 17.7075 15.4078 17.7731Z" fill="#FFD3B0"/>
<path d="M22.95 9.62393C22.4625 8.7708 22.95 7.42314 24.4898 7.07158C26.0297 6.72002 27.5695 7.42314 27.5695 7.42314C27.5695 7.42314 27.0984 9.22783 26.0297 9.93096C25.1273 10.5263 23.6531 10.8544 22.95 9.62393Z" fill="#FFD3B0"/>
<path d="M5.88046 7.16061C4.50936 6.73405 2.72577 7.28952 2.72577 7.28952C2.72577 7.28952 2.78202 8.08171 3.34452 8.84811C3.68202 9.30749 4.18593 9.85827 4.9828 10.1208C6.85311 10.7372 7.55155 9.62389 7.70389 9.11764C7.86092 8.61139 7.57499 7.68796 5.88046 7.16061Z" fill="#FFD3B0"/>
<path d="M12.8505 13.9393C12.977 13.0617 12.5217 12.2699 11.8337 12.1708C11.1457 12.0717 10.4855 12.7028 10.3591 13.5804C10.2326 14.458 10.6879 15.2498 11.3759 15.3489C12.0639 15.448 12.7241 14.8169 12.8505 13.9393Z" fill="#0A0A0A"/>
<path d="M19.8503 15.4536C20.5372 15.3467 20.9832 14.5488 20.8467 13.6713C20.7101 12.7939 20.0426 12.1693 19.3557 12.2763C18.6689 12.3832 18.2228 13.1811 18.3594 14.0585C18.496 14.9359 19.1635 15.5605 19.8503 15.4536Z" fill="#0A0A0A"/>
<path d="M17.1422 23.6582C16.4391 23.1074 16.8328 21.6543 18 20.8434C19.2328 19.9856 20.5148 20.2996 20.7492 20.8223C21.0563 21.5043 20.7047 21.9215 20.332 22.2074C19.9781 22.477 19.4953 22.4277 19.1883 22.6035C18.8813 22.7793 18.7477 23.241 18.3305 23.616C17.9438 23.9606 17.3766 23.8387 17.1422 23.6582Z" fill="#2E2F31"/>
<path d="M9.4875 20.9302C9.70781 19.9411 11.2852 19.9786 12.4125 20.8411C13.6031 21.7528 13.8422 23.0419 13.3359 23.4802C12.7594 23.9817 12.2016 23.7309 11.8547 23.4309C11.5172 23.1403 11.3977 22.9059 11.1352 22.6645C10.875 22.4255 10.4086 22.3552 9.92578 22.0716C9.48047 21.8114 9.39375 21.352 9.4875 20.9302Z" fill="#2E2F31"/>
</svg>
