<svg width="30" height="31" viewBox="0 0 30 31" fill="none" xmlns="http://www.w3.org/2000/svg">
<path d="M27.45 17.1081C27.2791 15.735 26.6575 14.4574 25.6825 13.4756C24.7075 12.4938 23.4342 11.8633 22.0625 11.683C21.471 10.0266 20.3161 8.63105 18.7999 7.73979C17.2836 6.84854 15.5024 6.51827 13.7674 6.80718C12.0325 7.09608 10.4543 7.98578 9.30862 9.3203C8.16299 10.6548 7.52283 12.3495 7.5 14.1083C6.17391 14.1083 4.90215 14.6348 3.96446 15.5724C3.02678 16.5101 2.5 17.7821 2.5 19.1083C2.5 20.4343 3.02678 21.706 3.96446 22.6436C4.90215 23.5814 6.17391 24.1083 7.5 24.1083H15" stroke="black" stroke-width="2.5" stroke-linecap="round" stroke-linejoin="round"/>
<g clip-path="url(#clip0_752_21861)">
<path d="M26.3761 22.4548C25.7057 22.4548 25.1622 22.9401 25.1622 23.5387C25.1622 24.8052 24.0083 25.8354 22.59 25.8354C21.1717 25.8354 20.0179 24.8052 20.0179 23.5387C20.0179 22.4933 20.8042 21.6089 21.8764 21.332V21.4572C21.8764 21.762 22.0601 22.046 22.3557 22.1983C22.653 22.3515 23.0186 22.3505 23.3141 22.198L25.8322 20.8989C26.1275 20.7465 26.311 20.4626 26.311 20.158C26.311 19.8534 26.1275 19.5696 25.8321 19.4172L23.3141 18.118C23.0181 17.9653 22.6525 17.9649 22.3557 18.1178C22.0601 18.2702 21.8765 18.5541 21.8765 18.8589V19.1198C19.4563 19.43 17.59 21.2932 17.59 23.5387C17.59 26.0005 19.8331 28.0033 22.59 28.0033C25.347 28.0033 27.59 26.0005 27.59 23.5387C27.59 22.9401 27.0465 22.4548 26.3761 22.4548Z" fill="black"/>
</g>
<defs>
<clipPath id="clip0_752_21861">
<rect width="11" height="11" fill="white" transform="translate(17 17.0033)"/>
</clipPath>
</defs>
</svg>
