<svg  viewBox="0 0 30 31" fill="none" xmlns="http://www.w3.org/2000/svg">
<path d="M11.8018 2.80957C10.1175 2.80957 9.2489 5.0858 8.33038 7.50243C8.0213 8.31448 7.71067 9.143 7.3661 9.881C9.53175 9.13374 12.1329 8.70778 15 8.70778C17.8944 8.70778 20.5213 9.13644 22.6982 9.89707C22.3917 9.22336 22.0997 8.48253 21.8143 7.7435C20.8356 5.20756 19.9124 2.80957 18.1982 2.80957C17.3882 2.80957 16.8193 3.27217 16.3179 3.67743C15.8756 4.03486 15.4973 4.33636 15 4.33636C14.5027 4.33636 14.1245 4.03486 13.6822 3.67743C13.1802 3.27217 12.6123 2.80957 11.8018 2.80957ZM15 9.73636C7.79025 9.73636 2.14288 12.5913 2.14288 16.2453C2.14288 18.5241 4.37128 20.5874 8.12145 21.7739C9.50591 25.0144 11.6366 28.5239 15 28.5239C18.364 28.5239 20.4941 24.9993 21.8786 21.7578C25.6257 20.5708 27.8572 18.522 27.8572 16.2453C27.8572 12.5918 22.2098 9.73636 15 9.73636ZM15 14.1239C20.8783 14.1239 21.6256 15.6533 21.6857 15.7953V17.0167L22.2804 16.9364C22.2804 16.9364 22.6526 16.8935 22.9072 17.1131C23.1751 17.3451 23.2286 17.8002 23.2286 18.1417C23.2286 18.8879 22.6747 19.4954 21.9429 19.5721L21.6375 19.6042L21.525 19.9096C19.5851 25.0159 17.4449 27.4953 15 27.4953C12.5556 27.4953 10.43 25.0154 8.4911 19.9096L8.3786 19.6042L8.05717 19.5721C7.32277 19.4975 6.77145 18.89 6.77145 18.1417C6.77145 17.6732 6.88203 17.3361 7.09288 17.1453C7.35723 16.9061 7.73574 16.9364 7.73574 16.9364L8.31431 17.0006V15.8114C8.38888 15.6226 9.17471 14.1239 15 14.1239Z" fill="currentColor"/>
</svg>
