<svg  viewBox="0 0 30 31" fill="none" xmlns="http://www.w3.org/2000/svg">
<g clip-path="url(#clip0_752_21861)">
<path d="M27.45 17.1081C27.2791 15.735 26.6575 14.4574 25.6825 13.4756C24.7075 12.4938 23.4342 11.8633 22.0625 11.683C21.471 10.0266 20.3161 8.63105 18.7999 7.73979C17.2836 6.84854 15.5024 6.51827 13.7674 6.80718C12.0325 7.09608 10.4543 7.98578 9.30862 9.3203C8.16299 10.6548 7.52283 12.3495 7.5 14.1083C6.17391 14.1083 4.90215 14.6348 3.96446 15.5724C3.02678 16.5101 2.5 17.7821 2.5 19.1083C2.5 20.4343 3.02678 21.706 3.96446 22.6436C4.90215 23.5814 6.17391 24.1083 7.5 24.1083H15" stroke="currentColor" stroke-width="2.5" stroke-linecap="round" stroke-linejoin="round"/>
<path d="M23.4741 19.0833V29.0833" stroke="currentColor" stroke-width="2.5" stroke-linecap="round" stroke-linejoin="round"/>
<path d="M27.475 25.0833L23.4751 29.0833L19.4751 25.0833" stroke="currentColor" stroke-width="2.5" stroke-linecap="round" stroke-linejoin="round"/>
</g>
<defs>
<clipPath id="clip0_752_21861">
<rect width="30" height="30" fill="white" transform="translate(0 0.333252)"/>
</clipPath>
</defs>
</svg>
