<svg  viewBox="0 0 30 31" fill="none" xmlns="http://www.w3.org/2000/svg">
<path d="M29.8304 10.1397L26.5981 6.76774L28.0049 5.87051L28.087 5.17124L27.4345 5.13232L25.7422 6.34955L23.6304 6.35138L22.3377 5.56205L21.8747 5.65659L21.8815 6.16975L22.7148 7.09265L22.6049 7.57744L12.7984 8.63208L2.64049 8.34841L1.54586 8.80728L0.739569 9.83184L0.324724 12.2283L0.251442 13.951L0 15.5596L0.0691198 17.1618L0.351905 17.2196L0.762966 16.7671L1.09715 15.2638L0.826284 13.1783L0.920504 13.1642L1.55721 16.339L1.12351 19.0943L1.5195 24.5934L1.55721 25.2023L1.94311 25.5316L3.64935 25.5342L4.19915 25.3679L2.67265 22.882L3.42994 19.7252L3.82656 19.7259L5.21041 23.9231L5.92374 25.0007L6.27565 25.2173L8.1591 25.2187L8.40076 24.9163L6.77033 23.9147L5.66486 20.5102L5.94197 19.9575L6.59135 20.0178L6.99907 21.0161L7.58968 20.043L8.16193 21.0203L8.64666 19.9591L10.0734 18.8624L15.1362 18.3776L15.986 19.4165L16.7021 24.4951L17.0789 25.2249L18.804 25.2242L18.99 24.9507L17.9414 23.4913L17.8154 20.7123L18.3816 21.0266L18.978 22.8726L19.7365 25.2696L20.0766 25.5333L21.6201 25.5342L21.7483 25.1856L21.297 24.768L19.8416 21.9237L20.1771 18.9428L21.808 17.7365L24.1837 13.3238L26.918 12.0615L29.4325 11.7753L29.648 11.5415L29.9999 10.5498L29.8304 10.1397Z" fill="currentColor"/>
</svg>
