<svg viewBox="0 0 30 31" fill="none" xmlns="http://www.w3.org/2000/svg">
<path d="M7.57122 10.8196L7.48497 10.7709L6.98831 10.4892C6.79394 10.3791 6.5793 10.3095 6.35731 10.2846C6.13532 10.2596 5.91058 10.2799 5.69664 10.3442C5.24335 10.4803 4.84559 10.7581 4.56164 11.1367C4.24316 11.5596 3.92635 11.9838 3.61122 12.4092C3.34614 12.861 3.08197 13.3134 2.81872 13.7663C2.74029 13.9008 2.68989 14.0497 2.67055 14.2042C2.65122 14.3586 2.66335 14.5154 2.70622 14.665C2.76566 14.874 2.8818 15.0624 3.04175 15.2094C3.20171 15.3565 3.39925 15.4563 3.61247 15.498C4.32039 15.6367 5.46872 15.748 6.69539 15.3992C6.88289 15.3459 7.08372 15.3784 7.23539 15.5009C7.68122 15.8613 8.56956 16.7071 8.71789 17.8221C8.75497 18.1021 9.00706 18.3034 9.28956 18.3063C9.96414 18.3142 11.0087 18.5184 11.0087 19.7084C11.0087 19.7667 10.945 21.1588 10.9033 22.063C10.88 22.5713 10.9225 23.0784 11.0296 23.5755C11.0581 23.7075 11.131 23.8259 11.2362 23.9108C11.3413 23.9957 11.4723 24.042 11.6075 24.0421H11.8487C12.1279 24.0421 12.3696 23.8463 12.4271 23.5725L13.2679 19.5725C13.2998 19.4212 13.3899 19.2883 13.5186 19.2026C13.6474 19.1168 13.8046 19.0849 13.9566 19.1138L14.8241 19.2784C14.8712 19.2871 14.9191 19.2905 14.9666 19.2875L20.0041 19.0113C20.0716 19.0071 20.1375 18.9921 20.2 18.9663L21.0612 18.6063C21.3529 18.4846 21.6879 18.6134 21.8233 18.8988L22.1191 19.523C22.1758 19.643 22.1904 19.7788 22.1608 19.9084L21.5329 22.6434C21.4871 22.8434 21.5479 23.0521 21.6933 23.1963L21.9858 23.485C22.215 23.7113 22.5825 23.7125 22.8133 23.4884C23.0925 23.2167 23.5575 23.2825 23.7404 23.6263C23.8696 23.868 24.1279 24.0417 24.6266 23.9734C25.3791 23.8705 25.6479 23.5909 25.7433 23.4159C25.7787 23.3462 25.7978 23.2694 25.7991 23.1913L25.92 20.5888C25.9212 20.5575 25.92 20.5263 25.9166 20.4946L25.8175 19.6196C25.8033 19.4941 25.7493 19.3764 25.6633 19.2838L24.8158 18.3738C24.7548 18.3082 24.7094 18.2296 24.6832 18.1439C24.657 18.0582 24.6506 17.9677 24.6646 17.8792L25.2321 14.2742C25.2408 14.2195 25.2416 14.1638 25.2346 14.1088C25.1929 13.7905 25.0287 12.6075 24.75 11.6021C24.5087 10.733 23.7175 10.133 22.8158 10.1113L14.8029 9.91963C13.9848 9.90012 13.1664 9.93827 12.3537 10.0338L10.7412 10.223C10.2139 10.285 9.68977 10.3712 9.17039 10.4813L7.57122 10.8196Z" fill="white"/>
<path d="M9.56164 10.2588C8.95539 10.2338 8.49914 10.2996 8.06498 10.4475L7.18206 10.7488C7.18206 10.7488 4.90914 11.505 4.90498 13.6096C4.90081 15.7138 6.39081 15.6804 6.39081 15.6804C6.83617 15.6802 7.27102 15.8157 7.63742 16.0689C8.00382 16.322 8.28435 16.6809 8.44164 17.0975C8.54748 17.3784 8.62956 17.6888 8.66123 18.0167C8.74373 18.8792 9.44539 19.2167 9.91498 19.3471C10.2358 19.4359 10.5225 19.6179 10.7525 19.8584C10.9358 20.0513 11.0333 20.3104 11.0216 20.5767L10.9771 21.5909C10.9514 22.1773 10.8809 22.761 10.7662 23.3367C10.7548 23.3941 10.762 23.4536 10.7869 23.5066C10.8118 23.5595 10.8531 23.6031 10.9046 23.6309C11.2163 23.7989 11.5813 23.8389 11.9221 23.7425C12.0759 23.699 12.2154 23.6152 12.3261 23.4999C12.4368 23.3845 12.5148 23.2418 12.5521 23.0863L13.5754 18.8259L13.6029 18.6084C13.7475 17.4715 13.7327 16.3199 13.5591 15.1871C13.4383 14.3967 13.3175 13.6034 13.3004 13.4775C13.2395 13.0261 13.1675 12.5763 13.0846 12.1284C12.8546 10.8913 11.7546 10.3063 10.4975 10.2534L9.56164 10.2588ZM17.4404 10.2584C17.1587 10.2484 17.0525 10.2313 17.2291 10.4509C17.8437 11.2146 18.775 12.7592 18.7516 15.0904C18.73 17.2604 19.8608 18.0513 20.7121 18.3388C21.2983 18.5371 21.7571 18.9992 21.9075 19.5996C21.9908 19.9317 21.9937 20.2788 21.9158 20.6125L21.5846 22.0371C21.5137 22.3404 21.5441 22.6579 21.6712 22.9425C21.7465 23.111 21.8764 23.2492 22.04 23.3347C22.2035 23.4203 22.3911 23.4481 22.5725 23.4138C22.6823 23.393 22.7849 23.3442 22.8704 23.2721C22.9558 23.2001 23.0213 23.1072 23.0604 23.0025L24.2871 19.715C24.3646 19.5075 24.4346 19.2992 24.4991 19.0875C24.7154 18.3754 25.2066 14.3104 25.2421 14.0688C25.2441 14.0547 25.245 14.0405 25.2446 14.0263C25.2416 13.7567 25.1221 11.4734 23.8458 10.5421C23.7961 10.5061 23.7367 10.4861 23.6754 10.4846L17.4404 10.2584Z" fill="#A57939"/>
<path d="M24.9388 14.1913C25.1671 15.0988 25.0213 16.5605 24.5042 17.6859L24.165 19.8359L23.1208 23.0305C23.0096 23.37 22.7008 23.5988 22.3533 23.5988H22.2458C21.695 23.5988 21.305 23.0446 21.4758 22.5042L22.1533 19.593C22.1533 19.593 20.4313 16.4009 20.9038 14.9213M12.9375 13.6096L13.5754 17.0088L12.5188 23.3117C12.4671 23.7213 12.1325 24.0309 11.7321 24.0392L11.6042 24.0417C11.0488 24.0534 10.6467 23.5013 10.8158 22.9555C11.16 21.8455 11.225 20.0509 10.7154 18.8259C10.1329 17.4267 10.4017 16.7596 10.4017 16.7596" stroke="black" stroke-width="0.333333" stroke-linecap="round" stroke-linejoin="round"/>
<path d="M14.895 18.8755C14.895 18.8755 19.935 19.4217 21.3025 18.2755M27.1667 18.8259C27.1667 18.8259 26.2633 17.298 26.65 14.9725C27.1483 10.6175 23.1013 9.99672 23.9642 10.2034L23.8225 10.1488L14.1571 9.90547C13.7696 9.89547 13.3821 9.91172 12.9971 9.9538L9.70085 10.313M24.4817 17.828L25.7954 19.4263L25.7683 22.9042C25.7683 23.288 25.4671 23.5988 25.095 23.5988H24.395M3.24585 9.61255C4.07502 10.6696 4.90502 10.6696 4.90502 10.6696" stroke="black" stroke-width="0.333333" stroke-linecap="round" stroke-linejoin="round"/>
<path d="M7.90628 8.9563C8.49711 10.1409 7.18211 10.7488 7.18211 10.7488C7.18211 10.7488 6.05003 9.17463 4.90503 10.6696L4.04628 11.7113C4.04628 11.7113 3.1667 13.1571 2.55045 13.9871C2.3792 14.218 2.68795 14.9975 2.83628 15.2446C3.11128 15.7055 5.06628 15.9892 6.88753 15.3334C6.88753 15.3334 8.40628 15.4696 8.6917 18.275C8.74628 18.8088 9.83253 19.5321 10.7267 19.4134" stroke="black" stroke-width="0.333333" stroke-linecap="round" stroke-linejoin="round"/>
<path d="M7.77252 13.4605C9.75419 14.1076 9.85377 12.4363 9.85377 12.4363V12.3288C8.88961 11.1788 7.99711 12.0051 7.99711 12.0051" stroke="black" stroke-width="0.333333" stroke-linecap="round" stroke-linejoin="round"/>
</svg>
