<svg width="30" height="31" viewBox="0 0 30 31" fill="none" xmlns="http://www.w3.org/2000/svg">
<g clip-path="url(#clip0_315_15144)">
<path d="M29.9275 28.6526C29.5801 28.2263 29.2485 28.2737 28.7433 28.4474C28.1274 28.6526 28.2221 28.7947 27.9537 28.0368C27.859 27.7526 27.5274 27.6578 27.2906 27.8631C26.7221 28.3842 26.1062 28.8263 25.5221 29.3316C25.5063 29.3 25.4905 29.2842 25.4747 29.2526C25.6484 29.2211 25.822 29.0947 25.8379 28.8579C26.5327 21.2313 31.4434 9.24661 23.6115 3.54632C18.606 -0.0854053 10.5214 0.0882862 6.36864 4.87269C4.45803 6.3096 3.02113 8.3781 2.31058 11.0151C0.842095 16.4469 2.26321 22.7471 4.1896 28.0368C3.98433 27.7526 3.76327 27.4683 3.52642 27.1999C3.33693 26.9789 3.00534 27.1684 2.98955 27.4209C2.97376 27.9894 2.95797 28.5578 2.95797 29.1263C2.54743 28.7789 2.1211 28.4157 1.85266 27.9421C1.75792 27.7684 1.52107 27.7052 1.34738 27.8C0.810515 28.1316 -0.247424 29.3316 0.0525888 30.0421C0.0999592 30.1684 0.22628 30.3105 0.384181 30.2947C0.526293 30.279 0.605243 30.2474 0.699984 30.1368C0.810515 30.0263 0.810515 29.8842 0.747354 29.7737C0.842095 29.4105 1.17369 28.9526 1.4737 28.6684C1.93161 29.2368 2.53164 29.6789 3.0685 30.1684C3.28956 30.3737 3.70011 30.2316 3.68432 29.9157C3.68432 29.3631 3.66853 28.7946 3.65274 28.2419C4.01591 28.6525 4.36329 29.0946 4.74226 29.4893C4.75805 29.5367 4.78963 29.5999 4.80542 29.6473C4.94753 29.9946 5.51597 29.8684 5.38965 29.4893C3.57379 23.9312 1.99477 16.2256 3.68432 10.6676C4.26855 10.8413 4.86858 10.9044 5.48439 10.9676C5.54755 11.5834 5.70545 12.1676 5.76861 12.7834C5.81598 13.194 6.4318 13.3361 6.52654 12.894C6.70023 12.136 7.04761 11.8045 7.45816 11.3939C7.61606 11.8045 7.77396 12.2308 7.96344 12.6413C8.04239 12.815 8.24766 12.8466 8.40557 12.815C9.05296 12.7045 9.70036 12.3571 10.2846 12.0571C10.7267 11.836 10.332 11.1886 9.90563 11.3939C9.4635 11.5992 9.02138 11.836 8.54768 11.9781C8.3424 11.4729 8.16871 10.9518 7.94765 10.4465C7.80554 10.1465 7.42658 10.2412 7.26868 10.4465C6.9055 10.936 6.5897 11.2044 6.32127 11.536C6.25811 11.236 6.19495 10.9518 6.16337 10.6518C6.14758 10.4781 6.02126 10.2886 5.81598 10.3044C5.1528 10.3518 4.5054 10.3518 3.85801 10.1939C5.27912 6.10422 8.57926 3.30937 15.0532 3.62517C16.6165 3.70412 17.8954 4.06729 18.9376 4.65153C18.2744 5.15681 17.9112 5.85158 17.548 6.56213C17.027 6.30949 16.2848 6.2937 16.0638 6.86215C16.0164 6.98847 16.0638 7.16216 16.1585 7.2569C16.19 7.28848 16.2217 7.32006 16.2533 7.35164C16.4427 7.52533 16.7112 7.44638 16.8217 7.27269C16.8691 7.30427 16.9638 7.32006 17.1059 7.28848C17.1218 7.28848 17.1375 7.30427 17.1533 7.30427C16.7901 7.93588 16.348 8.52011 15.5901 8.88328C15.2269 9.05697 15.4006 9.67279 15.7954 9.64121C16.427 9.57805 17.0428 9.37278 17.6271 9.10435C17.7059 9.42015 17.8007 9.73595 17.8954 10.0518C18.0376 10.4781 18.7165 10.4307 18.7007 9.94122C18.6691 9.19909 18.5586 7.8885 18.1007 7.11479C18.4165 6.30949 18.6691 5.56736 19.3008 4.90417C24.1641 8.09378 23.3746 16.6204 22.4588 23.3628C21.6693 23.3944 20.8797 23.4734 20.0903 23.4891C20.0903 23.2523 20.0903 23.0312 20.1061 22.7944C20.1061 22.447 19.6956 22.3049 19.4429 22.526C19.1429 22.7786 18.8113 22.9839 18.4639 23.1733C18.606 23.0154 18.7638 22.8733 18.9059 22.7154C19.0639 22.5575 19.0323 22.3365 18.9059 22.1628C18.6849 21.8943 17.8639 20.8522 17.469 21.547C17.2164 21.989 17.5638 22.3838 17.927 22.6049C17.3901 23.1576 16.9006 23.7102 16.5058 24.3891C16.269 24.7839 16.7901 25.1471 17.1217 24.8629C17.7691 24.2944 18.5902 23.9786 19.3323 23.5365C19.3323 23.6471 19.3323 23.7576 19.3323 23.8681C19.3323 24.0576 19.506 24.2471 19.7113 24.2471C20.6271 24.1997 21.4956 23.9629 22.3957 23.805C22.1114 25.8735 21.8272 27.7525 21.7009 29.2368C21.6535 29.8684 22.6009 29.8842 22.7114 29.2842C22.7588 29.4579 23.0114 29.5684 23.1378 29.3473C23.4378 28.7947 23.7536 28.2894 24.1325 27.8157C24.3221 28.6368 24.7168 29.3631 25.0957 30.1211C25.2063 30.3421 25.5221 30.3579 25.6958 30.2C26.2485 29.6947 26.8484 29.2684 27.4169 28.7947C27.5748 29.1421 27.7958 29.4579 28.1749 29.6C28.317 29.6474 28.4591 29.5842 28.5538 29.5052C28.9011 29.1894 29.2959 29.0789 29.7065 29.1579C30.0064 29.1579 30.0696 28.8106 29.9275 28.6526ZM15.0532 2.66208C13.3163 2.48839 11.6583 2.6305 10.1425 3.04104C14.1532 1.24097 19.0323 1.43045 22.6957 3.98845C22.6483 3.97266 22.5851 3.95687 22.5378 3.95687C21.9851 4.05161 21.4009 4.11477 21.0693 4.57268C20.6745 4.39899 20.2166 4.33583 19.885 4.0674C19.7903 3.98845 19.6797 4.02003 19.6008 4.08319C18.3849 3.35684 16.9007 2.85156 15.0532 2.66208ZM20.6429 4.88848C20.7692 4.95165 20.8798 5.0306 20.9746 5.12534C21.1008 5.25166 21.2903 5.20429 21.3851 5.07797C21.7167 4.58847 22.3325 4.77795 22.7588 4.41478C22.901 4.30425 22.8536 4.14635 22.743 4.0674C23.2799 4.44636 23.7694 4.87269 24.2431 5.3464C28.159 9.30972 27.4485 15.1521 26.3747 20.7102C26.0747 20.7102 25.7905 20.8208 25.5379 20.9786C25.1431 21.2313 25.001 21.3734 24.5431 21.0892C24.3062 20.947 24.0378 21.1365 24.022 21.3892C24.0062 21.7681 23.7851 22.0681 23.5641 22.3682C24.3536 15.8942 24.7957 8.536 20.6429 4.88848ZM25.0642 28.3368C24.8905 27.9421 24.7642 27.5157 24.7168 27.0578C24.6852 26.8052 24.3536 26.5684 24.1484 26.821C23.5799 27.5157 23.1536 28.2421 22.7746 29.0474C22.9167 27.4526 23.1693 25.5893 23.422 23.584C23.4694 23.5366 23.4694 23.4734 23.4378 23.4103C23.4378 23.3787 23.4378 23.3471 23.4537 23.3156C23.4852 23.2997 23.501 23.2682 23.5168 23.2366C23.8326 22.7155 24.3379 22.3366 24.5748 21.8155C24.8274 21.9102 25.08 21.9576 25.3485 21.8629C25.68 21.7523 25.9327 21.5471 26.2327 21.405C25.759 23.8525 25.2378 26.2209 25.0642 28.3368Z" fill="black"/>
<path d="M11.6899 19.9837C10.853 19.5732 10.4425 18.8943 9.63717 18.61C9.84244 18.2942 10.0003 17.9626 10.0951 17.5836C10.2214 17.0783 10.1898 16.5573 10.3793 16.0678C10.4425 15.9257 10.3161 15.7204 10.174 15.7046C9.70033 15.6257 9.274 15.5941 8.83187 15.8467C8.51607 16.0204 8.34238 16.352 8.10553 16.6204C8.02658 16.4783 7.77393 16.4783 7.74235 16.652C7.72656 16.7625 7.72656 16.8731 7.72656 16.9836C7.71077 17.031 7.71077 17.0783 7.72656 17.1099C7.74235 17.6626 7.90026 18.231 7.995 18.7521C8.08974 19.2889 8.10553 20.031 8.45291 20.4574C8.57923 20.6153 8.86345 20.5206 8.89503 20.3311C8.98977 19.8574 8.73713 19.3363 8.61081 18.8942C8.45291 18.31 8.32659 17.7099 8.20027 17.1257C8.73713 16.7468 8.95819 16.2099 9.65296 16.2257C9.40032 17.0626 9.41611 17.8521 8.73713 18.5942C8.53186 18.831 8.67397 19.1784 8.98977 19.1942C10.0635 19.2574 10.4267 20.2995 11.4057 20.5995C11.8004 20.7259 12.0373 20.1574 11.6899 19.9837Z" fill="black"/>
<path d="M13.0952 18.1206C12.9689 17.41 12.8426 16.7153 12.8268 15.9889C12.811 15.6889 12.3689 15.6889 12.3531 15.9889C12.3373 16.6679 12.4163 17.3468 12.4952 18.0259C12.5426 18.4364 12.511 18.9732 12.7005 19.3364C12.7952 19.5101 13.0795 19.5259 13.1742 19.3364C13.3479 18.9732 13.1742 18.4995 13.0952 18.1206Z" fill="black"/>
<path d="M15.7638 15.089C15.6375 14.8995 15.3532 14.8363 15.1795 15.01C14.9585 15.2469 14.7848 15.4679 14.6427 15.7048C14.6111 15.5469 14.5795 15.389 14.5321 15.2311C14.469 15.0258 14.169 15.1048 14.2006 15.3258C14.2637 15.6416 14.3111 15.9732 14.3427 16.289C13.9321 17.3628 14.1532 18.5154 14.769 19.7471C14.9427 20.126 15.5269 19.8577 15.4322 19.4628C15.3217 19.0839 15.2428 18.7207 15.1638 18.3417C15.3217 18.5312 15.6375 18.5786 15.748 18.3102C15.9691 17.8207 16.2691 17.3154 16.3639 16.7785C16.4585 16.1627 16.1112 15.5785 15.7638 15.089ZM15.5901 16.8891C15.4796 17.2838 15.2428 17.6312 15.1164 18.0259C15.0532 17.6786 14.99 17.3311 14.9269 16.9838C14.9901 16.6206 15.1638 16.2575 15.4322 15.8943C15.5901 16.1943 15.6848 16.5259 15.5901 16.8891Z" fill="black"/>
<path d="M21.1324 29.3632C20.6903 28.5736 19.885 28.0209 19.7745 27.0577C19.7271 26.6946 19.2692 26.5051 19.0482 26.8683C18.8271 27.2314 18.5744 27.5315 18.3218 27.8473C18.3218 27.8315 18.3376 27.7999 18.3376 27.7841C18.3692 27.4368 17.9271 27.3262 17.706 27.5157C17.1692 28.0209 16.6165 28.4157 15.9217 28.6999C15.0217 29.0789 14.5953 27.7683 14.3269 27.2473C14.2164 27.0262 13.869 27.0262 13.7585 27.2473C13.4742 27.7841 13.269 28.4 13.3163 29C12.9216 28.2421 12.3689 27.5789 11.8637 26.8683C11.7215 26.6473 11.3426 26.5999 11.2163 26.8683L10.4268 28.4473C10.0636 27.9262 9.66883 27.4209 9.35303 26.8683C9.16355 26.5367 8.72142 26.7104 8.67405 27.0577C8.5951 27.7999 8.21614 28.3683 7.74243 28.8894C7.50558 28.3841 7.12662 27.9262 6.76345 27.5315C6.57397 27.3262 6.28974 27.4525 6.21079 27.6736C5.98973 28.2736 5.81604 28.8895 5.59498 29.4894C5.51603 29.7263 5.8792 29.8842 6.00552 29.6631C6.22658 29.2368 6.41606 28.8105 6.60554 28.3841C6.90556 28.7631 7.1582 29.2052 7.25294 29.6473C7.30031 29.9158 7.66348 29.9789 7.83718 29.8052C8.40562 29.2368 8.87932 28.6368 9.14776 27.942C9.47935 28.4157 9.82673 28.8894 10.1267 29.3947C10.2531 29.6315 10.632 29.6473 10.7583 29.3947C11.0268 28.8579 11.2952 28.3367 11.5636 27.7999C12.0847 28.5421 12.59 29.2684 13.0005 30.0894C13.1742 30.4368 13.7269 30.2 13.6322 29.8211C13.6322 29.8052 13.6164 29.7895 13.6164 29.7737C13.7111 29.7895 13.8058 29.7105 13.8216 29.6C13.8216 29.5842 13.8216 29.5684 13.8216 29.5368C13.8216 29.4894 13.8058 29.4421 13.7901 29.4263C13.7269 29.0789 13.8532 28.621 13.9953 28.2104C14.2638 28.8105 14.6585 29.5842 15.0691 29.5368C15.9534 29.4579 16.6797 29.1421 17.3587 28.6842C17.2955 28.9368 17.2324 29.1736 17.2007 29.4263C17.2007 29.4263 17.2007 29.4263 17.2007 29.4421C17.2007 29.4737 17.1849 29.5053 17.1849 29.5368C17.1533 29.9 17.7534 30.0737 17.8955 29.7264C18.2113 29.0158 18.7324 28.4789 19.2061 27.8947C19.5061 28.5579 20.0114 29.0632 20.4535 29.7264C20.7535 30.1527 21.3693 29.8052 21.1324 29.3632Z" fill="black"/>
</g>
<defs>
<clipPath id="clip0_315_15144">
<rect width="30" height="30" fill="white" transform="translate(0 0.666748)"/>
</clipPath>
</defs>
</svg>
