<svg  viewBox="0 0 30 31" fill="none" xmlns="http://www.w3.org/2000/svg">
<g clip-path="url(#clip0_16_2562)">
<path d="M15.0002 0.666748C6.71585 0.666748 0 7.38193 0 15.6669C0 23.9506 6.71579 30.6663 15.0002 30.6663C23.2842 30.6663 30 23.9506 30 15.6669C30 7.38187 23.2842 0.666748 15.0002 0.666748Z" fill="#AF842D"/>
<path d="M22.5306 7.62515C22.337 7.61596 20.6132 7.55833 19.5602 8.69228L16.3874 11.865H15.0137C15.0127 11.865 15.0116 11.8652 15.0106 11.8652C15.0049 11.8652 14.9993 11.8653 14.9937 11.8654C14.9912 11.8654 14.9888 11.865 14.9863 11.865H13.6126L10.4399 8.69228C9.38675 7.55845 7.66454 7.61614 7.4693 7.62515C6.86453 7.65707 6.3998 8.17332 6.43173 8.77845C6.46365 9.38303 6.97421 9.84583 7.58497 9.81602C7.8157 9.8038 8.54544 9.86959 8.83616 10.1897C8.84789 10.2026 8.85992 10.2151 8.87238 10.2274L11.601 12.956C10.0883 14.0303 9.09942 15.796 9.09942 17.7884C9.09942 21.0546 11.7567 23.7118 15.0229 23.7118C18.2891 23.7118 20.9463 21.0546 20.9463 17.7884C20.9463 15.7842 19.9455 14.0096 18.4177 12.9372L21.1275 10.2274C21.14 10.2151 21.1519 10.2026 21.1638 10.1897C21.4434 9.88162 22.1306 9.80592 22.4211 9.81626C23.0221 9.84371 23.5365 9.3814 23.5683 8.77845C23.6002 8.17332 23.1355 7.65707 22.5306 7.62515ZM18.7525 17.7884C18.7525 19.845 17.0795 21.5179 15.023 21.5179C12.9664 21.5179 11.2934 19.845 11.2934 17.7884C11.2934 15.7319 12.9664 14.0589 15.023 14.0589C17.0795 14.0589 18.7525 15.7319 18.7525 17.7884Z" fill="#FFFDEB"/>
</g>
<defs>
<clipPath id="clip0_16_2562">
<rect width="30" height="30" fill="white" transform="translate(0 0.666748)"/>
</clipPath>
</defs>
</svg>
