<svg viewBox="0 0 30 31" fill="none" xmlns="http://www.w3.org/2000/svg">
<g clip-path="url(#clip0_315_15394)">
<path d="M30 0.333252H0V30.3333H30V0.333252Z" fill="white"/>
<path fill-rule="evenodd" clip-rule="evenodd" d="M9.06259 3.31803C10.686 2.95725 12.6554 2.83325 15 2.83325C17.3446 2.83325 19.314 2.95725 20.9374 3.31803C22.575 3.68196 23.936 4.30325 24.983 5.35023C26.03 6.3972 26.6512 7.75828 27.0152 9.39584C27.376 11.0192 27.5 12.9886 27.5 15.3333C27.5 17.6779 27.376 19.6473 27.0152 21.2706C26.6512 22.9083 26.03 24.2693 24.983 25.3163C23.936 26.3633 22.575 26.9845 20.9374 27.3485C19.314 27.7093 17.3446 27.8333 15 27.8333C12.6554 27.8333 10.686 27.7093 9.06259 27.3485C7.42502 26.9845 6.06395 26.3633 5.01697 25.3163C3.97 24.2693 3.34871 22.9083 2.98478 21.2706C2.624 19.6473 2.5 17.6779 2.5 15.3333C2.5 12.9886 2.624 11.0192 2.98478 9.39584C3.34871 7.75828 3.97 6.3972 5.01697 5.35023C6.06395 4.30325 7.42502 3.68196 9.06259 3.31803ZM11.25 14.7083C11.25 12.9824 12.6491 11.5833 14.375 11.5833C16.1009 11.5833 17.5 12.9824 17.5 14.7083C17.5 16.4341 16.1009 17.8333 14.375 17.8333C12.6491 17.8333 11.25 16.4341 11.25 14.7083ZM14.375 9.08325C11.2684 9.08325 8.75 11.6017 8.75 14.7083C8.75 17.8149 11.2684 20.3333 14.375 20.3333C15.4756 20.3333 16.5025 20.0171 17.3696 19.4708L19.1161 21.2171C19.6042 21.7053 20.3958 21.7053 20.8839 21.2171C21.372 20.729 21.372 19.9375 20.8839 19.4494L19.1375 17.7029C19.6839 16.8358 20 15.8089 20 14.7083C20 11.6017 17.4816 9.08325 14.375 9.08325Z" fill="#AF842D"/>
</g>
<defs>
<clipPath id="clip0_315_15394">
<rect width="30" height="30" fill="white" transform="translate(0 0.333252)"/>
</clipPath>
</defs>
</svg>
