<svg viewBox="0 0 30 31" fill="none" xmlns="http://www.w3.org/2000/svg">
<path fill-rule="evenodd" clip-rule="evenodd" d="M18.905 6.77296C18.921 6.78724 18.9371 6.80156 18.9532 6.81591L23.9706 11.2757C24.9068 12.1078 25.6829 12.7976 26.2158 13.4239C26.7758 14.082 27.1745 14.7905 27.1745 15.6674C27.1745 16.5441 26.7758 17.2526 26.2158 17.9108C25.6829 18.537 24.9068 19.2268 23.9706 20.0589L18.9532 24.5188C18.9371 24.5331 18.921 24.5474 18.905 24.5616C18.4995 24.9223 18.121 25.2588 17.794 25.4748C17.4729 25.6868 16.889 25.9946 16.2349 25.7009C15.5809 25.4071 15.4231 24.7663 15.3682 24.3854C15.3124 23.9975 15.3124 23.4911 15.3125 22.9484C15.3125 22.9269 15.3125 22.9054 15.3125 22.8838V20.9231C13.4981 21.0481 11.6595 21.53 10.0513 22.3136C8.1601 23.2351 6.64974 24.5418 5.83006 26.1031C5.62956 26.485 5.19438 26.6807 4.77559 26.5775C4.3568 26.4742 4.0625 26.0986 4.0625 25.6674C4.0625 19.7661 5.78923 15.9236 8.25813 13.5614C10.4101 11.5023 13.033 10.6574 15.3125 10.4806V8.45088C15.3125 8.42928 15.3125 8.40773 15.3125 8.38623C15.3124 7.84356 15.3124 7.3371 15.3682 6.94928C15.4231 6.56844 15.5809 5.92745 16.2349 5.63371C16.889 5.33999 17.4729 5.64794 17.794 5.85994C18.121 6.07583 18.4995 6.41236 18.905 6.77296ZM17.1914 7.76351C17.3326 7.88464 17.5014 8.03403 17.7076 8.2173L22.673 12.631C23.6744 13.5211 24.35 14.1245 24.7878 14.639C25.2081 15.133 25.2995 15.4215 25.2995 15.6674C25.2995 15.9131 25.2081 16.2016 24.7878 16.6956C24.35 17.2101 23.6744 17.8135 22.673 18.7036L17.7076 23.1174C17.5014 23.3006 17.3326 23.45 17.1914 23.5711C17.188 23.385 17.1875 23.1596 17.1875 22.8838V19.953C17.1875 19.4353 16.7678 19.0155 16.25 19.0155C13.8592 19.0155 11.3749 19.583 9.22997 20.6281C8.08145 21.1878 7.01225 21.8936 6.10491 22.7383C6.56586 18.9296 7.92802 16.4723 9.55437 14.9161C11.5794 12.9785 14.138 12.3191 16.25 12.3191C16.7678 12.3191 17.1875 11.8994 17.1875 11.3816V8.45088C17.1875 8.175 17.188 7.94963 17.1914 7.76351Z" fill="currentColor"/>
</svg>
