<svg viewBox="0 0 30 31" fill="none" xmlns="http://www.w3.org/2000/svg">
<g clip-path="url(#clip0_923_22858)">
<path d="M30 9.08325V10.3333C30 11.0233 29.4412 11.5833 28.75 11.5833C28.0588 11.5833 27.5 11.0233 27.5 10.3333V9.08325C27.5 7.01575 25.8175 5.33325 23.75 5.33325H6.25C4.1825 5.33325 2.5 7.01575 2.5 9.08325V21.5833C2.5 23.6508 4.1825 25.3333 6.25 25.3333H10C10.6912 25.3333 11.25 25.8933 11.25 26.5833C11.25 27.2733 10.6912 27.8333 10 27.8333H6.25C2.80375 27.8333 0 25.0295 0 21.5833V9.08325C0 5.637 2.80375 2.83325 6.25 2.83325H23.75C27.1962 2.83325 30 5.637 30 9.08325ZM18.75 11.5833H23.75C24.4412 11.5833 25 11.0233 25 10.3333C25 9.64325 24.4412 9.08325 23.75 9.08325H18.75C18.0588 9.08325 17.5 9.64325 17.5 10.3333C17.5 11.0233 18.0588 11.5833 18.75 11.5833ZM28.9013 15.182C29.6088 15.8895 30 16.832 30 17.8333C30 18.8345 29.6088 19.777 28.9013 20.4858L20.5175 28.8695C19.5737 29.8133 18.3175 30.3345 16.9825 30.3345H15C14.3088 30.3345 13.75 29.7745 13.75 29.0845V27.102C13.75 25.767 14.27 24.5108 15.215 23.567L23.5987 15.1833C25.0612 13.7208 27.4388 13.7208 28.9013 15.1833V15.182ZM27.5 17.8333C27.5 17.4995 27.37 17.1858 27.1338 16.9495C26.645 16.4608 25.855 16.462 25.3662 16.9495L16.9825 25.3333C16.5175 25.7995 16.25 26.4433 16.25 27.1008V27.8333H16.9825C17.65 27.8333 18.2775 27.5733 18.75 27.1008L27.1338 18.717C27.37 18.4808 27.5 18.167 27.5 17.8333ZM11.25 19.0833H8.415C7.97 19.0833 7.555 18.8433 7.33125 18.4583C6.9875 17.8595 6.22375 17.6533 5.62375 18.002C5.02625 18.3483 4.82125 19.112 5.16875 19.7095C5.83625 20.8658 7.08125 21.5833 8.41625 21.5833H8.75125C8.75125 22.2733 9.31 22.8333 10.0013 22.8333C10.6925 22.8333 11.2513 22.2733 11.2513 21.5833C13.3188 21.5833 15.0013 19.9008 15.0013 17.8333C15.0013 16.1333 13.7837 14.6958 12.1075 14.417L8.30625 13.7833C7.84 13.7058 7.50125 13.3058 7.50125 12.8333C7.50125 12.1445 8.06125 11.5833 8.75125 11.5833H11.5863C12.0313 11.5833 12.4462 11.8233 12.67 12.2083C13.0137 12.8058 13.7762 13.0108 14.3775 12.6645C14.975 12.3183 15.18 11.5545 14.8325 10.957C14.165 9.80075 12.92 9.082 11.585 9.082H11.25C11.25 8.392 10.6912 7.832 10 7.832C9.30875 7.832 8.75 8.392 8.75 9.082C6.6825 9.082 5 10.7645 5 12.832C5 14.532 6.2175 15.9695 7.89375 16.2483L11.695 16.882C12.1612 16.9595 12.5 17.3595 12.5 17.832C12.5 18.5208 11.94 19.082 11.25 19.082V19.0833ZM17.5 15.3333C17.5 16.0233 18.06 16.5833 18.75 16.5833C19.44 16.5833 20 16.0233 20 15.3333C20 14.6433 19.44 14.0833 18.75 14.0833C18.06 14.0833 17.5 14.6433 17.5 15.3333Z" fill="currentColor"/>
</g>
<defs>
<clipPath id="clip0_923_22858">
<rect width="30" height="30" fill="white" transform="translate(0 0.333252)"/>
</clipPath>
</defs>
</svg>
