<svg  viewBox="0 0 30 26" fill="none" xmlns="http://www.w3.org/2000/svg">
<g clip-path="url(#clip0_1038_29311)">
<path d="M1.60718 24.3637H4.28575M4.28575 24.3637H10.9822M4.28575 24.3637V6.18221C4.28575 4.59115 4.28575 3.79503 4.5777 3.18733C4.83449 2.65277 5.24397 2.21848 5.74798 1.94612C6.32095 1.63647 7.07158 1.63647 8.57173 1.63647H10.7146C12.2147 1.63647 12.9638 1.63647 13.5367 1.94612C14.0407 2.21848 14.4516 2.65277 14.7083 3.18733C15 3.79443 15 4.58959 15 6.17754V10.1595M10.9822 24.3637H25.7143M10.9822 24.3637V16.364C10.9822 15.6177 10.9822 15.2444 11.0666 14.8964C11.1413 14.5879 11.2644 14.2953 11.4308 14.0302C11.6184 13.7312 11.881 13.4808 12.4038 12.9826L15.4863 10.0455C16.4971 9.08238 17.0029 8.60045 17.5748 8.41762C18.0789 8.25643 18.617 8.25643 19.1212 8.41762C19.6936 8.60061 20.2001 9.08278 21.2126 10.0475L24.2929 12.9826C24.8163 13.4814 25.0775 13.7311 25.2653 14.0302C25.4316 14.2953 25.5545 14.5879 25.6293 14.8964C25.7137 15.2444 25.7143 15.6177 25.7143 16.364V24.3637M25.7143 24.3637H28.3929" stroke="currentColor" stroke-width="2" stroke-linecap="round" stroke-linejoin="round"/>
</g>
<defs>
<clipPath id="clip0_1038_29311">
<rect width="30" height="25" fill="white" transform="translate(0 0.5)"/>
</clipPath>
</defs>
</svg>
