<svg  viewBox="0 0 30 31" fill="none" xmlns="http://www.w3.org/2000/svg">
<path d="M11.25 15.3334H5C4.66848 15.3334 4.35054 15.2017 4.11612 14.9673C3.8817 14.7328 3.75 14.4149 3.75 14.0834V5.33337C3.75 5.00185 3.8817 4.68391 4.11612 4.44949C4.35054 4.21507 4.66848 4.08337 5 4.08337H11.25C11.5815 4.08337 11.8995 4.21507 12.1339 4.44949C12.3683 4.68391 12.5 5.00185 12.5 5.33337V14.0834C12.5 14.4149 12.3683 14.7328 12.1339 14.9673C11.8995 15.2017 11.5815 15.3334 11.25 15.3334ZM26.25 25.3334V16.5834C26.25 16.2519 26.1183 15.9339 25.8839 15.6995C25.6495 15.4651 25.3315 15.3334 25 15.3334H18.75C18.4185 15.3334 18.1005 15.4651 17.8661 15.6995C17.6317 15.9339 17.5 16.2519 17.5 16.5834V25.3334C17.5 25.6649 17.6317 25.9828 17.8661 26.2173C18.1005 26.4517 18.4185 26.5834 18.75 26.5834H25C25.3315 26.5834 25.6495 26.4517 25.8839 26.2173C26.1183 25.9828 26.25 25.6649 26.25 25.3334Z" fill="#AF842D"/>
<path fill-rule="evenodd" clip-rule="evenodd" d="M5 5.08337C4.9337 5.08337 4.87011 5.10971 4.82322 5.1566C4.77634 5.20348 4.75 5.26707 4.75 5.33337V14.0834C4.75 14.1497 4.77634 14.2133 4.82322 14.2602C4.87011 14.307 4.9337 14.3334 5 14.3334H11.25C11.3163 14.3334 11.3799 14.307 11.4268 14.2602C11.4737 14.2133 11.5 14.1497 11.5 14.0834V5.33337C11.5 5.26707 11.4737 5.20348 11.4268 5.1566C11.3799 5.10971 11.3163 5.08337 11.25 5.08337H5ZM3.40901 3.74238C3.83097 3.32043 4.40326 3.08337 5 3.08337H11.25C11.8467 3.08337 12.419 3.32043 12.841 3.74238C13.2629 4.16434 13.5 4.73664 13.5 5.33337V14.0834C13.5 14.6801 13.2629 15.2524 12.841 15.6744C12.419 16.0963 11.8467 16.3334 11.25 16.3334H5C4.40326 16.3334 3.83097 16.0963 3.40901 15.6744C2.98705 15.2524 2.75 14.6801 2.75 14.0834V5.33337C2.75 4.73664 2.98705 4.16434 3.40901 3.74238ZM17.159 3.74238C17.581 3.32043 18.1533 3.08337 18.75 3.08337H25C25.5967 3.08337 26.169 3.32043 26.591 3.74238C27.0129 4.16434 27.25 4.73664 27.25 5.33337V9.08337C27.25 9.68011 27.0129 10.2524 26.591 10.6744C26.169 11.0963 25.5967 11.3334 25 11.3334H18.75C18.1533 11.3334 17.581 11.0963 17.159 10.6744C16.7371 10.2524 16.5 9.68011 16.5 9.08337V5.33337C16.5 4.73664 16.7371 4.16434 17.159 3.74238ZM18.75 5.08337C18.6837 5.08337 18.6201 5.10971 18.5732 5.1566C18.5263 5.20348 18.5 5.26707 18.5 5.33337V9.08337C18.5 9.14968 18.5263 9.21327 18.5732 9.26015C18.6201 9.30703 18.6837 9.33337 18.75 9.33337H25C25.0663 9.33337 25.1299 9.30703 25.1768 9.26015C25.2237 9.21327 25.25 9.14968 25.25 9.08337V5.33337C25.25 5.26707 25.2237 5.20348 25.1768 5.1566C25.1299 5.10971 25.0663 5.08337 25 5.08337H18.75ZM17.159 14.9924C17.581 14.5704 18.1533 14.3334 18.75 14.3334H25C25.5967 14.3334 26.169 14.5704 26.591 14.9924C27.0129 15.4143 27.25 15.9866 27.25 16.5834V25.3334C27.25 25.9301 27.013 26.5024 26.591 26.9244C26.169 27.3463 25.5967 27.5834 25 27.5834H18.75C18.1533 27.5834 17.581 27.3463 17.159 26.9244C16.7371 26.5024 16.5 25.9301 16.5 25.3334V16.5834C16.5 15.9866 16.7371 15.4143 17.159 14.9924ZM18.75 16.3334C18.6837 16.3334 18.6201 16.3597 18.5732 16.4066C18.5263 16.4535 18.5 16.5171 18.5 16.5834V25.3334C18.5 25.3997 18.5263 25.4633 18.5732 25.5102C18.6201 25.557 18.6837 25.5834 18.75 25.5834H25C25.0663 25.5834 25.1299 25.557 25.1768 25.5102C25.2237 25.4633 25.25 25.3997 25.25 25.3334V16.5834C25.25 16.5171 25.2237 16.4535 25.1768 16.4066C25.1299 16.3597 25.0663 16.3334 25 16.3334H18.75ZM3.40901 19.9924C3.83097 19.5704 4.40326 19.3334 5 19.3334H11.25C11.8467 19.3334 12.419 19.5704 12.841 19.9924C13.2629 20.4143 13.5 20.9866 13.5 21.5834V25.3334C13.5 25.9301 13.2629 26.5024 12.841 26.9244C12.419 27.3463 11.8467 27.5834 11.25 27.5834H5C4.40326 27.5834 3.83097 27.3463 3.40901 26.9244C2.98705 26.5024 2.75 25.9301 2.75 25.3334V21.5834C2.75 20.9866 2.98705 20.4143 3.40901 19.9924ZM5 21.3334C4.93369 21.3334 4.87011 21.3597 4.82322 21.4066C4.77634 21.4535 4.75 21.5171 4.75 21.5834V25.3334C4.75 25.3997 4.77634 25.4633 4.82322 25.5102C4.87011 25.557 4.93369 25.5834 5 25.5834H11.25C11.3163 25.5834 11.3799 25.557 11.4268 25.5102C11.4737 25.4633 11.5 25.3997 11.5 25.3334V21.5834C11.5 21.5171 11.4737 21.4535 11.4268 21.4066C11.3799 21.3597 11.3163 21.3334 11.25 21.3334H5Z" fill="currentColor"/>
</svg>
