<svg viewBox="0 0 30 31" fill="none" xmlns="http://www.w3.org/2000/svg">
<path d="M15 15.3333C17.0711 15.3333 18.75 13.6543 18.75 11.5833C18.75 9.51218 17.0711 7.83325 15 7.83325C12.9289 7.83325 11.25 9.51218 11.25 11.5833C11.25 13.6543 12.9289 15.3333 15 15.3333Z" stroke="currentColor" stroke-width="1.75"/>
<path d="M22.4614 25.3333C22.2625 21.7189 21.1559 19.0833 14.9999 19.0833C8.84402 19.0833 7.73739 21.7189 7.53845 25.3333" stroke="currentColor" stroke-width="1.75" stroke-linecap="round"/>
<path d="M8.75 4.50553C10.5886 3.44196 12.7232 2.83325 15 2.83325C21.9035 2.83325 27.5 8.42969 27.5 15.3333C27.5 22.2368 21.9035 27.8333 15 27.8333C8.09644 27.8333 2.5 22.2368 2.5 15.3333C2.5 13.0565 3.10871 10.9218 4.17228 9.08325" stroke="currentColor" stroke-width="1.75" stroke-linecap="round"/>
</svg>
