<svg  viewBox="0 0 30 31" fill="none" xmlns="http://www.w3.org/2000/svg">
<path d="M20 22.8333C20 21.1666 19.7223 19.7083 19.4445 19.4999C19.1666 19.2916 17.2222 19.0833 15 19.0833C12.7778 19.0833 10.8333 19.2916 10.5555 19.4999C10.2778 19.7083 10 21.1666 10 22.8333M20 22.8333C20 24.4999 19.7223 25.9583 19.4445 26.1666C19.1666 26.3749 17.2222 26.5833 15 26.5833C12.7778 26.5833 10.8333 26.3749 10.5555 26.1666C10.2778 25.9583 10 24.4999 10 22.8333M20 22.8333C20 22.8333 24.375 22.5208 25 22.2083C25.625 21.8958 26.25 19.7083 26.25 17.2083C26.25 14.7083 25.625 12.5208 25 12.2083C24.5995 12.008 22.6585 11.8077 20 11.6897M10 22.8333C10 22.8333 5.625 22.5208 5 22.2083C4.375 21.8958 3.75 19.7083 3.75 17.2083C3.75 14.7083 4.375 12.5208 5 12.2083C5.40056 12.008 7.34145 11.8077 10 11.6897M20 11.6897C18.5104 11.6236 16.7955 11.5833 15 11.5833C13.2045 11.5833 11.4896 11.6236 10 11.6897M20 11.6897V9.08325C20 6.86103 19.7223 4.91659 19.4445 4.6388C19.1666 4.36103 17.2222 4.08325 15 4.08325C12.7778 4.08325 10.8333 4.36103 10.5555 4.6388C10.2778 4.91659 10 6.86103 10 9.08325V11.6897" stroke="currentColor" stroke-width="1.5" stroke-linecap="round" stroke-linejoin="round"/>
</svg>
