<svg  viewBox="0 0 30 31" fill="none" xmlns="http://www.w3.org/2000/svg">
<path fill-rule="evenodd" clip-rule="evenodd" d="M22.7145 1.61609C23.3775 1.61609 24.0134 1.87948 24.4823 2.34833L28.0177 5.88385C28.4866 6.3527 28.75 6.98858 28.75 7.65163V25.3661C28.75 27.4372 27.0711 29.1161 25 29.1161H5C2.92894 29.1161 1.25 27.4372 1.25 25.3661V5.36609C1.25 3.29503 2.92894 1.61609 5 1.61609H22.7145ZM5 4.11609C4.30965 4.11609 3.75 4.67574 3.75 5.36609V25.3661C3.75 26.0565 4.30965 26.6161 5 26.6161H6.25V19.1161C6.25 17.045 7.92894 15.3661 10 15.3661H20C22.0711 15.3661 23.75 17.045 23.75 19.1161V26.6161H25C25.6904 26.6161 26.25 26.0565 26.25 25.3661V8.90163C26.25 8.23858 25.9866 7.6027 25.5177 7.13385L23.2323 4.84833C22.7634 4.37948 22.1275 4.11609 21.4645 4.11609H21.25V6.61609C21.25 8.68715 19.5711 10.3661 17.5 10.3661H12.5C10.4289 10.3661 8.75 8.68715 8.75 6.61609V4.11609H5ZM21.25 26.6161V19.1161C21.25 18.4257 20.6904 17.8661 20 17.8661H10C9.30965 17.8661 8.75 18.4257 8.75 19.1161V26.6161H21.25ZM11.25 4.11609H18.75V6.61609C18.75 7.30644 18.1904 7.86609 17.5 7.86609H12.5C11.8096 7.86609 11.25 7.30644 11.25 6.61609V4.11609Z" fill="currentColor"/>
</svg>
