<svg  viewBox="0 0 30 31" fill="none" xmlns="http://www.w3.org/2000/svg">
<path fill-rule="evenodd" clip-rule="evenodd" d="M26.0596 2.71444C24.5951 1.24997 22.2208 1.24997 20.7563 2.71444L3.0593 20.4115C2.5358 20.935 2.17896 21.6017 2.03378 22.3276L1.29994 25.9968C0.950078 27.7461 2.49238 29.2885 4.24168 28.9386L7.91085 28.2047C8.63681 28.0596 9.30356 27.7027 9.82706 27.1792L27.524 9.4822C28.9885 8.01774 28.9885 5.64338 27.524 4.1789L26.0596 2.71444ZM22.524 4.4822C23.0122 3.99405 23.8036 3.99405 24.2919 4.4822L25.7562 5.94668C26.2445 6.43483 26.2445 7.22628 25.7562 7.71444L22.4167 11.0539L19.1846 7.82169L22.524 4.4822ZM17.4168 9.58946L4.82706 22.1792C4.65256 22.3537 4.53363 22.576 4.48523 22.818L3.75139 26.4871L7.42056 25.7532C7.66255 25.7048 7.8848 25.586 8.0593 25.4115L20.649 12.8217L17.4168 9.58946Z" fill="currentColor"/>
</svg>
