<svg viewBox="0 0 138 52" fill="none" xmlns="http://www.w3.org/2000/svg">
<path d="M22.943 34.7191C23.8206 35.9019 25.4908 36.1493 26.6736 35.2717C27.8563 34.3942 28.1037 32.7239 27.2262 31.5412C26.3486 30.3584 24.6784 30.111 23.4957 30.9886C22.3129 31.8661 22.0655 33.5364 22.943 34.7191ZM1.29793 51.4015L25.3825 33.5317L24.7867 32.7286L0.70207 50.5985L1.29793 51.4015Z" fill="currentColor"/>
<path d="M51.5505 28.3322C51.8151 29.781 53.2042 30.7409 54.6529 30.4762C56.1017 30.2115 57.0616 28.8225 56.797 27.3737C56.5323 25.9249 55.1432 24.965 53.6945 25.2297C52.2457 25.4944 51.2858 26.8834 51.5505 28.3322ZM26.0899 33.4919L54.2636 28.3448L54.0838 27.3611L25.9101 32.5081L26.0899 33.4919Z" fill="currentColor"/>
<path d="M66.1268 38.2909C65.1828 39.4214 65.3341 41.103 66.4645 42.047C67.595 42.9909 69.2767 42.8397 70.2206 41.7092C71.1646 40.5787 71.0134 38.8971 69.8829 37.9531C68.7524 37.0092 67.0707 37.1604 66.1268 38.2909ZM54.6795 29.3838L67.8532 40.3838L68.4942 39.6163L55.3205 28.6162L54.6795 29.3838Z" fill="currentColor"/>
<path d="M91.5959 29.1539C92.2332 30.4817 93.8262 31.0414 95.1539 30.4041C96.4817 29.7668 97.0414 28.1738 96.4041 26.8461C95.7668 25.5183 94.1738 24.9586 92.846 25.5959C91.5183 26.2332 90.9586 27.8262 91.5959 29.1539ZM69.2164 40.4508L94.2164 28.4508L93.7836 27.5492L68.7836 39.5492L69.2164 40.4508Z" fill="currentColor"/>
<path d="M118.397 22.5785C118.716 24.0162 120.141 24.9227 121.578 24.6032C123.016 24.2837 123.923 22.8592 123.603 21.4215C123.284 19.9838 121.859 19.0773 120.422 19.3968C118.984 19.7163 118.077 21.1408 118.397 22.5785ZM94.1085 28.4881L121.108 22.4881L120.892 21.5119L93.8915 27.5119L94.1085 28.4881Z" fill="currentColor"/>
<path d="M133.494 5.20082C134.71 6.03246 136.369 5.7213 137.201 4.50582C138.032 3.29035 137.721 1.63082 136.506 0.799181C135.29 -0.0324624 133.631 0.278698 132.799 1.49418C131.968 2.70966 132.279 4.36918 133.494 5.20082ZM122.413 22.2823L135.413 3.28234L134.587 2.71766L121.587 21.7177L122.413 22.2823Z" fill="currentColor"/>
</svg>
